<svg width="240" height="56" viewBox="0 0 240 56" fill="none" xmlns="http://www.w3.org/2000/svg">
<path d="M132.729 21.4451C134.279 20.4514 136.138 20.0546 137.96 20.0015C140.066 19.9766 142.225 20.2649 144.133 21.2009C143.78 22.4049 143.421 23.6054 143.062 24.8072C141.527 24.0203 139.797 23.6348 138.074 23.6439C137.049 23.6699 135.973 23.8881 135.157 24.5438C134.403 25.144 134.001 26.1716 134.212 27.1201C134.34 27.9329 134.928 28.5841 135.595 29.0239C137.147 30.0594 138.997 30.4878 140.643 31.338C141.897 31.9631 143.095 32.7816 143.935 33.9211C144.977 35.3241 145.278 37.1713 145.023 38.8738C144.808 40.4361 144.013 41.9148 142.808 42.9367C141.669 43.9248 140.233 44.5183 138.766 44.8156C137.057 45.1604 135.288 45.1842 133.567 44.9185C132.075 44.6958 130.596 44.2899 129.259 43.5777C129.542 42.3252 129.914 41.0918 130.238 39.8483C132.034 40.86 134.096 41.3857 136.154 41.4106C137.373 41.3902 138.691 41.1641 139.62 40.3106C140.366 39.6504 140.67 38.5979 140.531 37.628C140.442 36.7869 139.917 36.0544 139.252 35.5581C137.879 34.5067 136.157 34.1224 134.609 33.4113C132.991 32.6674 131.407 31.6421 130.467 30.0877C129.658 28.7797 129.489 27.162 129.764 25.6708C130.092 23.922 131.228 22.3811 132.729 21.4451V21.4451ZM20 20.2694C27.8872 20.2637 35.7743 20.2694 43.6615 20.266C43.6592 22.6649 43.6603 25.0638 43.6615 27.4615C41.3972 27.4672 39.134 27.4615 36.8708 27.4649C36.8708 33.2168 36.8697 38.9699 36.872 44.7229C33.587 44.7195 30.3008 44.724 27.0158 44.7195C27.0226 38.9687 27.0147 33.218 27.0204 27.4672C24.6814 27.4593 22.3424 27.4672 20.0023 27.4627C20.0011 25.0649 20.0068 22.6671 20 20.2694V20.2694ZM50.4883 20.2603C53.9148 20.2762 57.3412 20.2649 60.7677 20.2649C63.9372 28.4202 67.1113 36.5732 70.2854 44.7263C67.0864 44.7161 63.8863 44.7218 60.6873 44.724C59.0058 39.9059 57.3424 35.081 55.6733 30.2584C55.5827 30.3703 55.5284 30.5025 55.4854 30.6382C53.8865 35.3331 52.2728 40.0224 50.6762 44.7184C47.5145 44.7263 44.354 44.7195 41.1924 44.7218C44.2759 36.5619 47.3765 28.4077 50.4883 20.2603ZM68.0189 20.2603C75.9049 20.2762 83.7909 20.2626 91.677 20.2671C91.6792 22.666 91.6781 25.0649 91.6781 27.4638C89.4149 27.4649 87.1517 27.4627 84.8886 27.4638C84.8874 33.2168 84.8908 38.9699 84.8874 44.7218C81.6024 44.7252 78.3186 44.7139 75.0336 44.7274C75.0064 38.9744 75.0302 33.2191 75.0223 27.4649C72.6833 27.4627 70.3454 27.4649 68.0064 27.4627C68.0143 25.0626 67.9895 22.6615 68.0189 20.2603V20.2603ZM98.4812 20.2637C101.906 20.2705 105.332 20.2671 108.757 20.266C111.937 28.4168 115.109 36.571 118.277 44.7263C115.077 44.715 111.877 44.7252 108.677 44.7218C106.999 39.8822 105.331 35.0403 103.643 30.2041C101.962 35.0358 100.332 39.8856 98.6634 44.7229C95.5028 44.724 92.3423 44.7161 89.1818 44.7263C92.2767 36.5699 95.3682 28.4134 98.4812 20.2637V20.2637ZM145.544 20.379C151.696 20.3802 157.85 20.3836 164.002 20.3768C164.016 21.6237 164.003 22.8706 164.008 24.1176C161.664 24.1153 159.322 24.1243 156.979 24.113C156.958 30.983 156.979 37.853 156.97 44.7229C155.481 44.7173 153.995 44.7286 152.508 44.7173C152.517 37.8507 152.511 30.9853 152.51 24.1198C150.188 24.1164 147.865 24.1187 145.543 24.1187C145.542 22.8718 145.538 21.6248 145.544 20.379V20.379ZM166.809 20.3723C171.543 20.3949 176.278 20.3655 181.012 20.387C181 21.6022 181.006 22.8164 181.009 24.0316C177.768 24.0328 174.527 24.0407 171.287 24.0271C171.256 26.1129 171.286 28.1986 171.272 30.2844C174.339 30.3047 177.407 30.2731 180.476 30.3002C180.447 31.5132 180.5 32.7285 180.449 33.9415C177.391 33.9132 174.333 33.9358 171.275 33.9302C171.271 36.294 171.28 38.659 171.27 41.0228C174.696 41.0387 178.122 41.024 181.548 41.0307C181.555 42.2539 181.532 43.4782 181.56 44.7026C176.641 44.75 171.72 44.7048 166.8 44.7252C166.786 38.2554 166.797 31.7856 166.794 25.3159C166.803 23.6676 166.774 22.0194 166.809 20.3723V20.3723ZM186.132 20.3994C190.873 20.3564 195.618 20.3881 200.36 20.3836C200.352 21.6 200.355 22.8152 200.359 24.0316C197.118 24.0328 193.876 24.0396 190.636 24.0283C190.607 26.1129 190.636 28.1986 190.621 30.2832C193.687 30.3013 196.754 30.281 199.822 30.2934C199.822 31.5008 199.81 32.707 199.827 33.9143C196.761 33.9494 193.693 33.9189 190.625 33.9302C190.622 36.2951 190.627 38.6601 190.622 41.0251C194.047 41.0364 197.472 41.0251 200.898 41.0307C200.903 42.2562 200.886 43.4816 200.907 44.7071C195.991 44.7455 191.073 44.7026 186.158 44.7286C186.118 36.6196 186.169 28.5084 186.132 20.3994V20.3994ZM205.503 20.3745C206.995 20.3892 208.486 20.3734 209.978 20.3824C209.971 27.249 209.975 34.1156 209.976 40.9821C213.317 40.9855 216.657 40.9833 219.999 40.9833C220 42.2302 220.001 43.476 219.998 44.7229C215.167 44.7252 210.337 44.7139 205.507 44.7286C205.484 36.6106 205.49 28.4925 205.503 20.3745V20.3745Z" fill="#161613"/>
</svg>
