<svg width="240" height="56" viewBox="0 0 240 56" fill="none" xmlns="http://www.w3.org/2000/svg">
<path d="M47.6255 22.2822C46.9356 21.4773 46.0157 20.9024 44.8659 20.6149C44.061 20.385 42.9112 20.3275 41.2439 20.3275H34V36.7125H37.7944V30.6184H41.4739C44.061 30.6184 45.8432 30.1585 46.993 29.1811C48.1429 28.2038 48.7178 26.8815 48.7178 25.3292C48.7178 24.1219 48.3153 23.0871 47.6255 22.2822ZM41.5314 27.3989H37.7944V23.547H41.4739C42.9112 23.547 43.4861 23.662 43.716 23.7195C44.061 23.8345 44.291 24.0644 44.5209 24.3519C44.7509 24.6393 44.8659 24.9843 44.8659 25.3867C44.8659 26.0766 44.6359 26.5365 44.2335 26.824C43.831 27.054 43.0836 27.3989 41.5314 27.3989Z" fill="#161613"/>
<path d="M68.3223 28.8937C67.6899 28.2038 66.8275 27.6289 65.6202 27.169C64.8728 26.8815 63.6655 26.5941 61.8833 26.3066C59.7561 25.9042 59.0087 25.5592 58.7788 25.3868C58.4913 25.2143 58.3763 24.9843 58.3763 24.6394C58.3763 24.3519 58.4338 24.0645 59.0087 23.662C59.5836 23.3171 60.446 23.1446 61.5958 23.1446C62.7457 23.1446 63.608 23.3746 64.1829 23.7195C64.7579 24.1219 64.7579 24.1219 64.9878 24.9268L65.1603 25.5017L68.7248 25.2718L68.6673 24.5244C68.5523 23.4895 68.4373 23.0871 67.8049 22.2822C67.1725 21.4773 66.3101 20.9024 65.2178 20.5C64.1829 20.0976 62.9756 19.9251 61.5958 19.9251C59.5836 19.9251 57.9164 20.385 56.7091 21.1899C55.3868 22.1097 54.7544 23.3171 54.7544 24.7543C54.7544 25.5592 54.9843 26.3641 55.4443 26.9965C55.9042 27.6289 56.5366 28.1463 57.3415 28.5488C58.0889 28.9512 59.2962 29.2962 61.0209 29.6411C62.8032 30.0435 63.953 30.2735 64.4704 30.5035C64.9303 30.676 65.2178 30.8484 65.3903 31.0784C65.5627 31.2509 65.6202 31.4808 65.6202 31.7683C65.6202 32.0557 65.5627 32.5157 64.8728 32.9756C64.2404 33.378 63.3206 33.5505 62.1133 33.5505C61.2509 33.5505 60.5035 33.4355 59.8136 33.2056C59.1812 32.9756 58.6638 32.6881 58.3763 32.2857C58.0889 31.9408 57.9164 31.6533 57.8014 31.0209L57.6289 30.3885L54.007 30.6185L54.0645 31.3658C54.1795 33.1481 54.8694 34.3554 56.3066 35.3902C57.6864 36.3676 59.5836 36.885 61.8833 36.885C63.3206 36.885 64.5854 36.655 65.6777 36.2526C66.7701 35.8502 67.6324 35.2178 68.3223 34.4129C69.0122 33.5505 69.3572 32.6307 69.3572 31.5958C69.2997 30.561 68.9547 29.6411 68.3223 28.8937Z" fill="#161613"/>
<path d="M139.784 31.4808C139.267 30.7909 138.634 30.1011 137.944 29.5261C138.749 29.2962 139.439 28.8937 140.014 28.4338C141.049 27.5714 141.509 26.4791 141.509 25.1568C141.509 24.122 141.221 23.2021 140.646 22.4547C140.071 21.7073 139.324 21.1324 138.404 20.845C137.542 20.5 136.277 20.385 134.61 20.385H126.216V36.7126H130.01V30.1011H131.908C132.713 30.1011 133.23 30.216 133.46 30.2735C133.805 30.3885 134.15 30.6185 134.495 30.9634C134.897 31.3659 135.53 32.1132 136.392 33.3206L138.922 36.7126H143.693L139.784 31.4808ZM137.657 25.0993C137.657 25.4443 137.542 25.7317 137.312 26.0192C137.082 26.3066 136.737 26.5366 136.335 26.6516C135.875 26.824 135.127 26.8815 134.092 26.8815H129.896V23.4321H134.61C135.702 23.4321 136.45 23.6045 136.967 23.9495C137.484 24.2369 137.657 24.5819 137.657 25.0993Z" fill="#161613"/>
<path d="M164.678 23.9494C163.873 22.6846 162.781 21.7073 161.401 21.0174C160.021 20.385 158.526 20.04 156.916 20.04C154.387 20.04 152.202 20.7874 150.477 22.2822C148.695 23.777 147.833 25.9616 147.833 28.7212C147.833 30.9059 148.638 32.8606 150.19 34.4128C151.915 36.1376 154.157 37 156.916 37C159.618 37 161.861 36.1376 163.585 34.5278C165.138 32.9756 165.943 30.9634 165.943 28.6062C165.885 26.7665 165.483 25.2717 164.678 23.9494ZM162.033 28.4912C162.033 30.2735 161.573 31.5958 160.596 32.4581C159.561 33.378 158.354 33.8379 156.859 33.8379C155.422 33.8379 154.157 33.378 153.179 32.5156C152.202 31.6533 151.685 30.4459 151.685 28.7787C151.685 26.8815 152.145 25.5017 153.122 24.5818C154.099 23.662 155.364 23.2595 156.916 23.2595C157.894 23.2595 158.756 23.4895 159.561 23.8919C160.366 24.2944 160.941 24.8118 161.286 25.4442C161.746 26.3066 162.033 27.3414 162.033 28.4912Z" fill="#161613"/>
<path d="M182.385 20.3275V29.6986C182.385 31.3083 182.098 32.4581 181.523 32.9181C180.948 33.4355 179.913 33.723 178.476 33.723C177.613 33.723 176.923 33.608 176.348 33.3205C175.831 33.0905 175.486 32.7456 175.256 32.2857C175.084 31.9407 174.854 31.1933 174.854 29.6986V20.3275H171.117V29.6986C171.117 32.3432 171.749 34.2404 173.071 35.3902C174.336 36.4825 176.233 37 178.706 37C180.43 37 181.925 36.7125 183.075 36.1376C184.282 35.5052 185.145 34.6428 185.605 33.608C186.007 32.5731 186.237 31.3083 186.237 29.7561V20.3275H182.385Z" fill="#161613"/>
<path d="M205.439 22.2822C204.749 21.4773 203.772 20.9024 202.679 20.6149C201.875 20.385 200.725 20.3275 199.115 20.3275H191.814V36.7125H195.608V30.6184H199.287C201.875 30.6184 203.657 30.1585 204.807 29.1811C205.956 28.2038 206.531 26.8815 206.531 25.3292C206.531 24.1219 206.186 23.1446 205.439 22.2822ZM199.345 27.3989H195.608V23.547H199.287C200.725 23.547 201.3 23.662 201.53 23.7195C201.817 23.8345 202.105 24.0069 202.334 24.3519C202.564 24.6393 202.679 24.9843 202.679 25.3867C202.679 26.0766 202.449 26.4791 202.047 26.824C201.645 27.1115 200.897 27.3989 199.345 27.3989Z" fill="#161613"/>
<path d="M105.002 28.0314H108.796V24.2369H116.385V33.0906H85.1672L117.132 4L74.1289 36.8275L120.122 36.885V20.4425H105.002V28.0314Z" fill="#161613"/>
</svg>
