<svg width="240" height="56" viewBox="0 0 240 56" fill="none" xmlns="http://www.w3.org/2000/svg">
<path d="M119.543 37.0689H111.509L109.423 41.6244H106.368L115.649 21.6793L124.61 41.6215H121.51L119.543 37.0689ZM118.389 34.4053L115.607 28.0238L112.69 34.4053H118.389Z" fill="#161613"/>
<path d="M125.892 29.7858L128.955 36.4345L132.005 29.7858H135.082L128.93 41.6173L122.83 29.7858H125.892Z" fill="#161613"/>
<path d="M146.658 36.3503H138.173C138.2 37.2125 138.536 38.0364 139.12 38.6712C139.401 38.9538 139.737 39.1752 140.107 39.3216C140.477 39.468 140.873 39.5364 141.271 39.5221C141.872 39.5459 142.465 39.3755 142.961 39.036C143.558 38.5249 144.063 37.9162 144.456 37.2359L146.764 38.5233C146.443 39.0818 146.064 39.6052 145.634 40.0853C145.261 40.499 144.831 40.8589 144.358 41.1543C143.902 41.4348 143.406 41.6418 142.886 41.7678C142.324 41.9011 141.749 41.9664 141.172 41.9623C140.383 41.9967 139.595 41.8628 138.862 41.5693C138.128 41.2759 137.466 40.8297 136.918 40.2605C135.809 39.0136 135.233 37.3821 135.313 35.7154C135.237 34.0583 135.792 32.4339 136.867 31.1704C137.968 30.081 139.451 29.4659 141 29.4569C142.549 29.4479 144.04 30.0457 145.153 31.1222C146.22 32.4023 146.759 34.0404 146.66 35.7036L146.658 36.3503ZM143.85 34.1107C143.745 33.4684 143.404 32.8886 142.894 32.4842C142.384 32.0798 141.741 31.8799 141.092 31.9235C140.774 31.9202 140.458 31.9702 140.156 32.0716C139.868 32.1713 139.599 32.3193 139.36 32.5095C139.119 32.7028 138.912 32.9348 138.747 33.1961C138.57 33.4776 138.438 33.7852 138.357 34.1076L143.85 34.1107Z" fill="#161613"/>
<path d="M155.904 31.8047L153.643 33.0085C153.287 32.2784 152.846 31.9139 152.319 31.9149C152.08 31.9093 151.849 31.9974 151.675 32.1605C151.587 32.2414 151.517 32.3403 151.471 32.4506C151.425 32.5608 151.403 32.6797 151.408 32.7991C151.408 33.2528 151.934 33.7024 152.987 34.1479C154.06 34.5409 155.052 35.1256 155.915 35.8734C156.438 36.4546 156.709 37.2196 156.669 38.0005C156.679 38.5416 156.571 39.0786 156.353 39.574C156.135 40.0693 155.811 40.5113 155.405 40.869C154.854 41.342 154.198 41.6757 153.492 41.8422C152.785 42.0086 152.049 42.0029 151.345 41.8255C150.641 41.6479 149.99 41.304 149.447 40.8225C148.904 40.341 148.484 39.7361 148.224 39.0585L150.557 37.9767C150.755 38.3681 151.004 38.7317 151.297 39.0585C151.618 39.3622 152.045 39.5279 152.487 39.5202C153.41 39.5202 153.873 39.0989 153.873 38.2565C153.873 37.7706 153.517 37.3171 152.804 36.8958C152.528 36.7582 152.252 36.6246 151.977 36.4948C151.702 36.3651 151.422 36.2314 151.139 36.0938C150.507 35.8213 149.937 35.4245 149.462 34.927C149.032 34.3859 148.812 33.7083 148.842 33.018C148.828 32.5421 148.915 32.0687 149.097 31.6289C149.28 31.189 149.553 30.7927 149.9 30.4662C150.608 29.7984 151.551 29.4361 152.524 29.4577C153.26 29.4543 153.98 29.6779 154.584 30.0982C155.189 30.5184 155.649 31.1148 155.902 31.8062L155.904 31.8047Z" fill="#161613"/>
<path d="M158.505 21.0985H161.243V30.7711C162.108 29.9405 163.258 29.4713 164.457 29.4593C165.054 29.4332 165.649 29.5358 166.203 29.7602C166.756 29.9847 167.255 30.3256 167.665 30.7599C168.434 31.7982 168.797 33.0819 168.686 34.3691V41.6245H165.949V34.6273C166.008 33.9043 165.831 33.1813 165.445 32.5675C165.242 32.3424 164.99 32.1676 164.709 32.057C164.427 31.9464 164.123 31.9031 163.822 31.9305C163.438 31.8911 163.05 31.9522 162.696 32.1079C162.342 32.2635 162.035 32.5083 161.804 32.8184C161.346 33.7794 161.149 34.8439 161.232 35.9052V41.6319H158.494L158.505 21.0985Z" fill="#161613"/>
<path d="M180.254 29.7868H183V41.6249H180.254V40.3841C179.279 41.3797 177.95 41.9475 176.557 41.9629C175.164 41.9782 173.823 41.44 172.827 40.4663C172.735 40.377 172.648 40.2846 172.563 40.1888C171.484 38.9342 170.915 37.3194 170.971 35.6652C170.916 34.0364 171.486 32.4484 172.563 31.2258C173.056 30.6551 173.669 30.2 174.358 29.8931C175.047 29.5861 175.795 29.4348 176.549 29.4501C177.252 29.4592 177.944 29.6153 178.583 29.9083C179.222 30.2014 179.792 30.6251 180.256 31.1519L180.254 29.7868ZM173.764 35.6697C173.721 36.6735 174.046 37.6587 174.678 38.4398C174.964 38.786 175.324 39.063 175.733 39.2503C176.141 39.4376 176.586 39.5303 177.035 39.5214C177.495 39.5379 177.954 39.453 178.378 39.2724C178.801 39.0918 179.18 38.8201 179.487 38.4767C180.093 37.6896 180.422 36.7239 180.422 35.7302C180.422 34.7367 180.093 33.771 179.487 32.9839C179.186 32.6385 178.811 32.3646 178.391 32.1817C177.97 31.9988 177.515 31.9117 177.056 31.9266C176.609 31.9193 176.165 32.0115 175.758 32.1965C175.35 32.3812 174.988 32.6543 174.698 32.9957C174.065 33.7399 173.732 34.693 173.762 35.6697H173.764Z" fill="#161613"/>
<path d="M80.4738 10L71.465 29.7061L75.6787 33.6024L80.1735 37.7635L84.6661 33.6024L89.0766 29.5233L80.4738 10Z" fill="#161613"/>
<path d="M56 15.4028L63.5594 46.9959L71.4592 29.7084L56 15.4028Z" fill="#161613"/>
<path d="M75.676 33.6032L71.4661 29.707L63.5648 46.9937H70.1949L80.176 37.7644L75.676 33.6032Z" fill="#161613"/>
<path d="M89.0808 29.5234L96.7859 46.9943L104.351 15.4071L89.0808 29.5234Z" fill="#161613"/>
<path d="M84.6721 33.6015L80.178 37.7603L90.1561 46.992H96.7884L89.0847 29.521L84.6721 33.6015Z" fill="#161613"/>
<path d="M70.1938 46.9929H90.1537L80.1749 37.7614L70.1938 46.9929Z" fill="#161613"/>
</svg>
