<svg width="240" height="56" viewBox="0 0 240 56" fill="none" xmlns="http://www.w3.org/2000/svg">
<path d="M148.929 44C157.239 44 164 37.0461 164 28.5C164 19.9489 157.239 13 148.929 13C140.618 13 133.859 19.9489 133.859 28.5C133.859 37.0461 140.618 44 148.929 44ZM148.929 22.973C151.891 22.973 154.302 25.4523 154.302 28.4983C154.302 31.5443 151.889 34.0203 148.928 34.0203C145.965 34.0203 143.556 31.5443 143.556 28.4966C143.556 25.4472 145.966 22.9696 148.928 22.9696L148.929 22.973ZM92.0706 44C100.38 44 107.141 37.0461 107.141 28.5C107.141 19.9489 100.38 13 92.0706 13C83.7628 13 77 19.9489 77 28.5C77 37.0461 83.7628 44 92.0706 44ZM92.0706 22.973C95.0335 22.973 97.4435 25.4523 97.4435 28.4983C97.4435 31.5443 95.0335 34.0203 92.0706 34.0203C89.1093 34.0203 86.701 31.5443 86.701 28.4966C86.701 25.4472 89.1109 22.9696 92.0706 22.9696V22.973ZM120.492 22.6238L115.865 13.2024H105.032L115.15 33.8128V43.5159H125.835V33.8128L135.954 13.2024H125.115L120.493 22.6238H120.492Z" fill="#161613"/>
</svg>
