<svg width="240" height="56" viewBox="0 0 240 56" fill="none" xmlns="http://www.w3.org/2000/svg">
<path d="M89.339 11.0023H74.01C73.5375 11.006 73.0854 11.1953 72.7512 11.5295C72.4171 11.8636 72.2277 12.3158 72.224 12.7883V27.1953C72.2205 27.3928 72.1404 27.5813 72.0007 27.721C71.861 27.8606 71.6726 27.9407 71.475 27.9443L62.7751 28.0593C62.6074 28.0577 62.447 27.9904 62.3285 27.8719C62.2099 27.7533 62.1426 27.593 62.141 27.4253V16.3023C62.1366 15.9369 61.9895 15.5877 61.7311 15.3293C61.4727 15.0708 61.1235 14.9237 60.758 14.9193H48.885C48.5193 14.9232 48.1696 15.0701 47.9107 15.3286C47.6519 15.587 47.5045 15.9365 47.5 16.3023V27.4263C47.4998 27.579 47.439 27.7253 47.331 27.8333C47.2231 27.9413 47.0767 28.002 46.924 28.0023H40.183C39.8176 28.0067 39.4684 28.1538 39.21 28.4123C38.9516 28.6707 38.8045 29.0199 38.8 29.3853V36.8193C38.8045 37.1847 38.9516 37.5339 39.21 37.7924C39.4684 38.0508 39.8176 38.1979 40.183 38.2023H47.617C47.9825 38.1979 48.3317 38.0508 48.5901 37.7924C48.8485 37.5339 48.9956 37.1847 49 36.8193V30.0773C49.0006 29.9248 49.0615 29.7787 49.1694 29.6709C49.2773 29.5632 49.4235 29.5026 49.576 29.5023H60.237C60.4047 29.5039 60.5651 29.5712 60.6836 29.6897C60.8022 29.8083 60.8695 29.9686 60.871 30.1363L60.813 39.5293C60.817 40.0018 61.0066 40.4539 61.3409 40.7879C61.6752 41.1218 62.1275 41.3109 62.6 41.3143H72.3391C72.8116 41.3106 73.2637 41.1213 73.5979 40.7872C73.932 40.453 74.1214 40.0008 74.125 39.5283V30.7103C74.1286 30.5128 74.2087 30.3243 74.3484 30.1847C74.4881 30.045 74.6765 29.9649 74.8741 29.9613H89.281C89.7536 29.9576 90.2057 29.7683 90.5399 29.4342C90.874 29.1 91.0634 28.6478 91.0671 28.1753V12.7883C91.0873 12.5536 91.0569 12.3174 90.978 12.0954C90.8991 11.8735 90.7736 11.6711 90.6098 11.5018C90.446 11.3325 90.2478 11.2003 90.0286 11.1142C89.8094 11.028 89.5743 10.9899 89.339 11.0023V11.0023Z" fill="#161613"/>
<path d="M37.0141 44.0803V40.9103C37.0157 40.7888 36.9929 40.6682 36.9472 40.5556C36.9014 40.443 36.8336 40.3407 36.7476 40.2548C36.6617 40.1688 36.5594 40.101 36.4468 40.0552C36.3342 40.0094 36.2136 39.9867 36.0921 39.9883H32.9221C32.8006 39.9867 32.6799 40.0094 32.5673 40.0552C32.4548 40.101 32.3525 40.1688 32.2665 40.2548C32.1806 40.3407 32.1127 40.443 32.067 40.5556C32.0212 40.6682 31.9985 40.7888 32.0001 40.9103V44.0793C31.9985 44.2008 32.0212 44.3214 32.067 44.434C32.1127 44.5466 32.1806 44.6489 32.2665 44.7348C32.3525 44.8208 32.4548 44.8886 32.5673 44.9344C32.6799 44.9802 32.8006 45.0029 32.9221 45.0013H36.0921C36.2135 45.0029 36.3341 44.9802 36.4466 44.9345C36.5591 44.8888 36.6613 44.821 36.7473 44.7352C36.8332 44.6494 36.9011 44.5472 36.9469 44.4347C36.9927 44.3223 37.0156 44.2017 37.0141 44.0803V44.0803Z" fill="#161613"/>
<path d="M108.011 28.9823V35.1483H105.936V20.7413H115.444V22.5853H108.068V27.1413H113.831V28.9853L108.011 28.9823Z" fill="#161613"/>
<path d="M124.319 31.4023H119.133L117.519 35.2023H115.214L121.614 20.6833H121.787L128.241 35.2052H125.936L124.319 31.4023ZM119.882 29.5583H123.57L121.726 25.1213L119.882 29.5583Z" fill="#161613"/>
<path d="M140.397 24.1993C139.887 23.6512 139.272 23.2108 138.59 22.9041C137.907 22.5973 137.169 22.4305 136.421 22.4132C132.041 22.4132 131.407 26.5622 131.407 27.9452C131.407 29.3282 132.041 33.4772 136.421 33.4772C137.945 33.3972 139.393 32.7854 140.513 31.7483L141.723 33.3043C141.035 34.0031 140.207 34.5491 139.294 34.9066C138.381 35.2641 137.403 35.4252 136.423 35.3792C130.891 35.3792 129.277 31.0572 129.277 27.9452C129.277 24.9452 130.891 20.5692 136.423 20.5692C137.431 20.5368 138.433 20.7264 139.359 21.1248C140.285 21.5231 141.113 22.1204 141.782 22.8743L140.397 24.1993Z" fill="#161613"/>
<path d="M148.177 22.6423H143.97V20.7983H154.516V22.6423H150.309V35.2053H148.177V22.6423Z" fill="#161613"/>
<path d="M166.618 31.4603C166.618 33.7073 164.428 35.3793 161.489 35.3793C159.662 35.4045 157.858 34.9683 156.245 34.1113L157.052 32.4403C158.371 33.1256 159.83 33.5001 161.316 33.5353C162.93 33.5353 164.37 32.7283 164.37 31.4603C164.37 27.5413 156.36 29.7313 156.36 24.5453C156.36 22.0673 158.204 20.5693 160.855 20.5693C162.569 20.6091 164.256 21.0016 165.811 21.7223L165.062 23.4513C163.877 22.9891 162.637 22.6793 161.374 22.5293C159.818 22.5293 158.608 22.8173 158.55 24.3733C158.55 27.6563 166.618 25.7543 166.618 31.4603V31.4603Z" fill="#161613"/>
<path d="M172.092 35.2053H169.96V20.7983H175.319C179.18 20.7983 180.333 23.4493 180.333 25.2933C180.293 26.5179 179.777 27.6786 178.895 28.5288C178.012 29.379 176.833 29.8516 175.608 29.8463H172.035V35.2053H172.092ZM175.55 27.9443C175.908 27.9527 176.264 27.8885 176.596 27.7554C176.929 27.6223 177.231 27.4232 177.484 27.17C177.737 26.9168 177.936 26.6149 178.069 26.2825C178.202 25.9501 178.267 25.5942 178.258 25.2363C178.272 24.8746 178.208 24.5142 178.072 24.1788C177.937 23.8433 177.731 23.5405 177.47 23.2901C177.209 23.0396 176.897 22.8474 176.556 22.7259C176.216 22.6044 175.853 22.5565 175.492 22.5853H172.15V27.9443H175.55Z" fill="#161613"/>
<path d="M189.726 31.4023H184.54L182.926 35.2023H180.621L187.021 20.6833H187.194L193.648 35.2052H191.343L189.726 31.4023ZM185.289 29.5583H188.977L187.133 25.1213L185.289 29.5583Z" fill="#161613"/>
<path d="M205.861 30.5953V20.7413H207.995V35.4933H207.595L198.432 25.5243V35.2053H196.295V20.5103H196.695L205.858 30.5953H205.861Z" fill="#161613"/>
</svg>
