<svg width="240" height="56" viewBox="0 0 240 56" fill="none" xmlns="http://www.w3.org/2000/svg">
<path d="M109.872 11.8857H114.114V17.2423C112.571 17.9279 111.029 18.2707 109.486 18.2707C107.386 18.2707 105.715 17.6708 104.472 16.4281C103.23 15.2282 102.587 13.7284 102.587 11.9286C102.587 10.043 103.23 8.50036 104.515 7.21478C105.801 5.97206 107.429 5.32927 109.4 5.32927C110.129 5.32927 110.772 5.41498 111.414 5.54354C112.057 5.71495 112.871 5.97206 113.814 6.40059V8.24324C112.314 7.38619 110.815 6.91481 109.358 6.91481C107.986 6.91481 106.829 7.38619 105.886 8.32895C104.944 9.2717 104.472 10.4287 104.472 11.8C104.472 13.2141 104.944 14.414 105.886 15.3139C106.829 16.2138 108.029 16.6852 109.529 16.6852C110.257 16.6852 111.115 16.5138 112.1 16.171L112.272 16.1281V13.5141H109.829L109.872 11.8857Z" fill="#161613"/>
<path d="M117.799 5.45776H116.171V18.0564H117.799V5.45776Z" fill="#161613"/>
<path d="M123.799 9.74298C125.042 9.74298 126.113 10.1287 126.927 10.9857C127.784 11.7999 128.17 12.8284 128.17 14.0711C128.17 15.271 127.741 16.2566 126.884 17.0708C126.027 17.8421 124.956 18.2706 123.67 18.2706C122.428 18.2706 121.399 17.885 120.542 17.0708C119.685 16.2566 119.299 15.271 119.299 14.0711C119.299 12.8712 119.728 11.8428 120.585 11.0286C121.442 10.1715 122.513 9.74298 123.799 9.74298ZM123.713 11.2428C122.942 11.2428 122.299 11.4999 121.785 12.0142C121.271 12.5284 121.014 13.1712 121.014 13.9854C121.014 14.7996 121.271 15.4424 121.785 15.9137C122.299 16.428 122.985 16.6851 123.799 16.6851C124.613 16.6851 125.256 16.428 125.77 15.9137C126.284 15.3995 126.542 14.7567 126.542 13.9425C126.542 13.1712 126.284 12.4855 125.727 11.9713C125.17 11.4999 124.527 11.2428 123.713 11.2428Z" fill="#161613"/>
<path d="M130.826 5.45776V10.3429C131.555 9.82871 132.283 9.5716 133.098 9.5716C134.169 9.5716 135.026 9.95727 135.669 10.7715C136.354 11.5857 136.654 12.5713 136.654 13.814C136.654 15.1424 136.269 16.2137 135.455 16.9851C134.64 17.7564 133.569 18.1849 132.241 18.1849C131.726 18.1849 131.126 18.1421 130.569 18.0135C129.969 17.885 129.498 17.7564 129.155 17.585V5.45776H130.826ZM130.826 11.9285V16.428C131.384 16.5994 131.941 16.6851 132.541 16.6851C133.269 16.6851 133.869 16.428 134.34 15.9138C134.812 15.3995 135.026 14.7139 135.026 13.8997C135.026 13.0855 134.812 12.3999 134.383 11.8856C133.955 11.3714 133.398 11.1143 132.712 11.1143C132.112 11.1143 131.469 11.4143 130.826 11.9285Z" fill="#161613"/>
<path d="M143.426 13.0856V16.5995C143.426 16.8994 143.511 17.028 143.726 17.028C143.94 17.028 144.24 16.8994 144.668 16.5995V17.5851C144.283 17.8422 143.983 17.9708 143.768 18.0565C143.554 18.1422 143.297 18.185 143.04 18.185C142.354 18.185 141.926 17.9279 141.797 17.3708C141.112 17.9279 140.34 18.185 139.569 18.185C139.012 18.185 138.498 17.9708 138.112 17.6279C137.726 17.2423 137.555 16.7709 137.555 16.171C137.555 15.6567 137.726 15.1853 138.112 14.7568C138.498 14.3283 139.012 14.0283 139.697 13.7712L141.797 13.0427V12.6142C141.797 11.6286 141.283 11.1144 140.297 11.1144C139.397 11.1144 138.54 11.5857 137.683 12.4856V10.6858C138.326 9.91449 139.226 9.57167 140.426 9.57167C141.326 9.57167 142.054 9.78593 142.569 10.2573C142.74 10.4287 142.911 10.6001 143.04 10.8572C143.168 11.1144 143.254 11.3715 143.297 11.5857C143.383 11.9286 143.426 12.3999 143.426 13.0856ZM141.797 16.4281V13.9855L140.683 14.414C140.126 14.6283 139.74 14.8425 139.483 15.0996C139.269 15.3139 139.14 15.6139 139.14 15.9567C139.14 16.2995 139.269 16.5566 139.483 16.8137C139.697 17.028 139.997 17.1566 140.34 17.1566C140.854 17.0709 141.369 16.8566 141.797 16.4281Z" fill="#161613"/>
<path d="M147.368 5.45776H145.74V18.0564H147.368V5.45776Z" fill="#161613"/>
<path d="M156.195 5.45776H154.395V18.0564H156.195V5.45776Z" fill="#161613"/>
<path d="M160.052 9.78589V10.8572C160.78 10.043 161.637 9.65733 162.537 9.65733C163.052 9.65733 163.523 9.78589 163.994 10.043C164.423 10.3001 164.766 10.6858 165.023 11.1572C165.237 11.6285 165.366 12.357 165.366 13.3855V18.1421H163.694V13.4283C163.694 12.5713 163.566 11.9714 163.309 11.6285C163.052 11.2429 162.623 11.0715 162.023 11.0715C161.252 11.0715 160.609 11.4571 160.052 12.2285V18.1421H158.381V9.82874L160.052 9.78589Z" fill="#161613"/>
<path d="M172.822 5.45776H174.493V18.0564H170.979C169.737 18.0564 168.794 17.6707 168.022 16.8994C167.294 16.128 166.908 15.0996 166.908 13.7711C166.908 12.5713 167.294 11.5428 168.065 10.7715C168.837 10.0001 169.822 9.5716 171.022 9.5716C171.579 9.5716 172.179 9.70015 172.822 9.91442V5.45776ZM172.822 16.6851V11.4143C172.308 11.1571 171.793 11.0286 171.279 11.0286C170.465 11.0286 169.822 11.2857 169.308 11.8428C168.837 12.3999 168.58 13.0855 168.58 14.0283C168.58 14.8853 168.794 15.5281 169.222 15.9995C169.479 16.2566 169.737 16.4708 170.037 16.5566C170.336 16.6423 170.808 16.6851 171.579 16.6851H172.822Z" fill="#161613"/>
<path d="M177.193 6.27193C177.45 6.27193 177.708 6.35764 177.879 6.52905C178.05 6.70046 178.179 6.95757 178.179 7.21469C178.179 7.4718 178.093 7.72892 177.879 7.90033C177.708 8.07174 177.45 8.20029 177.193 8.20029C176.936 8.20029 176.722 8.11459 176.508 7.90033C176.336 7.68606 176.208 7.4718 176.208 7.21469C176.208 6.95757 176.293 6.74331 176.508 6.52905C176.722 6.40049 176.936 6.27193 177.193 6.27193ZM176.379 9.78584H178.008V18.0992H176.379V9.78584Z" fill="#161613"/>
<path d="M185.25 13.0856V16.5995C185.25 16.8994 185.335 17.028 185.55 17.028C185.764 17.028 186.064 16.8994 186.492 16.5995V17.5851C186.107 17.8422 185.807 17.9708 185.592 18.0565C185.378 18.1422 185.121 18.185 184.864 18.185C184.178 18.185 183.75 17.9279 183.621 17.3708C182.935 17.9279 182.164 18.185 181.393 18.185C180.836 18.185 180.322 17.9708 179.936 17.6279C179.55 17.2423 179.379 16.7709 179.379 16.171C179.379 15.6567 179.55 15.1853 179.936 14.7568C180.322 14.3283 180.836 14.0283 181.521 13.7712L183.621 13.0427V12.6142C183.621 11.6286 183.107 11.1144 182.121 11.1144C181.221 11.1144 180.364 11.5857 179.507 12.4856V10.6858C180.15 9.91449 181.05 9.57167 182.25 9.57167C183.15 9.57167 183.878 9.78593 184.392 10.2573C184.564 10.4287 184.735 10.6001 184.864 10.8572C184.992 11.1144 185.121 11.3715 185.121 11.5857C185.207 11.9286 185.25 12.3999 185.25 13.0856ZM183.621 16.4281V13.9855L182.507 14.414C181.95 14.6283 181.564 14.8425 181.307 15.0996C181.093 15.3139 180.964 15.6139 180.964 15.9567C180.964 16.2995 181.093 16.5566 181.307 16.8137C181.521 17.028 181.821 17.1566 182.164 17.1566C182.678 17.0709 183.15 16.8566 183.621 16.4281Z" fill="#161613"/>
<path d="M189.149 9.78589V10.8572C189.877 10.043 190.734 9.65733 191.634 9.65733C192.149 9.65733 192.62 9.78589 193.091 10.043C193.52 10.3001 193.863 10.6858 194.12 11.1572C194.334 11.6285 194.463 12.357 194.463 13.3855V18.1421H192.834V13.4283C192.834 12.5713 192.706 11.9714 192.449 11.6285C192.191 11.2429 191.763 11.0715 191.163 11.0715C190.392 11.0715 189.749 11.4571 189.192 12.2285V18.1421H187.52V9.82874L189.149 9.78589Z" fill="#161613"/>
<path d="M104.858 22.2989H103.058V34.8975H104.858V22.2989Z" fill="#161613"/>
<path d="M108.714 26.627V27.6983C109.443 26.8841 110.3 26.4984 111.2 26.4984C111.714 26.4984 112.185 26.627 112.657 26.8841C113.085 27.1412 113.428 27.5269 113.685 27.9983C113.9 28.4697 114.028 29.1981 114.028 30.2266V34.9832H112.4V30.2695C112.4 29.4124 112.271 28.8125 112.014 28.4697C111.757 28.084 111.328 27.9126 110.728 27.9126C109.957 27.9126 109.314 28.2982 108.757 29.0696V34.9832H107.086V26.6698H108.714V26.627Z" fill="#161613"/>
<path d="M114.799 27.9124L117.885 24.8699V26.584H120.499V28.0838H117.885V32.1548C117.885 33.0976 118.271 33.5689 119.085 33.5689C119.685 33.5689 120.285 33.3547 120.97 32.969V34.5117C120.327 34.8545 119.642 35.0259 118.913 35.0259C118.142 35.0259 117.542 34.8117 117.028 34.3831C116.856 34.2546 116.728 34.0832 116.642 33.9546C116.556 33.7832 116.471 33.5689 116.385 33.3118C116.299 33.0547 116.299 32.5405 116.299 31.7691V28.0838H114.842V27.9124H114.799Z" fill="#161613"/>
<path d="M128.813 30.9121H122.985C123.028 31.7263 123.285 32.3262 123.799 32.7976C124.271 33.269 124.913 33.4833 125.685 33.4833C126.756 33.4833 127.784 33.1404 128.684 32.4548V34.0403C128.17 34.3831 127.656 34.5974 127.185 34.7688C126.67 34.8974 126.113 34.9831 125.428 34.9831C124.528 34.9831 123.756 34.8117 123.199 34.426C122.642 34.0403 122.171 33.5261 121.828 32.8833C121.485 32.2405 121.314 31.512 121.314 30.655C121.314 29.4123 121.657 28.3838 122.385 27.5696C123.114 26.7983 124.013 26.3697 125.17 26.3697C126.285 26.3697 127.142 26.7554 127.827 27.5268C128.47 28.2981 128.813 29.3266 128.813 30.6121V30.9121ZM122.985 29.9265H127.142C127.099 29.2837 126.885 28.7695 126.542 28.4267C126.199 28.0838 125.728 27.9124 125.128 27.9124C124.528 27.9124 124.056 28.0838 123.671 28.4267C123.371 28.7695 123.114 29.2837 122.985 29.9265Z" fill="#161613"/>
<path d="M131.984 26.6268V28.5123L132.07 28.3838C132.884 27.0982 133.655 26.4554 134.47 26.4554C135.07 26.4554 135.712 26.7554 136.398 27.3981L135.541 28.8551C134.984 28.2981 134.427 28.0409 133.955 28.0409C133.441 28.0409 132.97 28.298 132.584 28.8123C132.198 29.3265 131.984 29.9264 131.984 30.6121V34.9402H130.313V26.6268H131.984Z" fill="#161613"/>
<path d="M139.526 26.627V27.6983C140.254 26.8841 141.111 26.4984 142.011 26.4984C142.525 26.4984 142.997 26.627 143.468 26.8841C143.897 27.1412 144.24 27.5269 144.497 27.9983C144.711 28.4697 144.84 29.1981 144.84 30.2266V34.9832H143.211V30.2695C143.211 29.4124 143.083 28.8125 142.825 28.4697C142.568 28.084 142.14 27.9126 141.54 27.9126C140.769 27.9126 140.126 28.2982 139.569 29.0696V34.9832H137.897V26.6698H139.526V26.627Z" fill="#161613"/>
<path d="M151.996 29.9264V33.4403C151.996 33.7403 152.081 33.8689 152.296 33.8689C152.51 33.8689 152.81 33.7403 153.238 33.4403V34.426C152.853 34.6831 152.553 34.8116 152.338 34.9402C152.124 35.0259 151.867 35.0687 151.61 35.0687C150.924 35.0687 150.496 34.8116 150.367 34.2545C149.682 34.8116 148.91 35.0687 148.139 35.0687C147.582 35.0687 147.068 34.8973 146.682 34.5117C146.296 34.126 146.125 33.6546 146.125 33.0547C146.125 32.5404 146.296 32.0691 146.682 31.6405C147.068 31.212 147.582 30.9121 148.267 30.6549L150.367 29.9264V29.4979C150.367 28.5123 149.853 27.9981 148.867 27.9981C147.967 27.9981 147.11 28.4695 146.253 29.3694V27.5696C146.896 26.7982 147.796 26.4554 148.996 26.4554C149.896 26.4554 150.624 26.6697 151.139 27.141C151.31 27.3124 151.481 27.4838 151.61 27.741C151.738 27.9981 151.867 28.2552 151.867 28.4695C151.953 28.7266 151.996 29.2408 151.996 29.9264ZM150.367 33.2689V30.8263L149.253 31.2549C148.696 31.4691 148.31 31.6834 148.053 31.9405C147.839 32.1548 147.71 32.4547 147.71 32.7976C147.71 33.1404 147.839 33.3975 148.053 33.6546C148.267 33.8689 148.567 33.9974 148.91 33.9974C149.424 33.9117 149.939 33.6975 150.367 33.2689Z" fill="#161613"/>
<path d="M153.11 27.9124L156.195 24.8699V26.584H158.809V28.0838H156.195V32.1548C156.195 33.0976 156.581 33.5689 157.395 33.5689C157.995 33.5689 158.595 33.3547 159.281 32.969V34.5117C158.638 34.8545 157.952 35.0259 157.224 35.0259C156.452 35.0259 155.852 34.8117 155.338 34.3831C155.167 34.2546 155.038 34.0832 154.952 33.9546C154.867 33.7832 154.781 33.5689 154.695 33.3118C154.61 33.0547 154.61 32.5405 154.61 31.7691V28.0838H153.153V27.9124H153.11Z" fill="#161613"/>
<path d="M161.637 23.113C161.895 23.113 162.152 23.1988 162.323 23.413C162.495 23.5844 162.623 23.8415 162.623 24.0987C162.623 24.3558 162.537 24.57 162.323 24.7843C162.152 24.9557 161.895 25.0843 161.637 25.0843C161.38 25.0843 161.166 24.9986 160.952 24.7843C160.78 24.57 160.652 24.3558 160.652 24.0987C160.652 23.8415 160.738 23.6273 160.952 23.413C161.166 23.1988 161.423 23.113 161.637 23.113ZM160.823 26.627H162.452V34.9403H160.823V26.627Z" fill="#161613"/>
<path d="M168.451 26.5841C169.694 26.5841 170.765 27.0126 171.58 27.8268C172.437 28.641 172.822 29.6695 172.822 30.9122C172.822 32.1121 172.394 33.0977 171.537 33.9119C170.68 34.6832 169.608 35.1117 168.323 35.1117C167.08 35.1117 166.052 34.7261 165.195 33.9119C164.38 33.0977 163.952 32.1121 163.952 30.9122C163.952 29.7123 164.38 28.6839 165.237 27.8697C166.137 27.0126 167.166 26.5841 168.451 26.5841ZM168.366 28.0839C167.594 28.0839 166.952 28.341 166.437 28.8553C165.923 29.3695 165.666 30.0123 165.666 30.8265C165.666 31.6407 165.923 32.2835 166.437 32.7549C166.952 33.2691 167.637 33.5262 168.451 33.5262C169.266 33.5262 169.908 33.2691 170.423 32.7549C170.937 32.2406 171.194 31.5978 171.194 30.7836C171.194 30.0123 170.937 29.3267 170.38 28.8124C169.865 28.341 169.18 28.0839 168.366 28.0839Z" fill="#161613"/>
<path d="M175.951 26.627V27.6983C176.679 26.8841 177.536 26.4984 178.436 26.4984C178.95 26.4984 179.422 26.627 179.893 26.8841C180.322 27.1412 180.665 27.5269 180.922 27.9983C181.136 28.4697 181.265 29.1981 181.265 30.2266V34.9832H179.636V30.2695C179.636 29.4124 179.508 28.8125 179.25 28.4697C178.993 28.084 178.565 27.9126 177.965 27.9126C177.194 27.9126 176.551 28.2982 175.994 29.0696V34.9832H174.322V26.6698H175.951V26.627Z" fill="#161613"/>
<path d="M188.377 29.9264V33.4403C188.377 33.7403 188.463 33.8689 188.677 33.8689C188.892 33.8689 189.192 33.7403 189.62 33.4403V34.426C189.234 34.6831 188.934 34.8116 188.72 34.9402C188.506 35.0259 188.249 35.0687 187.992 35.0687C187.306 35.0687 186.877 34.8116 186.749 34.2545C186.063 34.8116 185.292 35.0687 184.521 35.0687C183.964 35.0687 183.449 34.8973 183.064 34.5117C182.678 34.126 182.507 33.6546 182.507 33.0547C182.507 32.5404 182.678 32.0691 183.064 31.6405C183.449 31.212 183.963 30.9121 184.649 30.6549L186.749 29.9264V29.4979C186.749 28.5123 186.235 27.9981 185.249 27.9981C184.349 27.9981 183.492 28.4695 182.635 29.3694V27.5696C183.278 26.7982 184.178 26.4554 185.378 26.4554C186.278 26.4554 187.006 26.6697 187.52 27.141C187.692 27.3124 187.863 27.4838 187.992 27.741C188.12 27.9981 188.249 28.2552 188.249 28.4695C188.377 28.7266 188.377 29.2408 188.377 29.9264ZM186.792 33.2689V30.8263L185.678 31.2549C185.121 31.4691 184.735 31.6834 184.478 31.9405C184.263 32.1548 184.135 32.4547 184.135 32.7976C184.135 33.1404 184.221 33.3975 184.478 33.6546C184.692 33.8689 184.992 33.9974 185.335 33.9974C185.849 33.9117 186.32 33.6975 186.792 33.2689Z" fill="#161613"/>
<path d="M192.363 22.2989H190.735V34.8975H192.363V22.2989Z" fill="#161613"/>
<path d="M106.187 46.4676L104.815 45.6534C103.958 45.1392 103.358 44.6249 102.973 44.1107C102.63 43.5965 102.416 42.9966 102.416 42.3538C102.416 41.3682 102.758 40.554 103.444 39.954C104.13 39.3541 105.03 39.0113 106.144 39.0113C107.215 39.0113 108.158 39.3112 109.058 39.9112V41.9681C108.158 41.111 107.172 40.6397 106.144 40.6397C105.544 40.6397 105.072 40.7682 104.687 41.0682C104.301 41.3253 104.13 41.6681 104.13 42.0967C104.13 42.4823 104.258 42.8251 104.558 43.168C104.815 43.5108 105.287 43.8536 105.887 44.1964L107.258 45.0106C108.801 45.9105 109.572 47.1104 109.572 48.5245C109.572 49.553 109.229 50.3672 108.543 50.9671C107.858 51.6099 107.001 51.9099 105.887 51.9099C104.644 51.9099 103.53 51.5242 102.501 50.7529V48.4817C103.487 49.7244 104.601 50.3243 105.887 50.3243C106.444 50.3243 106.915 50.1529 107.301 49.853C107.686 49.553 107.858 49.1245 107.858 48.6531C107.815 47.8817 107.301 47.1532 106.187 46.4676Z" fill="#161613"/>
<path d="M117.157 49.8101V51.4385C116.342 51.7384 115.528 51.9099 114.757 51.9099C113.471 51.9099 112.4 51.5242 111.629 50.7528C110.857 49.9815 110.472 48.953 110.472 47.6675C110.472 46.3819 110.857 45.3106 111.586 44.4964C112.357 43.6822 113.343 43.2965 114.543 43.2965C114.971 43.2965 115.357 43.3394 115.7 43.4251C116.042 43.5108 116.471 43.6393 116.942 43.8964V45.6534C116.128 45.1392 115.357 44.8392 114.628 44.8392C113.9 44.8392 113.3 45.0963 112.786 45.6105C112.314 46.1248 112.057 46.8104 112.057 47.5818C112.057 48.4388 112.314 49.1244 112.829 49.5958C113.343 50.11 114.028 50.3672 114.885 50.3672C115.614 50.3672 116.342 50.1529 117.157 49.8101Z" fill="#161613"/>
<path d="M118.613 39.14H120.242V44.5394C120.927 43.6823 121.784 43.2967 122.813 43.2967C123.37 43.2967 123.884 43.4252 124.313 43.7252C124.741 43.9823 125.084 44.368 125.298 44.8822C125.513 45.3536 125.641 46.0821 125.641 47.0677V51.7815H124.013V46.6392C124.013 46.0392 123.884 45.525 123.584 45.1822C123.284 44.7965 122.899 44.6251 122.384 44.6251C122.042 44.6251 121.699 44.7108 121.356 44.9251C121.056 45.0965 120.67 45.4393 120.285 45.8678V51.8243H118.656V39.14H118.613Z" fill="#161613"/>
<path d="M131.469 43.4252C132.712 43.4252 133.783 43.8537 134.597 44.6679C135.454 45.4821 135.84 46.5106 135.84 47.7533C135.84 48.9532 135.412 49.9388 134.555 50.753C133.698 51.5243 132.626 51.9529 131.341 51.9529C130.098 51.9529 129.069 51.5672 128.212 50.753C127.355 49.9388 126.97 48.9532 126.97 47.7533C126.97 46.5534 127.398 45.525 128.255 44.7108C129.155 43.8109 130.226 43.4252 131.469 43.4252ZM131.383 44.8822C130.612 44.8822 129.926 45.1393 129.455 45.6535C128.941 46.1678 128.684 46.8106 128.684 47.6248C128.684 48.4389 128.941 49.0817 129.455 49.5531C129.969 50.0673 130.655 50.3245 131.469 50.3245C132.283 50.3245 132.926 50.0673 133.44 49.5531C133.955 49.0389 134.212 48.3961 134.212 47.5819C134.212 46.8106 133.955 46.1249 133.398 45.6107C132.883 45.1393 132.198 44.8822 131.383 44.8822Z" fill="#161613"/>
<path d="M141.326 43.4252C142.569 43.4252 143.64 43.8537 144.454 44.6679C145.268 45.4821 145.697 46.5106 145.697 47.7533C145.697 48.9532 145.268 49.9388 144.411 50.753C143.554 51.5243 142.483 51.9529 141.197 51.9529C139.955 51.9529 138.926 51.5672 138.069 50.753C137.212 49.9388 136.826 48.9532 136.826 47.7533C136.826 46.5534 137.255 45.525 138.112 44.7108C138.969 43.8109 140.04 43.4252 141.326 43.4252ZM141.24 44.8822C140.469 44.8822 139.783 45.1393 139.312 45.6535C138.798 46.1678 138.54 46.8106 138.54 47.6248C138.54 48.4389 138.798 49.0817 139.312 49.5531C139.826 50.0673 140.512 50.3245 141.326 50.3245C142.14 50.3245 142.783 50.0673 143.297 49.5531C143.811 49.0389 144.068 48.3961 144.068 47.5819C144.068 46.8106 143.811 46.1249 143.254 45.6107C142.697 45.1393 142.011 44.8822 141.24 44.8822Z" fill="#161613"/>
<path d="M148.824 39.14H147.196V51.7386H148.824V39.14Z" fill="#161613"/>
<path d="M73.0809 40.7686C71.7066 41.2425 70.1901 41.5032 68.5788 41.4558C64.1952 41.4795 59.5036 38.9204 56.6127 34.6789C56.5417 34.6316 56.4943 34.5842 56.4943 34.5842C45.4523 26.6937 48.8644 15.8413 49.4331 14.2774C46.8266 18.4951 45.4049 23.4948 45.5471 28.4945C45.6182 31.954 46.4001 35.4372 47.8455 38.6123C48.6038 39.4417 58.3662 49.4647 73.0809 40.7686Z" fill="#161613"/>
<path d="M96.7049 31.8119C96.7049 31.6934 96.7049 31.5513 96.6812 31.4328C96.6812 31.3617 96.6812 31.3143 96.6812 31.3143V31.338C96.6812 31.1721 96.6575 31.0063 96.6338 30.8404C96.0651 26.5753 92.3213 23.5186 88.1746 23.8977C87.9614 23.8977 87.7481 23.9214 87.5349 23.9451C83.8858 24.419 81.3978 27.1913 81.0661 30.793L80.995 31.1484C80.995 31.1484 80.995 31.1721 80.995 31.2195V31.1958C80.995 31.2906 80.995 31.4802 80.9713 31.7408C80.9476 32.191 80.9002 32.8782 80.7817 33.7312C80.1183 38.8494 77.3459 49.8913 65.522 53.2561C65.8064 53.3271 66.0907 53.3982 66.3751 53.4456C72.133 54.6304 78.1989 53.7774 83.4356 51.0998C88.6722 48.4222 92.89 43.9438 95.3069 38.6124C95.7334 37.6646 95.994 37.0722 96.2547 36.1955C96.5627 35.1766 96.7049 34.1814 96.7049 33.2336C96.7286 32.9493 96.7049 32.2858 96.7049 31.8119Z" fill="#161613"/>
<path d="M80.7819 33.7549C80.9003 32.9018 80.9476 32.2147 80.9713 31.7408C80.9713 31.4802 80.995 31.3143 80.995 31.1958V31.2195C80.995 31.2195 80.9951 31.2195 80.9951 31.2432C80.9951 31.2906 80.9714 31.3853 80.9477 31.4801C80.8529 32.0251 80.6397 33.0677 80.3316 33.8259C80.2369 34.0866 80.1421 34.3235 80.0236 34.5842L79.9999 34.6316C78.7915 37.2854 76.3034 39.6312 73.0809 40.7686C58.3662 49.4647 48.5801 39.4417 47.8455 38.6361C48.0588 39.11 48.2721 39.5839 48.509 40.0341C48.5327 40.0815 48.5564 40.1052 48.5801 40.1526C48.6749 40.3658 48.7934 40.5554 48.9118 40.7449C49.5753 41.9297 50.3098 42.996 51.0444 43.9675C51.2103 44.1807 51.3998 44.4177 51.5894 44.631C55.0963 48.825 59.9301 51.8817 65.2615 53.1849C65.3326 53.2086 65.4037 53.2323 65.4748 53.2323C65.4985 53.2323 65.4985 53.2323 65.5222 53.2323C77.3461 49.915 80.1184 38.8493 80.7819 33.7549Z" fill="#161613"/>
<path d="M94.7147 16.3863C92.1082 11.1496 87.7009 6.86081 82.4169 4.42021C80.7819 3.66196 79.0759 3.06958 77.3224 2.69046C77.2514 2.66676 77.1803 2.66676 77.0855 2.64307C74.6449 2.09808 67.4652 1.64787 59.8117 11.6472C61.7073 9.84641 64.0057 8.3773 66.5885 7.4058C71.0432 5.72344 76.3036 5.48649 81.2322 7.14515C86.1608 8.78012 90.6865 12.1922 93.7195 16.9076C93.9328 17.2393 94.2882 17.4052 94.5488 17.2867C94.8095 17.1682 94.8569 16.7891 94.7147 16.3863Z" fill="#161613"/>
<path d="M65.3089 2.76156C59.6221 4.13588 54.4565 7.52429 50.9023 12.1685C50.381 12.8557 49.8834 13.5666 49.4332 14.3011C48.8645 15.8887 45.4524 26.7174 56.4943 34.6079C56.4943 34.6079 56.5417 34.6316 56.6128 34.7027C55.3333 32.8308 54.4092 30.6034 54.0537 28.1628C53.3666 24.2531 54.1011 19.8932 56.3048 16.1019C57.2289 14.4907 58.4137 12.9742 59.8117 11.6472C67.4652 1.64787 74.6449 2.09808 77.0855 2.64307C77.1803 2.66676 77.2514 2.66676 77.3224 2.69046C73.389 1.79004 69.2186 1.81375 65.3089 2.76156Z" fill="#161613"/>
</svg>
