<svg width="158" height="36" viewBox="0 0 158 36" fill="none" xmlns="http://www.w3.org/2000/svg">
<path d="M107.732 15.1205C107.677 15.1499 107.695 15.206 107.684 15.2502C107.512 15.8224 106.971 16.197 106.382 16.1468C105.775 16.0967 105.294 15.6307 105.234 15.0349C105.225 14.9582 105.222 14.8787 105.222 14.799C105.222 13.9997 105.219 13.1975 105.222 12.3983C105.225 11.6314 105.787 11.0917 106.55 11.1152C107.052 11.13 107.521 11.4898 107.675 11.9735C107.693 12.0325 107.684 12.1004 107.734 12.1475C107.732 13.1385 107.732 14.1295 107.732 15.1205Z" fill="#161613"/>
<path d="M107.731 32.7369C107.554 32.7458 107.536 32.6514 107.542 32.5039C107.554 32.2473 107.545 31.9878 107.518 31.7253C107.476 31.8373 107.431 31.9465 107.389 32.0586C107.317 32.2503 107.239 32.442 107.173 32.6366C107.149 32.7044 107.112 32.7251 107.043 32.7251C106.971 32.728 106.95 32.6868 106.929 32.6337C106.83 32.3624 106.731 32.091 106.628 31.8197C106.617 31.7842 106.617 31.743 106.563 31.7164C106.563 32.0114 106.565 32.2974 106.563 32.5835C106.563 32.6425 106.602 32.7251 106.476 32.7251C106.355 32.728 106.379 32.6544 106.379 32.5894C106.379 32.2473 106.376 31.9022 106.382 31.5601C106.382 31.5129 106.34 31.4215 106.445 31.4333C106.532 31.4421 106.65 31.3684 106.701 31.51C106.803 31.7902 106.908 32.0704 107.013 32.3505C107.028 32.386 107.04 32.4243 107.067 32.4891C107.134 32.3122 107.191 32.1588 107.247 32.0055C107.275 31.9317 107.305 31.858 107.323 31.7842C107.38 31.5719 107.443 31.3713 107.734 31.4127C107.731 31.855 107.731 32.2945 107.731 32.7369Z" fill="#161613"/>
<path d="M97.2371 32.8961C95.7644 32.8784 94.4632 32.4242 93.4235 31.3801C92.2785 30.2328 91.8213 28.8319 91.993 27.2481C92.1673 25.6259 92.9697 24.3636 94.382 23.4965C95.3859 22.883 96.4946 22.6618 97.6695 22.7414C98.8386 22.8211 99.8849 23.2074 100.771 23.9654C101.968 24.9918 102.548 26.3013 102.538 27.8527C102.526 30.2417 100.934 32.1941 98.5656 32.7516C98.1266 32.8518 97.6851 32.899 97.2371 32.8961ZM97.2371 30.3921C98.7008 30.3979 99.8517 29.2743 99.8608 27.832C99.8699 26.3751 98.734 25.2337 97.2703 25.2248C95.7917 25.2189 94.6434 26.3337 94.6342 27.7848C94.6251 29.2536 95.7553 30.3862 97.2371 30.3921Z" fill="#161613"/>
<path d="M72.3202 31.4922C72.3202 31.159 72.3235 30.8257 72.317 30.4894C72.3144 30.3892 72.3352 30.3685 72.4405 30.3951C73.2338 30.6044 74.0395 30.749 74.8685 30.7283C75.2235 30.7195 75.5779 30.6841 75.9147 30.5602C76.0318 30.516 76.143 30.4629 76.2424 30.3862C76.6059 30.1149 76.6449 29.64 76.3296 29.3156C76.113 29.0915 75.8302 28.9764 75.5421 28.8761C75.0011 28.6933 74.4419 28.5488 73.9309 28.2833C73.1707 27.8881 72.5816 27.3484 72.3775 26.496C72.053 25.1305 72.579 23.5024 74.4992 22.9244C75.2892 22.6855 76.0948 22.6796 76.9063 22.7622C77.3934 22.8094 77.8771 22.8889 78.355 22.9951C78.4539 23.0158 78.4929 23.0512 78.4903 23.1573C78.4838 23.7649 78.4838 24.3754 78.4903 24.983C78.4903 25.101 78.463 25.1216 78.3459 25.0921C77.6456 24.9181 76.9395 24.7913 76.2119 24.8355C75.9206 24.8533 75.6351 24.9034 75.3737 25.039C74.836 25.3104 74.7937 25.8737 75.2892 26.2188C75.602 26.4371 75.9687 26.5196 76.3263 26.6317C76.786 26.7762 77.2522 26.9089 77.6755 27.1508C78.6912 27.7377 79.2413 28.5901 79.1906 29.7639C79.136 30.9554 78.5651 31.8314 77.4805 32.3712C76.6781 32.7722 75.8126 32.8961 74.9199 32.8873C74.0785 32.8755 73.2429 32.787 72.4132 32.6425C72.3261 32.6277 72.3111 32.5894 72.3144 32.5157C72.3202 32.1795 72.3202 31.8373 72.3202 31.4922Z" fill="#161613"/>
<path d="M89.2764 25.7027C88.9213 25.5228 88.5546 25.3813 88.167 25.3016C87.431 25.1482 86.6975 25.1217 85.9855 25.4107C84.8223 25.8826 84.3053 26.9709 84.4048 28.0592C84.5368 29.531 85.7449 30.519 87.3796 30.4276C88.0227 30.3921 88.6326 30.2418 89.2068 29.9556C89.2282 29.9439 89.2523 29.9409 89.2913 29.9262C89.2913 30.0176 89.2913 30.0943 89.2913 30.171C89.2913 30.9172 89.2881 31.6633 89.2939 32.4095C89.2939 32.5127 89.2698 32.5629 89.1619 32.5924C88.3173 32.8224 87.4577 32.9581 86.5831 32.8814C84.4523 32.6956 82.7994 31.7577 82.0211 29.7403C81.2791 27.8115 81.5555 25.9682 82.9678 24.3785C83.7526 23.4966 84.78 23.0099 85.9491 22.8153C87.0461 22.6295 88.1189 22.7416 89.1801 23.0454C89.2458 23.066 89.2939 23.0778 89.2939 23.1663C89.2913 23.9951 89.2913 24.8238 89.2913 25.6555C89.2881 25.6644 89.2822 25.6762 89.2764 25.7027Z" fill="#161613"/>
<path d="M62.8958 25.7085C62.427 25.4667 61.9581 25.3104 61.4592 25.2396C60.5787 25.1158 59.7372 25.1895 59.0069 25.741C58.2616 26.3043 57.9461 27.0741 58.0152 27.9766C58.1174 29.3127 58.9288 30.1739 60.2781 30.3892C61.1377 30.5248 61.9581 30.3508 62.7395 29.991C62.8958 29.9202 62.8927 29.9173 62.8927 30.0795C62.8927 30.861 62.8897 31.6397 62.8958 32.4213C62.8958 32.5275 62.8597 32.5628 62.7635 32.5894C61.913 32.8224 61.0505 32.958 60.1699 32.8784C58.0453 32.6867 56.4044 31.7459 55.623 29.7374C54.9077 27.8999 55.1422 26.1214 56.4134 24.5524C57.2158 23.5614 58.3037 23.0188 59.5659 22.8093C60.6568 22.6265 61.7267 22.7385 62.7815 23.0424C62.8417 23.06 62.8927 23.0659 62.8927 23.1514C62.8958 23.995 62.8958 24.8385 62.8958 25.7085Z" fill="#161613"/>
<path d="M93.9431 10.8439C93.9431 13.0088 93.9431 15.1736 93.9431 17.3384C93.9431 17.943 93.5497 18.4415 92.9814 18.5682C92.1972 18.7452 91.4702 18.1996 91.4312 17.4062C91.428 17.3679 91.428 17.3266 91.428 17.2883C91.428 12.994 91.428 8.69974 91.428 4.40552C91.428 3.82745 91.7193 3.3821 92.2213 3.18744C93.0536 2.86596 93.9405 3.45288 93.9405 4.33769C93.9463 6.50548 93.9431 8.67615 93.9431 10.8439Z" fill="#161613"/>
<path d="M63.8514 10.8349C63.8514 8.67897 63.8514 6.52597 63.8514 4.36998C63.8514 3.75356 64.2361 3.26397 64.8191 3.13125C65.5914 2.95134 66.3309 3.49992 66.3667 4.27855C66.37 4.31689 66.37 4.35818 66.37 4.39652C66.37 8.69665 66.37 12.9938 66.37 17.294C66.37 17.8927 66.039 18.3675 65.5043 18.5386C64.6899 18.7982 63.8634 18.2172 63.8544 17.3736C63.8484 16.4947 63.8514 15.6158 63.8514 14.7369C63.8514 13.4362 63.8514 12.1356 63.8514 10.8349Z" fill="#161613"/>
<path d="M66.3732 27.8027C66.3732 26.216 66.3758 24.6321 66.37 23.0454C66.37 22.9216 66.4032 22.895 66.526 22.895C67.2712 22.9009 68.017 22.9009 68.7622 22.895C68.8701 22.895 68.9033 22.9186 68.9033 23.0307C68.9007 26.216 68.9007 29.4012 68.9033 32.5865C68.9033 32.6957 68.8766 32.7252 68.7622 32.7252C68.0105 32.7193 67.2595 32.7193 66.5111 32.7252C66.3967 32.7252 66.37 32.6987 66.37 32.5865C66.3758 30.9939 66.3732 29.3983 66.3732 27.8027Z" fill="#161613"/>
<path d="M98.3282 11.9351C98.3282 10.95 98.325 9.96198 98.3282 8.97686C98.3308 8.24548 98.8991 7.7087 99.6443 7.72934C100.324 7.74701 100.841 8.30443 100.841 9.02411C100.843 10.5902 100.843 12.1563 100.841 13.7224C100.841 14.1737 100.871 14.6249 100.823 15.0762C100.756 15.7073 100.176 16.1792 99.5182 16.1497C98.8751 16.1202 98.3341 15.5952 98.3282 14.97C98.325 13.9584 98.3282 12.9467 98.3282 11.9351Z" fill="#161613"/>
<path d="M59.4697 11.95C59.4697 12.9351 59.4758 13.9231 59.4667 14.9082C59.4608 15.6337 58.8808 16.1764 58.1565 16.1469C57.5374 16.1233 57.0145 15.6337 56.9663 15.0291C56.9633 14.9908 56.9574 14.9495 56.9574 14.9112C56.9574 12.9233 56.9513 10.9354 56.9604 8.94758C56.9633 8.39016 57.303 7.95366 57.8289 7.7826C58.6103 7.52603 59.4517 8.0893 59.4637 8.89744C59.4788 9.91791 59.4667 10.9354 59.4697 11.95Z" fill="#161613"/>
<path d="M73.2612 11.9379C73.2612 12.9083 73.2638 13.8816 73.2612 14.8519C73.2579 15.4742 72.9152 15.9373 72.3443 16.0995C71.5777 16.3177 70.7786 15.7633 70.7578 14.9817C70.7396 14.324 70.7513 13.6663 70.7513 13.0086C70.7513 11.6725 70.7487 10.3394 70.7513 9.00337C70.7513 8.34566 71.157 7.86197 71.7975 7.74105C72.5004 7.6083 73.2221 8.14213 73.2488 8.84407C73.2729 9.546 73.2579 10.248 73.2612 10.9499C73.2612 11.2802 73.2612 11.6106 73.2612 11.9379Z" fill="#161613"/>
<path d="M84.5368 11.9263C84.5368 10.9442 84.5336 9.96205 84.5368 8.98285C84.5401 8.23373 85.1201 7.69695 85.877 7.73237C86.4693 7.75892 86.9921 8.25437 87.0376 8.83249C87.0435 8.89735 87.0461 8.95926 87.0461 9.02419C87.0461 10.9678 87.0461 12.9114 87.0461 14.855C87.0461 15.4773 86.7008 15.9463 86.1325 16.1055C85.3574 16.3238 84.555 15.7693 84.5427 14.976C84.5277 13.9584 84.5401 12.9409 84.5368 11.9263C84.5401 11.9263 84.5401 11.9263 84.5368 11.9263Z" fill="#161613"/>
<path d="M77.6366 13.6339C77.6366 13.2063 77.6366 12.7786 77.6366 12.354C77.6398 11.6579 78.1925 11.1152 78.8987 11.1152C79.6048 11.1152 80.1549 11.6579 80.1582 12.3569C80.1614 13.2063 80.1614 14.0557 80.1582 14.9051C80.1549 15.61 79.599 16.1557 78.8896 16.1557C78.1925 16.1527 77.6398 15.6012 77.6366 14.9022C77.6366 14.4775 77.6366 14.0557 77.6366 13.6339Z" fill="#161613"/>
<path d="M50.0662 13.631C50.0662 13.2151 50.0662 12.7963 50.0662 12.3805C50.0692 11.6873 50.5921 11.1329 51.2623 11.1152C51.9896 11.0975 52.5636 11.6048 52.5756 12.3185C52.5937 13.1915 52.5937 14.0675 52.5756 14.9405C52.5636 15.6011 52.0437 16.1114 51.3976 16.1497C50.7484 16.1851 50.1894 15.7486 50.0812 15.1027C50.0361 14.8314 50.0692 14.5541 50.0662 14.2799C50.0632 14.0645 50.0662 13.8462 50.0662 13.631Z" fill="#161613"/>
<path d="M105.838 32.1469C105.838 32.3092 105.835 32.4714 105.841 32.6307C105.844 32.7044 105.817 32.7221 105.745 32.7221C105.67 32.7221 105.655 32.6926 105.655 32.6248C105.658 32.3209 105.649 32.0172 105.658 31.7134C105.661 31.5984 105.625 31.5659 105.517 31.5777C105.448 31.5866 105.379 31.5777 105.307 31.5807C105.246 31.5836 105.201 31.5807 105.204 31.4981C105.207 31.4243 105.243 31.4214 105.3 31.4214C105.601 31.4214 105.898 31.4214 106.199 31.4214C106.256 31.4214 106.289 31.4303 106.289 31.501C106.289 31.5718 106.253 31.5777 106.196 31.5777C106.082 31.5777 105.926 31.5394 105.865 31.5984C105.787 31.6751 105.848 31.8284 105.838 31.9494C105.835 32.0201 105.838 32.085 105.838 32.1469Z" fill="#161613"/>
</svg>
