<svg width="240" height="56" viewBox="0 0 240 56" fill="none" xmlns="http://www.w3.org/2000/svg">
<path fill-rule="evenodd" clip-rule="evenodd" d="M94.341 37.0119C93.1191 37.0119 91.9302 37.0119 90.7082 37.0119C89.8165 36.8107 89.3541 36.1064 89.2551 34.9997C88.8257 35.6369 88.3303 36.1399 87.7359 36.4753C86.0516 37.4814 83.2113 37.582 81.461 36.7101C79.5785 35.771 78.4556 33.6583 79.1161 31.579C79.7436 29.5333 81.6261 28.5943 83.5746 28.2589C85.1268 27.9907 86.9763 27.9907 89.156 28.0242C89.189 26.9846 88.9248 26.2468 88.4624 25.7773C87.4056 24.57 85.1929 24.7041 83.7728 25.0395C82.6499 25.3078 81.5931 25.8108 80.9326 26.3809L80.7674 23.0608C82.3196 22.4907 84.037 22.0548 85.8204 22.0548C87.835 22.0212 90.411 22.4572 91.699 24.1675C92.3595 24.9389 92.5576 26.012 92.6567 27.1187C92.7558 28.6278 92.7228 30.3047 92.7228 31.8473C92.7228 32.8534 92.7228 33.8595 92.7228 34.8656C92.7228 34.9662 92.7558 35.0332 92.7558 35.1339C92.9209 36.3076 93.4493 36.9113 94.341 37.0119ZM89.156 30.4053C89.156 32.015 88.6276 33.3564 87.5047 34.0942C86.1176 35.0332 83.3765 35.0668 83.0132 33.0546C82.9141 32.451 83.1123 31.7467 83.7398 31.2437C85.0278 30.2376 87.6368 30.3382 89.156 30.4053Z" fill="#161613"/>
<path fill-rule="evenodd" clip-rule="evenodd" d="M128.325 37.0119C127.103 37.0119 125.914 37.0119 124.692 37.0119C123.8 36.8107 123.338 36.1064 123.239 34.9997C122.809 35.6369 122.314 36.1399 121.719 36.4753C120.035 37.4814 117.195 37.582 115.411 36.7101C113.529 35.771 112.406 33.6583 113.067 31.579C113.694 29.5333 115.577 28.5943 117.525 28.2589C119.077 27.9907 120.927 27.9907 123.107 28.0242C123.14 26.9846 122.875 26.2468 122.413 25.7773C121.356 24.57 119.143 24.7041 117.723 25.0395C116.6 25.3078 115.544 25.8108 114.883 26.3809L114.784 23.0608C116.336 22.4907 118.054 22.0548 119.837 22.0548C121.852 22.0212 124.428 22.4572 125.716 24.1675C126.376 24.9389 126.574 26.012 126.673 27.1187C126.772 28.6278 126.739 30.3047 126.739 31.8473C126.739 32.8534 126.739 33.8595 126.739 34.8656C126.739 34.9662 126.772 35.0332 126.772 35.1339C126.937 36.3076 127.466 36.9113 128.325 37.0119ZM123.173 30.4053C123.173 32.015 122.644 33.3564 121.521 34.0942C120.134 35.0332 117.393 35.0668 117.03 33.0546C116.931 32.451 117.129 31.7467 117.756 31.2437C119.011 30.2376 121.653 30.3382 123.173 30.4053Z" fill="#161613"/>
<path fill-rule="evenodd" clip-rule="evenodd" d="M107.386 22.2224H111.382V36.9783C108.938 37.1125 107.32 35.9052 107.386 33.9601V22.2224Z" fill="#161613"/>
<path fill-rule="evenodd" clip-rule="evenodd" d="M107.584 15.9847C107.419 15.9176 107.254 15.8506 107.188 15.9512C107.122 16.0853 107.056 16.1189 106.957 16.2195C106.858 16.253 107.056 16.9237 106.99 17.2591C106.99 17.3932 107.089 17.3597 107.122 17.3932C107.188 17.4603 107.188 17.5609 107.155 17.628C107.254 17.6951 107.287 17.7286 107.188 17.7957C107.122 17.8963 107.155 17.9634 107.188 18.064C107.221 18.2316 107.32 18.3323 107.419 18.3993C107.65 18.5335 107.75 18.4664 108.014 18.6676C108.113 18.7682 108.179 18.9024 108.245 19.1036C108.179 19.6737 108.806 19.6402 109.104 19.5395C109.203 19.506 109.038 19.4054 109.104 19.3383C109.137 19.3048 109.236 19.3048 109.335 19.2713C109.632 19.1371 109.632 19.1707 109.632 18.9359C109.632 18.8018 109.632 18.8688 109.797 18.8353C109.896 18.8353 109.797 18.7011 109.995 18.7347C110.16 18.8018 110.16 18.7682 110.16 18.6341C110.16 18.4664 110.326 18.4664 110.491 18.4999C110.887 18.6005 110.59 18.3658 110.755 18.3658C111.052 18.3658 111.118 18.3323 111.382 17.8963C111.448 17.7957 111.448 17.6615 111.448 17.5609C111.481 17.3597 111.547 17.4268 111.547 17.2591C111.58 17.125 111.514 16.9573 111.415 16.8231C111.283 16.6219 111.283 16.6554 111.184 16.4207C111.118 16.1859 111.085 16.0853 110.887 15.8506C110.722 15.6158 110.458 15.4146 110.259 15.2134C110.061 15.0457 110.094 15.0457 109.962 14.878C109.929 14.8445 109.896 14.811 109.863 14.811C109.698 14.7439 109.5 14.7439 109.368 14.7103C109.302 14.6768 109.236 14.7103 109.17 14.7439C109.038 14.8445 109.137 14.811 108.971 14.8445C108.905 14.8445 108.806 14.9451 108.74 15.0122C108.707 15.0457 108.674 15.0457 108.608 15.0792C108.476 15.2134 108.542 15.2805 108.377 15.2805C108.245 15.2805 108.245 15.2805 108.179 15.4481C108.146 15.5487 108.113 15.6494 107.981 15.6494C107.783 15.6494 107.915 15.6829 107.816 15.75C107.783 15.7835 107.716 15.75 107.683 15.7835C107.683 15.8841 107.683 15.9847 107.584 15.9847Z" fill="#161613"/>
<path fill-rule="evenodd" clip-rule="evenodd" d="M94.8694 36.6765C94.9025 35.5363 95.4639 34.5973 96.3886 34.2955C97.0161 34.1278 97.4455 34.2955 98.0399 34.3625C99.0967 34.4967 100.154 34.3961 100.847 34.0607C101.97 33.5241 101.937 32.3504 100.913 31.7132C99.7242 31.0089 97.3794 30.8077 95.9263 29.4998C95.0346 28.6949 94.6383 27.5882 94.7043 26.4815C94.8034 24.6035 96.0584 23.3291 97.7097 22.6919C99.5921 21.9541 102.168 21.9541 105.008 22.6919L104.777 25.5425C102.73 24.8047 100.187 24.6706 99.1628 25.6096C98.5023 26.2132 98.5353 26.9846 99.3279 27.4541C101.045 28.3931 103.192 28.2254 104.744 29.9022C106.197 31.4784 105.999 34.1613 104.546 35.6369C103.555 36.6765 102.036 37.146 100.451 37.2802C98.8325 37.4143 96.917 37.2131 94.8694 36.6765Z" fill="#161613"/>
<path fill-rule="evenodd" clip-rule="evenodd" d="M142.526 23.1614C144.012 24.2681 144.243 25.7437 144.243 27.5211C144.276 30.7406 144.276 33.9265 144.276 37.146C141.337 37.3472 140.511 36.1399 140.412 35.0668L140.379 29.8687C140.379 28.829 140.412 27.5547 139.95 26.5821C139.421 25.5425 138.397 25.1401 137.341 25.2071C135.656 25.3078 134.599 26.448 134.203 28.0242C134.038 28.762 134.005 29.3321 134.005 30.1034L133.939 36.9783H129.976V22.323H133.708V24.6035C134.401 23.5639 135.491 22.8261 136.746 22.4237C138.629 21.8535 140.94 21.9541 142.526 23.1614Z" fill="#161613"/>
<path fill-rule="evenodd" clip-rule="evenodd" d="M178.028 37.0119C176.806 37.0119 175.618 37.0119 174.396 37.0119C173.504 36.8107 173.041 36.1064 172.942 34.9997C172.513 35.6369 172.018 36.1399 171.423 36.4753C169.739 37.4814 166.899 37.582 165.115 36.7101C163.233 35.771 162.11 33.6583 162.77 31.579C163.398 29.5333 165.28 28.5943 167.229 28.2589C168.781 27.9907 170.631 27.9907 172.81 28.0242C172.843 26.9846 172.579 26.2468 172.117 25.7773C171.06 24.57 168.847 24.7041 167.427 25.0395C166.304 25.3078 165.247 25.8108 164.587 26.3809L164.488 23.0608C166.04 22.4907 167.757 22.0548 169.541 22.0548C171.555 22.0212 174.131 22.4572 175.419 24.1675C176.08 24.9389 176.278 26.012 176.377 27.1187C176.476 28.6278 176.443 30.3047 176.443 31.8473C176.443 32.8534 176.443 33.8595 176.443 34.8656C176.443 34.9662 176.476 35.0332 176.476 35.1339C176.608 36.3076 177.17 36.9113 178.028 37.0119ZM172.876 30.4053C172.876 32.015 172.348 33.3564 171.225 34.0942C169.838 35.0332 167.097 35.0668 166.734 33.0546C166.634 32.451 166.833 31.7467 167.46 31.2437C168.715 30.2376 171.357 30.3382 172.876 30.4053Z" fill="#161613"/>
<path fill-rule="evenodd" clip-rule="evenodd" d="M178.425 22.2224H182.421V36.9783C179.977 37.1125 178.359 35.9052 178.425 33.9601V22.2224Z" fill="#161613"/>
<path fill-rule="evenodd" clip-rule="evenodd" d="M178.623 15.9847C178.458 15.9176 178.293 15.8506 178.227 15.9512C178.16 16.0853 178.094 16.1189 177.995 16.2195C177.896 16.253 178.094 16.9237 178.028 17.2591C178.028 17.3932 178.127 17.3597 178.16 17.3932C178.227 17.4603 178.227 17.5609 178.194 17.628C178.26 17.6951 178.326 17.7286 178.227 17.7957C178.16 17.8963 178.194 17.9634 178.227 18.064C178.26 18.2316 178.359 18.3323 178.458 18.3993C178.689 18.5335 178.788 18.4664 179.052 18.6676C179.151 18.7682 179.217 18.9024 179.283 19.1036C179.217 19.6737 179.845 19.6402 180.142 19.5395C180.241 19.506 180.076 19.4054 180.142 19.3383C180.175 19.3048 180.274 19.3048 180.373 19.2713C180.67 19.1371 180.67 19.1707 180.67 18.9359C180.67 18.8018 180.67 18.8688 180.836 18.8353C180.935 18.8353 180.836 18.7011 181.034 18.7347C181.199 18.8018 181.199 18.8018 181.199 18.6341C181.199 18.4664 181.364 18.4664 181.529 18.4999C181.925 18.6005 181.628 18.3658 181.793 18.3658C182.091 18.3658 182.157 18.3323 182.421 17.8963C182.487 17.7957 182.487 17.6615 182.487 17.5609C182.52 17.3597 182.586 17.4268 182.586 17.2591C182.619 17.125 182.553 16.9573 182.454 16.8231C182.322 16.6219 182.322 16.6554 182.223 16.4207C182.157 16.1859 182.124 16.0853 181.925 15.8506C181.76 15.6158 181.496 15.4146 181.298 15.2134C181.1 15.0457 181.133 15.0457 181.001 14.878C180.968 14.8445 180.935 14.811 180.902 14.811C180.737 14.7439 180.538 14.7439 180.406 14.7103C180.34 14.6768 180.274 14.7103 180.208 14.7439C180.076 14.8445 180.175 14.811 180.01 14.8445C179.944 14.8445 179.845 14.9451 179.779 15.0122C179.746 15.0457 179.713 15.0457 179.647 15.0792C179.515 15.2134 179.581 15.2805 179.415 15.2805C179.283 15.2805 179.283 15.2805 179.217 15.4481C179.184 15.5487 179.151 15.6494 179.019 15.6494C178.821 15.6494 178.953 15.6829 178.854 15.75C178.788 15.7835 178.755 15.75 178.722 15.7835C178.722 15.8841 178.722 15.9847 178.623 15.9847Z" fill="#161613"/>
<path fill-rule="evenodd" clip-rule="evenodd" d="M210.129 36.6765C210.163 35.5363 210.724 34.5973 211.649 34.2955C212.276 34.1278 212.705 34.2955 213.3 34.3625C214.357 34.4967 215.414 34.3961 216.107 34.0607C217.23 33.5241 217.197 32.3504 216.173 31.7132C214.984 31.0089 212.639 30.8077 211.186 29.4998C210.295 28.6949 209.898 27.5882 209.964 26.4815C210.063 24.6035 211.318 23.3291 212.97 22.6919C214.852 21.9541 217.428 21.9541 220.268 22.6919L220.037 25.5425C217.99 24.8047 215.447 24.6706 214.423 25.6096C213.762 26.2132 213.795 26.9846 214.588 27.4541C216.305 28.3931 218.452 28.2254 220.004 29.9022C221.457 31.4784 221.259 34.1613 219.806 35.6369C218.815 36.6765 217.296 37.146 215.711 37.2802C214.093 37.4143 212.21 37.2131 210.129 36.6765Z" fill="#161613"/>
<path fill-rule="evenodd" clip-rule="evenodd" d="M197.481 22.9938C198.967 24.1005 199.198 25.576 199.198 27.3535L199.264 34.329C199.264 35.2009 199.561 36.4082 201.477 36.9448H197.547C195.928 36.6765 195.433 35.771 195.367 34.9326L195.334 29.7345C195.334 28.6949 195.367 27.4205 194.905 26.448C194.376 25.4084 193.352 25.0059 192.296 25.073C190.611 25.1736 189.554 26.3138 189.158 27.89C188.993 28.6278 188.96 29.198 188.96 29.9693L188.894 36.8442H184.931V22.1889H188.663V24.4694C189.356 23.4297 190.446 22.6919 191.701 22.2895C193.551 21.6859 195.895 21.7865 197.481 22.9938Z" fill="#161613"/>
<path fill-rule="evenodd" clip-rule="evenodd" d="M204.812 17.9633C202.6 17.8292 200.915 19.1036 200.915 20.881L200.849 31.6126C200.816 34.765 201.906 36.3411 203.855 36.9113C205.11 37.2802 206.728 37.3137 208.676 36.8442L208.577 33.8259C206.298 34.3961 204.845 33.8259 204.845 31.6126V25.1401H208.412V22.256H204.845V17.9633H204.812Z" fill="#161613"/>
<path fill-rule="evenodd" clip-rule="evenodd" d="M156.661 26.7163C157.552 28.3595 157.486 31.2437 156.43 32.7863C155.274 34.4967 152.797 34.7314 151.377 33.2223C149.956 31.7467 149.923 28.7285 150.881 26.9846C152.07 24.7712 155.373 24.4023 156.661 26.7163ZM150.452 35.3015C150.419 37.4478 150.287 39.8289 150.32 42.0758C150.32 42.21 150.32 42.3106 150.32 42.3777C150.254 42.6795 150.155 42.5789 149.989 42.7466C149.857 42.8807 149.791 43.1155 149.791 43.2496C149.89 44.7923 149.626 45.6977 149.659 47.2069C149.659 47.8105 149.263 47.7434 149.23 48.0788C149.23 48.3471 149.164 48.5483 149.065 48.6154C149.065 48.1123 149.065 47.6093 149.065 47.1063C148.966 47.0727 148.999 47.4416 148.933 47.7434C148.9 47.9111 148.966 48.1459 148.9 48.3135C148.834 48.5483 148.834 48.8837 148.801 49.1184C148.768 49.2526 148.635 49.2861 148.602 49.1184C148.602 48.9507 148.602 48.7495 148.602 48.5483C148.503 48.4812 148.437 48.3135 148.404 48.0117C148.404 47.5087 148.404 46.9721 148.404 46.4691C148.173 46.3014 148.173 46.1002 148.239 45.2618C148.338 44.2892 148.338 43.2496 148.371 42.2435C148.338 42.0758 148.272 42.0088 148.206 41.9752C148.14 42.8136 147.909 43.4173 147.909 44.3898C148.008 44.524 148.074 44.6581 148.041 44.8258C148.008 44.9935 147.909 45.0941 147.942 45.3624C147.942 45.5636 147.843 45.6977 147.711 45.7648C147.645 45.3959 147.744 44.1551 147.777 43.652C147.777 42.6795 147.777 41.6734 147.777 40.7008C147.579 40.6338 147.678 41.0697 147.579 41.3045C147.579 41.6734 147.612 41.8075 147.413 41.9082C147.248 40.3655 147.48 39.3594 147.38 36.7436C147.38 36.6765 147.347 36.4753 147.182 36.4753C147.116 38.5881 147.281 40.6002 147.017 42.5453C147.017 42.8472 147.05 43.1825 146.984 43.5179C146.951 43.652 147.083 44.0545 146.852 43.9538C146.753 43.8868 146.687 43.7862 146.753 43.6856C146.819 43.5514 146.885 43.6856 146.852 43.3167C146.852 43.0819 146.918 42.9478 146.786 42.7801C146.687 42.6459 146.72 42.4783 146.819 42.2435C146.885 42.0423 146.885 41.774 146.786 41.6063C146.72 41.5057 146.852 41.5057 146.852 41.271C146.984 40.0637 146.555 40.7344 146.654 39.5271C146.687 39.2588 146.687 39.024 146.687 38.7222C146.72 37.3137 146.687 35.771 146.72 34.329C146.72 34.1613 146.621 34.0942 146.555 34.2284C146.225 34.7314 146.324 33.457 146.324 33.3229C146.324 31.076 146.291 28.6949 146.489 28.3595C146.489 27.1858 146.456 25.9785 146.456 24.8047C146.291 24.6706 146.258 25.073 146.258 25.1736C146.258 25.2407 146.258 25.2742 146.258 25.3078C146.258 25.4419 146.059 25.4754 146.059 25.3413C146.059 25.2742 146.026 25.2407 146.026 25.1736C145.993 24.57 145.993 23.6645 146.125 23.698C146.158 22.6919 146.192 21.9877 146.456 21.82C146.621 21.7194 146.918 21.7194 146.984 21.9541C147.05 22.0883 146.951 22.1554 147.149 22.1554C147.248 22.1554 147.347 22.1554 147.413 22.1218C147.513 22.0883 147.48 21.9877 147.645 22.0212C147.909 22.0212 147.612 22.5243 148.107 22.5243C148.569 22.5243 148.503 22.2224 148.536 21.9877C148.569 21.8535 148.867 21.8535 148.933 21.9206C149.098 22.1218 148.867 22.1218 149.263 22.1218C150.188 22.1554 150.353 22.6584 150.32 23.0944V24.3352C152.698 21.2834 157.949 21.1493 160.261 24.7376C162.011 27.4205 161.846 32.3168 159.963 34.8991C157.883 37.7161 152.764 38.3198 150.452 35.3015Z" fill="#161613"/>
<path d="M31.706 13.0252C33.6816 13.1507 35.6912 13.6043 37.4786 14.4786C37.7185 14.6295 38.015 14.6722 38.2112 14.8666C38.4027 14.9666 38.5876 15.0732 38.7718 15.1873C38.4002 15.2832 37.9867 15.2225 37.6022 15.2381C37.1362 15.2561 36.6548 15.1971 36.1952 15.2775C35.8931 15.1323 35.6621 14.8739 35.3544 14.7296C34.8673 14.4392 34.3553 14.1497 33.8238 13.9529C33.3739 13.7527 32.9022 13.601 32.4337 13.4542C31.9531 13.3295 31.4774 13.1999 30.9823 13.1458C30.7117 13.1032 30.4355 13.09 30.1617 13.0802C30.6923 12.9424 31.1753 13.0236 31.706 13.0252Z" fill="#161613"/>
<path d="M30.1617 13.0802C30.4355 13.09 30.7117 13.1032 30.9823 13.1458C31.0695 13.5575 31.2472 13.9512 31.3433 14.3564C31.3942 14.5803 31.5356 14.7517 31.5388 14.9921C31.5452 15.2012 31.6502 15.3546 31.7189 15.5424C31.8239 15.9878 31.9846 16.4184 32.1284 16.8539C32.2059 17.0409 32.1971 17.2402 32.2948 17.419C32.2972 17.4698 32.2924 17.5231 32.2803 17.5789C31.9257 17.5732 31.5784 17.4985 31.2205 17.5133C30.7908 17.4649 30.3684 17.5256 29.9371 17.5223C29.8862 17.1672 29.7408 16.8416 29.6738 16.4914C29.6528 16.3823 29.593 16.3035 29.5462 16.2051C29.4686 15.8409 29.3394 15.4842 29.2158 15.1331C29.152 14.8666 29.0898 14.577 28.9622 14.3343C28.8402 14.1095 28.9186 13.8536 28.7659 13.6305C28.6714 13.4788 28.6706 13.3148 28.6949 13.1434C29.1859 13.1065 29.669 13.0745 30.1617 13.0802Z" fill="#161613"/>
<path d="M28.6949 13.1434C28.6706 13.3148 28.6714 13.4788 28.7659 13.6305C28.9186 13.8536 28.8402 14.1095 28.9622 14.3343C29.0898 14.577 29.152 14.8666 29.2158 15.1331C29.3394 15.4842 29.4686 15.8409 29.5462 16.2051C29.593 16.3035 29.6528 16.3823 29.6738 16.4914C29.7408 16.8416 29.8862 17.1672 29.9371 17.5223C29.6496 17.551 29.3612 17.5592 29.0745 17.6035C29.0187 17.5248 28.9372 17.4452 28.9129 17.3501C28.8532 17.004 28.6577 16.7358 28.6682 16.3716C28.4404 16.014 28.4646 15.5752 28.2546 15.2217C28.1763 14.8567 28.0471 14.4999 27.9235 14.1489C27.8678 13.8897 27.7862 13.6379 27.7159 13.3828C27.6416 13.3533 27.5657 13.3279 27.4889 13.3049C27.8879 13.2409 28.2934 13.1877 28.6949 13.1434Z" fill="#161613"/>
<path d="M30.9823 13.1458C31.4774 13.1999 31.9531 13.3295 32.4337 13.4542C32.3586 13.5822 32.4644 13.6223 32.4903 13.7404C32.5622 14.0546 32.6308 14.363 32.7843 14.6492C32.9693 15.5367 33.2956 16.297 33.5306 17.1582C33.6493 17.3435 33.6768 17.5912 33.7156 17.8069C33.2439 17.6987 32.76 17.6363 32.2803 17.5789C32.2924 17.5231 32.2972 17.4698 32.2948 17.419C32.1971 17.2402 32.2059 17.0409 32.1284 16.8539C31.9846 16.4184 31.8239 15.9878 31.7189 15.5424C31.6502 15.3546 31.5452 15.2012 31.5388 14.9921C31.5356 14.7517 31.3942 14.5803 31.3433 14.3564C31.2472 13.9512 31.0695 13.5575 30.9823 13.1458Z" fill="#161613"/>
<path d="M27.4889 13.3049C27.5657 13.3279 27.6416 13.3533 27.7159 13.3828C27.7862 13.6379 27.8678 13.8897 27.9235 14.1489C28.0471 14.4999 28.1763 14.8567 28.2546 15.2217C28.4646 15.5752 28.4404 16.014 28.6682 16.3716C28.6577 16.7358 28.8532 17.004 28.9129 17.3501C28.9372 17.4452 29.0187 17.5248 29.0745 17.6035C28.6011 17.6527 28.1278 17.738 27.665 17.8504C27.6731 17.7733 27.7337 17.6814 27.6707 17.6166C27.4607 17.2894 27.4849 16.8522 27.2862 16.5332C27.2386 16.2592 27.1287 16.0205 27.0617 15.7515C26.8985 15.3972 26.8872 15.0109 26.7014 14.6615C26.6029 14.477 26.5819 14.2818 26.5666 14.0759C26.4583 13.8938 26.4583 13.6978 26.2895 13.5567C26.6885 13.4681 27.0843 13.3673 27.4889 13.3049Z" fill="#161613"/>
<path d="M32.4337 13.4542C32.9022 13.601 33.3739 13.7527 33.8238 13.9529C33.8359 14.1194 33.802 14.2728 33.8892 14.4171C34.0435 14.7009 34.0774 15.0003 34.1703 15.298C34.2826 15.5317 34.268 15.7737 34.4158 15.9976C34.4885 16.329 34.6048 16.6406 34.6686 16.9736C34.8197 17.2631 34.8851 17.5748 34.9699 17.8865C34.9732 17.9464 34.9643 18.0071 34.9449 18.0702C34.537 17.9783 34.1307 17.8668 33.7156 17.8069C33.6768 17.5912 33.6493 17.3435 33.5306 17.1582C33.2956 16.297 32.9693 15.5367 32.7843 14.6492C32.6308 14.363 32.5622 14.0546 32.4903 13.7404C32.4644 13.6223 32.3586 13.5822 32.4337 13.4542Z" fill="#161613"/>
<path d="M26.2895 13.5567C26.4583 13.6978 26.4583 13.8938 26.5666 14.0759C26.5819 14.2818 26.6029 14.477 26.7014 14.6615C26.8872 15.0109 26.8985 15.3972 27.0617 15.7515C27.1287 16.0205 27.2386 16.2592 27.2862 16.5332C27.4849 16.8522 27.4607 17.2894 27.6707 17.6166C27.7337 17.6814 27.6731 17.7733 27.665 17.8504C27.0302 17.9734 26.4171 18.2195 25.8154 18.4434C25.8001 18.3039 25.7783 18.1883 25.7023 18.0694C25.7225 18.0423 25.7427 18.0144 25.7637 17.9874C25.5392 17.7618 25.5303 17.3443 25.3809 17.0868C25.4011 17.0507 25.4188 17.022 25.4342 17.0007C25.3534 16.8678 25.3074 16.721 25.2161 16.5947C25.2347 16.5676 25.2524 16.5405 25.271 16.5135C25.2072 16.3831 25.1676 16.2625 25.1402 16.1182C24.9633 15.7515 24.9035 15.33 24.7452 14.951C24.6741 14.7878 24.6749 14.6139 24.5724 14.463C24.5901 14.4343 24.6087 14.4064 24.6265 14.3777C24.5667 14.2908 24.5231 14.2014 24.494 14.0989C25.0699 13.8651 25.6894 13.7175 26.2895 13.5567Z" fill="#161613"/>
<path d="M33.8238 13.9529C34.3553 14.1497 34.8673 14.4392 35.3544 14.7296C35.6621 14.8739 35.8931 15.1323 36.1952 15.2775C36.3115 15.4054 36.431 15.5112 36.5708 15.6121L36.41 15.6621C36.641 15.8582 36.5982 16.0977 36.6879 16.365C36.721 16.639 36.8987 16.8243 36.9181 17.1048C37.0134 17.3214 37.0457 17.5518 37.1442 17.7659C37.2056 17.9217 37.2096 18.0841 37.3058 18.2277C37.288 18.2564 37.2694 18.2851 37.2508 18.3138C37.3599 18.468 37.4423 18.6435 37.3591 18.8305C36.5594 18.5541 35.7623 18.2867 34.9449 18.0702C34.9643 18.0071 34.9732 17.9464 34.9699 17.8865C34.8851 17.5748 34.8197 17.2631 34.6686 16.9736C34.6048 16.6406 34.4885 16.329 34.4158 15.9976C34.268 15.7737 34.2826 15.5317 34.1703 15.298C34.0774 15.0003 34.0435 14.7009 33.8892 14.4171C33.802 14.2728 33.8359 14.1194 33.8238 13.9529Z" fill="#161613"/>
<path d="M24.494 14.0989C24.5231 14.2014 24.5667 14.2908 24.6265 14.3777C24.6087 14.4064 24.5901 14.4343 24.5724 14.463C24.6749 14.6139 24.6741 14.7878 24.7452 14.951C24.9035 15.33 24.9633 15.7515 25.1402 16.1182C25.1676 16.2625 25.2072 16.3831 25.271 16.5135C25.2524 16.5405 25.2347 16.5676 25.2161 16.5947C25.3074 16.721 25.3534 16.8678 25.4342 17.0007C25.4188 17.022 25.4011 17.0507 25.3809 17.0868C25.5303 17.3443 25.5392 17.7618 25.7637 17.9874C25.7427 18.0144 25.7225 18.0423 25.7023 18.0694C25.7783 18.1883 25.8001 18.3039 25.8154 18.4434C25.5424 18.5582 25.284 18.7116 25.0166 18.8395C25.0029 18.7165 24.9407 18.6386 24.8898 18.5344C24.8793 18.2826 24.8357 18.0612 24.7008 17.8455C24.658 17.5691 24.5409 17.3345 24.4787 17.0647C24.3131 16.712 24.3042 16.3224 24.1168 15.9738C24.0175 15.7893 23.9973 15.5933 23.9828 15.3874C23.9157 15.2381 23.843 15.0905 23.7614 14.9486L23.8172 14.874C23.7138 14.6976 23.7784 14.5352 23.5369 14.4655C23.8366 14.313 24.179 14.2112 24.494 14.0989Z" fill="#161613"/>
<path d="M23.5369 14.4655C23.7784 14.5352 23.7138 14.6976 23.8172 14.874L23.7614 14.9486C23.843 15.0905 23.9157 15.2381 23.9828 15.3874C23.9973 15.5933 24.0175 15.7893 24.1168 15.9738C24.3042 16.3224 24.3131 16.712 24.4787 17.0647C24.5409 17.3345 24.658 17.5691 24.7008 17.8455C24.8357 18.0612 24.8793 18.2826 24.8898 18.5344C24.9407 18.6386 25.0029 18.7165 25.0166 18.8395C24.6507 18.9946 24.3228 19.2463 23.9512 19.3759C23.5288 19.3497 23.2768 19.0142 23.07 18.6771C22.4788 17.6355 22.146 16.4069 21.9425 15.225C22.2607 14.9797 22.6985 14.8321 23.0636 14.6648C23.2187 14.582 23.3649 14.5049 23.5369 14.4655Z" fill="#161613"/>
<path d="M36.1952 15.2775C36.6548 15.1971 37.1362 15.2561 37.6022 15.2381C37.9867 15.2225 38.4002 15.2832 38.7718 15.1873C39.0997 15.3989 39.4309 15.6195 39.7434 15.8557C39.8517 15.9804 39.9696 16.0575 40.1053 16.1469C40.5592 16.5808 41.0503 16.9498 41.4275 17.4633C41.1925 17.597 40.854 17.5174 40.5907 17.5355C39.8525 17.5519 39.1037 17.4977 38.3687 17.5674C37.8397 16.8465 37.2387 16.2002 36.5708 15.6121C36.431 15.5112 36.3115 15.4054 36.1952 15.2775Z" fill="#161613"/>
<path d="M36.41 15.6621L36.5708 15.6121C37.2387 16.2002 37.8397 16.8465 38.3687 17.5674C38.8679 18.2449 39.3218 19.0028 39.6643 19.7746C39.4567 19.8033 39.2524 19.5703 39.0351 19.5375C38.4737 19.2546 37.939 19.0634 37.3591 18.8305C37.4423 18.6435 37.3599 18.468 37.2508 18.3138C37.2694 18.2851 37.288 18.2564 37.3058 18.2277C37.2096 18.0841 37.2056 17.9217 37.1442 17.7659C37.0457 17.5518 37.0134 17.3214 36.9181 17.1048C36.8987 16.8243 36.721 16.639 36.6879 16.365C36.5982 16.0977 36.641 15.8582 36.41 15.6621Z" fill="#161613"/>
<path d="M41.4275 17.4633C41.5979 17.665 41.795 17.8315 41.9372 18.0579C42.7376 19.0421 43.4266 20.1002 44.0227 21.2222C43.849 21.355 43.6237 21.3001 43.4177 21.3091C42.3378 21.3042 41.2579 21.3034 40.178 21.3108C40.0641 20.7752 39.8808 20.2749 39.6643 19.7746C39.3218 19.0028 38.8679 18.2449 38.3687 17.5674C39.1037 17.4977 39.8525 17.5519 40.5907 17.5355C40.854 17.5174 41.1925 17.597 41.4275 17.4633Z" fill="#161613"/>
<path d="M58.0379 18.9429C60.3059 18.7477 62.67 19.1381 64.7563 20.0632C65.2208 20.2494 65.6836 20.4668 66.0995 20.7489C66.4202 20.8752 66.6617 21.1008 66.9565 21.2665C66.6488 21.3288 66.3443 21.3075 66.0333 21.3066C61.5909 21.3083 57.1486 21.3075 52.7062 21.3075C52.4478 21.305 52.2087 21.3378 51.9575 21.2533C52.3282 20.9745 52.7232 20.7202 53.1351 20.5119C53.4122 20.3208 53.6787 20.1879 53.9921 20.0714C55.2481 19.4604 56.6519 19.0839 58.0379 18.9429Z" fill="#161613"/>
<path d="M33.5112 20.794C33.428 20.8391 33.3464 20.8867 33.2657 20.9367C33.2915 21.0384 33.3707 21.0991 33.4361 21.1844C33.3093 21.3337 33.3359 21.3969 33.4555 21.5355C33.3892 21.5494 33.323 21.5642 33.2576 21.5789C33.2907 21.6872 33.3682 21.7553 33.4361 21.8414C33.3077 21.9915 33.3367 22.0514 33.4555 22.1916C33.3892 22.2056 33.323 22.2203 33.2576 22.2351C33.2907 22.3434 33.3682 22.4114 33.4361 22.4967C33.3101 22.646 33.3351 22.7083 33.4555 22.8478C33.3892 22.8617 33.3238 22.8765 33.2576 22.8912C33.2907 22.9995 33.3682 23.0676 33.4361 23.1529C33.3101 23.3022 33.3359 23.3645 33.4555 23.5039C33.3892 23.5179 33.323 23.5326 33.2576 23.5474C33.2907 23.6557 33.3682 23.7237 33.4361 23.809C33.3093 23.9599 33.3359 24.0198 33.4555 24.1601C33.3892 24.174 33.3238 24.1888 33.2576 24.2027C33.2899 24.3848 33.5144 24.3996 33.3949 24.58C32.9353 24.3315 32.4733 24.0748 31.9871 23.8812C31.1963 23.5056 30.3684 23.175 29.5179 22.9667C29.0462 22.7977 28.4986 22.7699 28.0002 22.7305C27.9469 22.6739 27.8952 22.6148 27.8444 22.5558C27.9429 22.5435 28.0406 22.5312 28.1392 22.5197C28.0414 22.4205 27.9405 22.327 27.8427 22.2285C27.9413 22.2162 28.0398 22.2039 28.1392 22.1908C28.0414 22.0924 27.9405 21.9989 27.8427 21.9005C27.9413 21.8882 28.0398 21.8759 28.1392 21.8627C28.0414 21.7643 27.9405 21.6708 27.8427 21.5724C27.9413 21.5601 28.0398 21.5478 28.1392 21.5347C28.0414 21.4362 27.9397 21.3419 27.8419 21.2435C27.9381 21.2328 28.0342 21.2222 28.1303 21.2123C28.0479 21.1155 27.9906 21.045 27.9744 20.9121C29.8087 20.5791 31.6664 20.4742 33.5112 20.794Z" fill="#161613"/>
<path d="M33.5112 20.794C34.3149 20.9704 35.1121 21.1418 35.8899 21.4174C36.3349 21.5781 36.8034 21.6995 37.2275 21.9111C37.1758 21.9685 37.1249 22.0268 37.0756 22.0866C37.175 22.1883 37.1628 22.1408 37.0877 22.2531C37.1079 22.2802 37.1281 22.3073 37.1475 22.3343C36.9876 22.4828 37.2477 22.4262 37.0877 22.5804C37.1677 22.6854 37.1588 22.6362 37.0893 22.7436C37.2444 22.8937 36.9916 22.8371 37.1459 22.988C37.0748 23.0979 37.07 23.0438 37.1467 23.1512C37.1249 23.1857 37.1047 23.2136 37.0869 23.2365C37.1661 23.3432 37.1596 23.2907 37.0893 23.3998C37.2444 23.5507 36.99 23.4933 37.1467 23.6433C37.0756 23.7533 37.0691 23.6991 37.1467 23.8082C37.0756 23.9173 37.07 23.8632 37.1459 23.9722C37.0756 24.0805 37.0691 24.0288 37.1475 24.1355C37.1273 24.1633 37.1079 24.1904 37.0885 24.2183C37.1079 24.2454 37.1265 24.2732 37.1459 24.3003C37.1273 24.3282 37.1079 24.3553 37.0893 24.3823C37.1079 24.4102 37.1273 24.4373 37.1459 24.4643C37.0772 24.571 37.0667 24.5234 37.1475 24.6267C37.1281 24.6555 37.1087 24.6833 37.0885 24.712C37.2444 24.863 36.9908 24.8055 37.1467 24.9565C37.1273 24.9843 37.1079 25.0122 37.0885 25.0401C37.2444 25.191 36.9892 25.1353 37.1467 25.2845C37.1273 25.3124 37.1079 25.3395 37.0893 25.3674C37.1079 25.3944 37.1273 25.4215 37.1467 25.4486C37.1273 25.4748 37.1071 25.5019 37.0877 25.5289C37.1071 25.5568 37.1265 25.5847 37.1451 25.6126C36.9908 25.7701 37.2485 25.7012 37.0877 25.8611C37.1661 25.9661 37.1604 25.9161 37.0893 26.0227C37.1079 26.0506 37.1265 26.0785 37.1459 26.1055C37.0756 26.2122 37.0708 26.163 37.1459 26.2696C37.0764 26.3762 37.0675 26.327 37.1483 26.4312C37.0708 26.5443 37.0611 26.4976 37.1612 26.5993C37.1055 26.6567 37.049 26.7125 36.9908 26.7682C35.8245 25.9932 34.6194 25.2558 33.3949 24.58C33.5144 24.3996 33.2899 24.3848 33.2576 24.2027C33.3238 24.1888 33.3892 24.174 33.4555 24.1601C33.3359 24.0198 33.3093 23.9599 33.4361 23.809C33.3682 23.7237 33.2907 23.6557 33.2576 23.5474C33.323 23.5326 33.3892 23.5179 33.4555 23.5039C33.3359 23.3645 33.3101 23.3022 33.4361 23.1529C33.3682 23.0676 33.2907 22.9995 33.2576 22.8912C33.3238 22.8765 33.3892 22.8617 33.4555 22.8478C33.3351 22.7083 33.3101 22.646 33.4361 22.4967C33.3682 22.4114 33.2907 22.3434 33.2576 22.2351C33.323 22.2203 33.3892 22.2056 33.4555 22.1916C33.3367 22.0514 33.3077 21.9915 33.4361 21.8414C33.3682 21.7553 33.2907 21.6872 33.2576 21.5789C33.323 21.5642 33.3892 21.5494 33.4555 21.5355C33.3359 21.3969 33.3093 21.3337 33.4361 21.1844C33.3707 21.0991 33.2915 21.0384 33.2657 20.9367C33.3464 20.8867 33.428 20.8391 33.5112 20.794Z" fill="#161613"/>
<path d="M27.9744 20.9121C27.9906 21.045 28.0479 21.1155 28.1303 21.2123C28.0342 21.2222 27.9381 21.2328 27.8419 21.2435C27.9397 21.3419 28.0414 21.4362 28.1392 21.5347C28.0398 21.5478 27.9413 21.5601 27.8427 21.5724C27.9405 21.6708 28.0414 21.7643 28.1392 21.8627C28.0398 21.8759 27.9413 21.8882 27.8427 21.9005C27.9405 21.9989 28.0414 22.0924 28.1392 22.1908C28.0398 22.2039 27.9413 22.2162 27.8427 22.2285C27.9405 22.327 28.0414 22.4205 28.1392 22.5197C28.0406 22.5312 27.9429 22.5435 27.8444 22.5558C27.8952 22.6148 27.9469 22.6739 28.0002 22.7305C27.619 22.7157 27.2402 22.71 26.8598 22.6862C26.0529 22.7321 25.2581 22.7797 24.4714 22.9831C23.7816 23.1471 23.1411 23.412 22.5014 23.7131C23.0692 22.9905 23.9432 22.4574 24.7339 22.0186C25.7637 21.5084 26.8517 21.1459 27.9744 20.9121Z" fill="#161613"/>
<path d="M44.0227 21.2222C44.1567 21.4732 44.2633 21.7241 44.3602 21.9907C44.5428 22.3179 44.6284 22.6755 44.7617 23.0233C44.5727 23.1603 44.3659 23.1037 44.1446 23.1135C42.8991 23.1111 41.6536 23.1119 40.4082 23.1127C40.3726 22.5099 40.3105 21.8996 40.178 21.3108C41.2579 21.3034 42.3378 21.3042 43.4177 21.3091C43.6237 21.3001 43.849 21.355 44.0227 21.2222Z" fill="#161613"/>
<path d="M51.9575 21.2533C52.2087 21.3378 52.4478 21.305 52.7062 21.3075C57.1486 21.3075 61.5909 21.3083 66.0333 21.3066C66.3443 21.3075 66.6488 21.3288 66.9565 21.2665C67.6802 21.7553 68.366 22.3023 68.9564 22.9536C68.7359 22.8625 68.5744 22.6378 68.3321 22.5664C67.4396 21.9858 66.35 21.6519 65.3072 21.4838C64.0262 21.3165 62.708 21.3862 61.4295 21.5461C60.8495 21.6429 60.2227 21.7504 59.6961 22.0218C58.5266 22.5632 57.4095 23.189 56.3668 23.955C56.2238 23.9419 56.0808 23.9312 55.9371 23.9304C53.9994 23.9329 52.0601 23.9312 50.1216 23.9312C49.8074 23.9337 49.4965 23.9468 49.1839 23.8976C49.3018 23.759 49.3874 23.6048 49.5158 23.481C49.767 23.2406 49.9536 22.947 50.2129 22.7124C50.7581 22.1916 51.3307 21.6716 51.9575 21.2533Z" fill="#161613"/>
<path d="M65.3072 21.4838C66.35 21.6519 67.4396 21.9858 68.3321 22.5664C68.047 22.6583 67.7796 22.6206 67.4872 22.6247C65.8985 22.6255 64.3105 22.6247 62.7218 22.6255C62.385 22.6288 62.0554 22.6009 61.721 22.6641C61.0716 22.386 60.4004 22.1465 59.6961 22.0218C60.2227 21.7504 60.8495 21.6429 61.4295 21.5461C62.708 21.3862 64.0262 21.3165 65.3072 21.4838Z" fill="#161613"/>
<path d="M37.2275 21.9111C37.8365 22.1006 38.4382 22.4295 39.0181 22.6608C39.4858 22.8962 39.9494 23.1422 40.4227 23.3653C40.4752 23.8763 40.409 24.3971 40.4155 24.9105C40.2975 26.1564 40.0504 27.3842 39.6134 28.5563C38.7847 27.9698 37.8397 27.3128 36.9908 26.7682C37.049 26.7125 37.1055 26.6567 37.1612 26.5993C37.0611 26.4976 37.0708 26.5443 37.1483 26.4312C37.0675 26.327 37.0764 26.3762 37.1459 26.2696C37.0708 26.163 37.0756 26.2122 37.1459 26.1055C37.1265 26.0785 37.1079 26.0506 37.0893 26.0227C37.1604 25.9161 37.1661 25.9661 37.0877 25.8611C37.2485 25.7012 36.9908 25.7701 37.1451 25.6126C37.1265 25.5847 37.1071 25.5568 37.0877 25.5289C37.1071 25.5019 37.1273 25.4748 37.1467 25.4486C37.1273 25.4215 37.1079 25.3944 37.0893 25.3674C37.1079 25.3395 37.1273 25.3124 37.1467 25.2845C36.9892 25.1353 37.2444 25.191 37.0885 25.0401C37.1079 25.0122 37.1273 24.9843 37.1467 24.9565C36.9908 24.8055 37.2444 24.863 37.0885 24.712C37.1087 24.6833 37.1281 24.6555 37.1475 24.6267C37.0667 24.5234 37.0772 24.571 37.1459 24.4643C37.1273 24.4373 37.1079 24.4102 37.0893 24.3823C37.1079 24.3553 37.1273 24.3282 37.1459 24.3003C37.1265 24.2732 37.1079 24.2454 37.0885 24.2183C37.1079 24.1904 37.1273 24.1633 37.1475 24.1355C37.0691 24.0288 37.0756 24.0805 37.1459 23.9722C37.07 23.8632 37.0756 23.9173 37.1467 23.8082C37.0691 23.6991 37.0756 23.7533 37.1467 23.6433C36.99 23.4933 37.2444 23.5507 37.0893 23.3998C37.1596 23.2907 37.1661 23.3432 37.0869 23.2365C37.1047 23.2136 37.1249 23.1857 37.1467 23.1512C37.07 23.0438 37.0748 23.0979 37.1459 22.988C36.9916 22.8371 37.2444 22.8937 37.0893 22.7436C37.1588 22.6362 37.1677 22.6854 37.0877 22.5804C37.2477 22.4262 36.9876 22.4828 37.1475 22.3343C37.1281 22.3073 37.1079 22.2802 37.0877 22.2531C37.1628 22.1408 37.175 22.1883 37.0756 22.0866C37.1249 22.0268 37.1758 21.9685 37.2275 21.9111Z" fill="#161613"/>
<path d="M61.721 22.6641C62.0554 22.6009 62.385 22.6288 62.7218 22.6255C64.3105 22.6247 65.8985 22.6255 67.4872 22.6247C67.7796 22.6206 68.047 22.6583 68.3321 22.5664C68.5744 22.6378 68.7359 22.8625 68.9564 22.9536C69.0946 23.1111 69.2585 23.2349 69.4176 23.3678C69.5428 23.5638 69.7221 23.7172 69.8611 23.9033C69.6083 23.9288 69.3563 23.9329 69.1026 23.9279C67.568 23.9263 66.0334 23.9288 64.4987 23.9263C64.2403 23.9206 63.985 23.923 63.729 23.9681C63.5998 23.8131 63.4091 23.7721 63.2888 23.6023C62.784 23.2513 62.2896 22.9273 61.721 22.6641Z" fill="#161613"/>
<path d="M26.8598 22.6862C27.2402 22.71 27.619 22.7157 28.0002 22.7305C28.4986 22.7699 29.0462 22.7977 29.5179 22.9667C29.0729 23.312 28.6521 23.7065 28.2797 24.1305C28.0988 24.0165 27.9268 24.0583 27.7281 24.0551C26.0182 24.0542 24.3091 24.0559 22.5992 24.0551C22.4303 24.0542 22.2769 24.0821 22.1178 24.0034C22.2389 23.8976 22.377 23.8148 22.5014 23.7131C23.1411 23.412 23.7816 23.1471 24.4714 22.9831C25.2581 22.7797 26.0529 22.7321 26.8598 22.6862Z" fill="#161613"/>
<path d="M44.7617 23.0233C44.9612 23.6409 45.1276 24.2634 45.2286 24.9064C43.6245 24.9278 42.0196 24.9179 40.4155 24.9105C40.409 24.3971 40.4752 23.8763 40.4227 23.3653C40.4155 23.2817 40.4106 23.1972 40.4082 23.1127C41.6536 23.1119 42.8991 23.1111 44.1446 23.1135C44.3659 23.1037 44.5727 23.1603 44.7617 23.0233Z" fill="#161613"/>
<path d="M49.1839 23.8976C49.4965 23.9468 49.8074 23.9337 50.1216 23.9312C52.0601 23.9312 53.9994 23.9329 55.9371 23.9304C56.0808 23.9312 56.2238 23.9419 56.3668 23.955C55.5688 24.5283 54.8644 25.2066 54.2045 25.9374C53.9485 25.8931 53.6925 25.8947 53.4332 25.8997C51.737 25.9013 50.0408 25.8972 48.3447 25.9021C48.1928 25.9005 48.0426 25.8874 47.8915 25.8734C48.2905 25.1836 48.6734 24.5119 49.1839 23.8976Z" fill="#161613"/>
<path d="M63.729 23.9681C63.985 23.923 64.2403 23.9206 64.4987 23.9263C66.0334 23.9288 67.568 23.9263 69.1026 23.9279C69.3563 23.9329 69.6083 23.9288 69.8611 23.9033C70.038 24.1445 70.2197 24.3914 70.3521 24.6604C70.3069 24.7047 70.2625 24.7498 70.2172 24.7933C68.4799 24.7933 66.7417 24.7933 65.0035 24.7933C64.8323 24.7941 64.678 24.7654 64.5173 24.8474C64.2879 24.5193 64.0052 24.2536 63.729 23.9681Z" fill="#161613"/>
<path d="M22.1178 24.0034C22.2769 24.0821 22.4303 24.0542 22.5992 24.0551C24.3091 24.0559 26.0182 24.0542 27.7281 24.0551C27.9268 24.0583 28.0988 24.0165 28.2797 24.1305C28.0027 24.3651 27.8468 24.6637 27.5948 24.9179C25.9777 24.9138 24.3583 24.9179 22.7405 24.9163C22.2987 24.9081 21.8601 24.936 21.4191 24.8958C21.6299 24.594 21.8423 24.247 22.1178 24.0034Z" fill="#161613"/>
<path d="M70.3521 24.6604C70.5452 24.9704 70.6922 25.3149 70.8367 25.6503C70.6744 25.7758 70.5048 25.7323 70.3142 25.7405C68.8595 25.7356 67.4064 25.7348 65.9526 25.7364C65.6715 25.7282 65.3936 25.7315 65.1142 25.7627C64.9163 25.451 64.7661 25.1262 64.5173 24.8474C64.678 24.7654 64.8323 24.7941 65.0035 24.7933C66.7417 24.7933 68.4799 24.7933 70.2172 24.7933C70.2625 24.7498 70.3069 24.7047 70.3521 24.6604Z" fill="#161613"/>
<path d="M21.4191 24.8958C21.8601 24.936 22.2987 24.9081 22.7405 24.9163C24.3583 24.9179 25.9777 24.9138 27.5948 24.9179C27.5746 25.0623 27.4251 25.1295 27.3654 25.2665C27.2814 25.4445 27.1481 25.5864 27.0665 25.7619C26.6473 25.7143 26.2306 25.7439 25.8097 25.7373C24.1895 25.7274 22.5676 25.7529 20.9482 25.725C21.0871 25.4346 21.2543 25.1746 21.4191 24.8958Z" fill="#161613"/>
<path d="M40.4155 24.9105C42.0196 24.9179 43.6245 24.9278 45.2286 24.9064C45.3061 25.3887 45.3594 25.8693 45.3836 26.3573C45.4087 27.1726 45.3901 27.9739 45.2084 28.7728C43.3151 28.7638 41.4211 28.7843 39.5278 28.7613C39.5577 28.6932 39.5859 28.6252 39.6134 28.5563C40.0504 27.3842 40.2975 26.1564 40.4155 24.9105Z" fill="#161613"/>
<path d="M70.8367 25.6503C70.9676 25.9087 71.0532 26.1998 71.1614 26.4705C70.9837 26.614 70.6913 26.5443 70.4757 26.5574C68.8045 26.5607 67.1326 26.5476 65.4607 26.5615C65.3379 26.2983 65.2434 26.0219 65.1142 25.7627C65.3936 25.7315 65.6715 25.7282 65.9526 25.7364C67.4064 25.7348 68.8595 25.7356 70.3142 25.7405C70.5048 25.7323 70.6744 25.7758 70.8367 25.6503Z" fill="#161613"/>
<path d="M20.9482 25.725C22.5676 25.7529 24.1895 25.7274 25.8097 25.7373C26.2306 25.7439 26.6473 25.7143 27.0665 25.7619C26.9155 26.0317 26.7548 26.2762 26.6522 26.5739C24.6338 26.5485 22.6129 26.5886 20.5961 26.5534C20.7261 26.2647 20.8262 26.0071 20.9482 25.725Z" fill="#161613"/>
<path d="M47.8915 25.8734C48.0426 25.8874 48.1928 25.9005 48.3447 25.9021C50.0408 25.8972 51.737 25.9013 53.4332 25.8997C53.6925 25.8947 53.9485 25.8931 54.2045 25.9374C53.7967 26.377 53.4631 26.8896 53.123 27.3842C51.5843 27.3686 50.0449 27.3801 48.5062 27.3768C48.0813 27.3711 47.6646 27.3973 47.2413 27.3514C47.4319 26.8445 47.6428 26.3549 47.8915 25.8734Z" fill="#161613"/>
<path d="M45.3836 26.3573C45.5484 26.3959 45.6453 26.5304 45.7972 26.6034C45.974 26.7437 46.1873 26.8486 46.3569 26.9955C46.3197 27.089 46.2769 27.171 46.281 27.2743C46.2907 28.5965 46.281 29.9653 46.2842 31.2883L46.386 31.3334C46.3868 31.4901 46.386 31.6475 46.3868 31.8042C46.3698 32.2766 46.3803 32.7482 46.3666 33.2198C46.054 32.9623 45.6784 32.7901 45.3553 32.544C44.9757 32.2873 44.5969 32.0306 44.2181 31.7738C44.3974 31.3137 44.6203 30.8757 44.7738 30.4033C44.9515 29.8661 45.13 29.3363 45.2084 28.7728C45.3901 27.9739 45.4087 27.1726 45.3836 26.3573Z" fill="#161613"/>
<path d="M71.1614 26.4705C71.2486 26.7092 71.3076 26.9602 71.3747 27.2054C69.4636 27.2243 67.551 27.2087 65.64 27.2111C65.6101 26.9848 65.5091 26.7838 65.4607 26.5615C67.1326 26.5476 68.8045 26.5607 70.4757 26.5574C70.6913 26.5443 70.9837 26.614 71.1614 26.4705Z" fill="#161613"/>
<path d="M20.5961 26.5534C22.6129 26.5886 24.6338 26.5485 26.6522 26.5739C26.502 26.9471 26.3347 27.3276 26.2564 27.7246C26.0537 27.7025 25.8517 27.6885 25.6482 27.6918C23.8446 27.7041 22.0394 27.6787 20.2366 27.7049C20.3254 27.3096 20.4701 26.9364 20.5961 26.5534Z" fill="#161613"/>
<path d="M46.3569 26.9955C46.6347 27.1636 46.8989 27.3621 47.1743 27.5368C46.9805 28.1363 46.785 28.7268 46.6622 29.3485C46.5459 30.0022 46.4005 30.6674 46.386 31.3334L46.2842 31.2883C46.281 29.9653 46.2907 28.5965 46.281 27.2743C46.2769 27.171 46.3197 27.089 46.3569 26.9955Z" fill="#161613"/>
<path d="M65.64 27.2111C67.551 27.2087 69.4636 27.2243 71.3747 27.2054C71.4554 27.4424 71.5007 27.6983 71.5483 27.9444C69.6268 27.9649 67.7037 27.9403 65.7822 27.9559C65.7507 27.7024 65.7022 27.458 65.64 27.2111Z" fill="#161613"/>
<path d="M47.2413 27.3514C47.6646 27.3973 48.0813 27.3711 48.5062 27.3768C50.0449 27.3801 51.5843 27.3686 53.123 27.3842C53.0616 27.5441 52.9857 27.6647 52.8831 27.7984C52.6271 28.3118 52.367 28.813 52.1764 29.3551C50.3389 29.3362 48.4998 29.3469 46.6622 29.3485C46.785 28.7268 46.9805 28.1363 47.1743 27.5368C47.1953 27.4744 47.2171 27.4129 47.2413 27.3514Z" fill="#161613"/>
<path d="M20.2366 27.7049C22.0394 27.6787 23.8446 27.7041 25.6482 27.6918C25.8517 27.6885 26.0537 27.7025 26.2564 27.7246C26.1764 27.9436 26.1716 28.1634 26.1143 28.3865C25.8784 28.3651 25.6426 28.3528 25.4059 28.3594C24.0861 28.3651 22.768 28.3602 21.4482 28.3627C20.9983 28.3586 20.5524 28.3783 20.1034 28.3405C20.1413 28.1281 20.1865 27.9149 20.2366 27.7049Z" fill="#161613"/>
<path d="M65.7822 27.9559C67.7037 27.9403 69.6268 27.9649 71.5483 27.9444C71.6049 28.1618 71.6234 28.3824 71.6549 28.6038C71.4667 28.7424 71.1848 28.6793 70.9603 28.6891C69.2577 28.6916 67.555 28.685 65.8532 28.6899C65.8354 28.4447 65.8032 28.2011 65.7822 27.9559Z" fill="#161613"/>
<path d="M20.1034 28.3405C20.5524 28.3783 20.9983 28.3586 21.4482 28.3627C22.768 28.3602 24.0861 28.3651 25.4059 28.3594C25.6426 28.3528 25.8784 28.3651 26.1143 28.3865C26.0844 28.653 26.044 28.9171 26.0472 29.1837C24.0361 29.1837 22.0225 29.173 20.0121 29.1878C20.0169 28.9016 20.0509 28.6219 20.1034 28.3405Z" fill="#161613"/>
<path d="M71.6549 28.6038C71.6994 28.872 71.7042 29.1583 71.7196 29.4289C70.3909 29.4691 69.059 29.4355 67.7295 29.447C67.1003 29.4388 66.4695 29.4642 65.8411 29.4297C65.8589 29.1829 65.8476 28.9376 65.8532 28.6899C67.555 28.685 69.2577 28.6916 70.9603 28.6891C71.1848 28.6793 71.4667 28.7424 71.6549 28.6038Z" fill="#161613"/>
<path d="M39.5278 28.7613C41.4211 28.7843 43.3151 28.7638 45.2084 28.7728C45.13 29.3363 44.9515 29.8661 44.7738 30.4033C43.1915 30.4205 41.6076 30.4074 40.0253 30.4115C39.6005 30.4008 39.1797 30.441 38.7661 30.3771C39.0278 29.8439 39.3218 29.3199 39.5278 28.7613Z" fill="#161613"/>
<path d="M20.0121 29.1878C22.0225 29.173 24.0361 29.1837 26.0472 29.1837C26.0101 29.5963 26.0593 29.9998 26.0755 30.4115C24.0732 30.4148 22.0709 30.4099 20.0694 30.4132C20.0266 30.0105 19.9765 29.5922 20.0121 29.1878Z" fill="#161613"/>
<path d="M46.6622 29.3485C48.4998 29.3469 50.3389 29.3362 52.1764 29.3551C52.0334 29.848 51.8129 30.3484 51.7572 30.8602C51.6336 31.1735 51.6086 31.4974 51.5262 31.8222C51.3808 31.814 51.2362 31.8067 51.0908 31.8042C49.5231 31.8075 47.9545 31.8058 46.3868 31.8042C46.386 31.6475 46.3868 31.4901 46.386 31.3334C46.4005 30.6674 46.5459 30.0022 46.6622 29.3485Z" fill="#161613"/>
<path d="M65.8411 29.4297C66.4695 29.4642 67.1003 29.4388 67.7295 29.447C69.059 29.4355 70.3909 29.4691 71.7196 29.4289C71.7123 29.8374 71.7074 30.2549 71.6606 30.66C71.4659 30.5198 71.2656 30.5764 71.0411 30.5665C69.2738 30.5715 67.5066 30.5641 65.7393 30.5706C65.808 30.1868 65.8355 29.8193 65.8411 29.4297Z" fill="#161613"/>
<path d="M20.0694 30.4132C22.0709 30.4099 24.0732 30.4148 26.0755 30.4115C26.1054 30.6289 26.1482 30.8454 26.1797 31.0627C24.5215 31.0742 22.8641 31.0644 21.2058 31.0668C20.8658 31.0652 20.5274 31.0578 20.1881 31.0898C20.134 30.8684 20.1082 30.6387 20.0694 30.4132Z" fill="#161613"/>
<path d="M38.7661 30.3771C39.1797 30.441 39.6005 30.4008 40.0253 30.4115C41.6076 30.4074 43.1915 30.4205 44.7738 30.4033C44.6203 30.8757 44.3974 31.3137 44.2181 31.7738C44.1599 31.8772 44.101 31.9789 44.0404 32.0798C43.7254 32.0404 43.4112 32.0502 43.0946 32.0527C41.3984 32.0511 39.7023 32.0535 38.0061 32.0527C37.8841 32.0461 37.7622 32.0338 37.6402 32.015C38.061 31.5024 38.4204 30.943 38.7661 30.3771Z" fill="#161613"/>
<path d="M65.7393 30.5706C67.5066 30.5641 69.2738 30.5715 71.0411 30.5665C71.2656 30.5764 71.4659 30.5198 71.6606 30.66C71.6283 30.9291 71.5984 31.2022 71.55 31.4687C71.3674 31.3457 71.0912 31.4039 70.8796 31.3949C69.3716 31.3949 67.8644 31.3966 66.3565 31.3966C66.0972 31.4031 65.8419 31.3941 65.5835 31.3736C65.6659 31.107 65.7175 30.8503 65.7393 30.5706Z" fill="#161613"/>
<path d="M51.7572 30.8602C52.0722 31.0718 52.3403 31.285 52.6586 31.5146C52.6263 31.7492 52.6182 31.9797 52.6238 32.2159C52.6279 33.6922 52.6206 35.1686 52.6279 36.6449C52.6263 36.7966 52.6101 36.9467 52.5964 37.0976C52.3734 36.9525 52.1481 36.827 51.9082 36.713C51.7224 36.5539 51.4995 36.4792 51.2976 36.3472C51.2289 36.2045 51.2532 36.0617 51.2507 35.9067C51.2653 35.5557 51.2524 35.2038 51.2693 34.8528C51.3081 34.5223 51.2911 34.1884 51.321 33.8563C51.3477 33.1731 51.443 32.5005 51.5262 31.8222C51.6086 31.4974 51.6336 31.1735 51.7572 30.8602Z" fill="#161613"/>
<path d="M20.1881 31.0898C20.5274 31.0578 20.8658 31.0652 21.2058 31.0668C22.8641 31.0644 24.5215 31.0742 26.1797 31.0627C26.216 31.3039 26.2451 31.5442 26.3211 31.7771C25.9576 31.7 25.6119 31.7369 25.2444 31.7312C23.6072 31.7254 21.9683 31.7402 20.3311 31.723C20.3037 31.5081 20.2229 31.3047 20.1881 31.0898Z" fill="#161613"/>
<path d="M65.5835 31.3736C65.8419 31.3941 66.0972 31.4031 66.3565 31.3966C67.8644 31.3966 69.3716 31.3949 70.8796 31.3949C71.0912 31.4039 71.3674 31.3457 71.55 31.4687C71.5023 31.6713 71.4781 31.8763 71.4199 32.0765C71.1049 32.0437 70.7915 32.0486 70.4757 32.0527C68.9678 32.051 67.4606 32.0494 65.9526 32.0543C65.7725 32.0543 65.5932 32.0437 65.4139 32.0322C65.4688 31.8124 65.5366 31.5967 65.5835 31.3736Z" fill="#161613"/>
<path d="M52.6586 31.5146C53.2894 31.9707 53.9299 32.4144 54.5632 32.872C55.5736 33.5454 56.4338 34.0966 57.4838 34.7043C57.4539 34.7946 57.4095 34.8774 57.3643 34.9602C57.4612 35.1136 57.4628 35.1407 57.3651 35.2932C57.4644 35.4417 57.4604 35.4712 57.3659 35.6197C57.462 35.7616 57.4604 35.8099 57.3635 35.9494C57.4644 36.0945 57.4612 36.1282 57.3659 36.275C57.4604 36.4243 57.4636 36.4538 57.3651 36.6031C57.4604 36.7523 57.4636 36.781 57.3659 36.9303C57.4822 37.1108 57.4499 37.2633 57.3659 37.4397C57.4733 37.5774 57.4531 37.6111 57.3659 37.7513C57.4596 37.8998 57.4652 37.9301 57.3651 38.0786C57.4612 38.2295 57.4628 38.2574 57.3659 38.4091C57.4653 38.56 57.4588 38.5887 57.3651 38.7396C57.4184 38.8364 57.4531 38.9234 57.4644 39.0349C55.723 38.679 54.1585 37.9309 52.5964 37.0976C52.6101 36.9467 52.6263 36.7966 52.6279 36.6449C52.6206 35.1686 52.6279 33.6922 52.6238 32.2159C52.6182 31.9797 52.6263 31.7492 52.6586 31.5146Z" fill="#161613"/>
<path d="M20.3311 31.723C21.9683 31.7402 23.6072 31.7254 25.2444 31.7312C25.6119 31.7369 25.9576 31.7 26.3211 31.7771C26.4269 32.1134 26.5003 32.4357 26.6554 32.7548C26.3986 32.7097 26.1514 32.6949 25.8905 32.7072C24.1556 32.7097 22.4198 32.7006 20.6849 32.7187C20.6558 32.5538 20.5791 32.4201 20.5015 32.2758C20.4587 32.0871 20.3812 31.9067 20.3311 31.723Z" fill="#161613"/>
<path d="M46.3868 31.8042C47.9545 31.8058 49.5231 31.8075 51.0908 31.8042C51.2362 31.8067 51.3808 31.814 51.5262 31.8222C51.443 32.5005 51.3477 33.1731 51.321 33.8563C51.2911 34.1884 51.3081 34.5223 51.2693 34.8528C49.6353 34.8257 47.999 34.8487 46.365 34.8413C46.365 34.3008 46.365 33.7603 46.3666 33.2198C46.3803 32.7482 46.3698 32.2766 46.3868 31.8042Z" fill="#161613"/>
<path d="M37.6402 32.015C37.7622 32.0338 37.8841 32.0461 38.0061 32.0527C39.7023 32.0535 41.3984 32.0511 43.0946 32.0527C43.4112 32.0502 43.7254 32.0404 44.0404 32.0798C43.6301 32.9319 43.139 33.6291 42.5784 34.3812C42.4629 34.3435 42.3547 34.2934 42.2457 34.2409C42.0979 34.3394 42.0704 34.3369 41.9226 34.2401C41.7764 34.3402 41.7473 34.3385 41.6019 34.2401C41.4541 34.3369 41.4259 34.3402 41.278 34.2401C41.1286 34.3394 41.102 34.3377 40.9525 34.2401C40.8055 34.3418 40.7765 34.3353 40.6295 34.2401C40.4849 34.3402 40.4542 34.3385 40.3096 34.2401C40.1602 34.3377 40.1335 34.3394 39.9841 34.2401C39.8363 34.3402 39.8088 34.3377 39.661 34.2409C39.514 34.3394 39.4866 34.3377 39.3396 34.2409C39.1909 34.3377 39.1635 34.3385 39.0149 34.2409C38.8687 34.3385 38.8404 34.3394 38.6934 34.2409C38.5464 34.3369 38.5173 34.3402 38.3711 34.2401C38.2217 34.3385 38.195 34.3385 38.0456 34.2409C37.8978 34.341 37.8695 34.3369 37.7217 34.2401C37.5755 34.341 37.5473 34.3369 37.4003 34.2409C37.2533 34.3377 37.225 34.3402 37.078 34.2401C36.931 34.3361 36.9011 34.3418 36.7557 34.2401C36.6055 34.3385 36.5796 34.3385 36.4294 34.2401C36.284 34.3394 36.2549 34.3394 36.1104 34.2401C35.9617 34.3361 35.9343 34.341 35.7857 34.2409C35.6395 34.3295 35.5135 34.3894 35.4553 34.1647C36.1411 33.652 36.7202 33.0328 37.3179 32.4209C37.4318 32.2864 37.511 32.1364 37.6402 32.015Z" fill="#161613"/>
<path d="M65.4139 32.0322C65.5932 32.0437 65.7725 32.0543 65.9526 32.0543C67.4606 32.0494 68.9678 32.051 70.4757 32.0527C70.7915 32.0486 71.1049 32.0437 71.4199 32.0765C71.365 32.293 71.3198 32.5104 71.2406 32.7203C69.6406 32.69 68.0381 32.7187 66.4372 32.7072C66.0132 32.7031 65.5932 32.7269 65.1699 32.6851C65.2337 32.4653 65.3137 32.238 65.4139 32.0322Z" fill="#161613"/>
<path d="M20.6849 32.7187C22.4198 32.7006 24.1556 32.7097 25.8905 32.7072C26.1514 32.6949 26.3986 32.7097 26.6554 32.7548C26.7645 33.096 26.9688 33.365 27.128 33.675C26.5262 33.7193 25.9277 33.6767 25.3252 33.6947C24.087 33.6816 22.8471 33.7078 21.6089 33.6873C21.4643 33.6857 21.3634 33.6914 21.243 33.7825C21.1841 33.6357 21.1106 33.5192 21.0161 33.3937C20.9078 33.1673 20.7972 32.9426 20.6849 32.7187Z" fill="#161613"/>
<path d="M65.1311 32.7261L65.1699 32.6851C65.5932 32.7269 66.0132 32.7031 66.4372 32.7072C68.0381 32.7187 69.6406 32.69 71.2406 32.7203C71.1534 32.9401 71.1081 33.1813 71.008 33.3937C70.6146 33.3535 70.2237 33.3748 69.8295 33.3707C68.3223 33.3707 66.8136 33.3691 65.3064 33.3716C65.1562 33.3699 65.0083 33.3552 64.8589 33.342C64.884 33.146 65.0641 32.9278 65.1311 32.7261Z" fill="#161613"/>
<path d="M64.8589 33.342C65.0083 33.3552 65.1562 33.3699 65.3064 33.3716C66.8136 33.3691 68.3223 33.3707 69.8295 33.3707C70.2237 33.3748 70.6146 33.3535 71.008 33.3937C70.9401 33.5331 70.8602 33.6488 70.8327 33.7989C70.697 34.0622 70.5678 34.2647 70.4458 34.542C70.1849 34.5124 69.9305 34.5034 69.668 34.51C68.0801 34.5116 66.4905 34.5116 64.9026 34.5116C64.6175 34.5182 64.3364 34.5231 64.0545 34.4739C64.1797 34.3689 64.2209 34.2131 64.3364 34.1023C64.5407 33.8809 64.6497 33.5495 64.8589 33.342Z" fill="#161613"/>
<path d="M21.6089 33.6873C22.8471 33.7078 24.087 33.6816 25.3252 33.6947C25.9277 33.6767 26.5262 33.7193 27.128 33.675C27.38 34.0843 27.7014 34.4567 28.0301 34.8044C27.7991 34.838 27.577 34.8503 27.3444 34.8421C25.729 34.8348 24.1127 34.8438 22.4973 34.8364C22.3633 34.8331 22.2655 34.8512 22.1436 34.9069C21.7922 34.5666 21.529 34.1778 21.243 33.7825C21.3634 33.6914 21.4643 33.6857 21.6089 33.6873Z" fill="#161613"/>
<path d="M35.4553 34.1647C35.5135 34.3894 35.6395 34.3295 35.7857 34.2409C35.9343 34.341 35.9617 34.3361 36.1104 34.2401C36.2549 34.3394 36.284 34.3394 36.4294 34.2401C36.5796 34.3385 36.6055 34.3385 36.7557 34.2401C36.9011 34.3418 36.931 34.3361 37.078 34.2401C37.225 34.3402 37.2533 34.3377 37.4003 34.2409C37.5473 34.3369 37.5755 34.341 37.7217 34.2401C37.8695 34.3369 37.8978 34.341 38.0456 34.2409C38.195 34.3385 38.2217 34.3385 38.3711 34.2401C38.5173 34.3402 38.5464 34.3369 38.6934 34.2409C38.8404 34.3394 38.8687 34.3385 39.0149 34.2409C39.1635 34.3385 39.1909 34.3377 39.3396 34.2409C39.4866 34.3377 39.514 34.3394 39.661 34.2409C39.8088 34.3377 39.8363 34.3402 39.9841 34.2401C40.1335 34.3394 40.1602 34.3377 40.3096 34.2401C40.4542 34.3385 40.4849 34.3402 40.6295 34.2401C40.7765 34.3353 40.8055 34.3418 40.9525 34.2401C41.102 34.3377 41.1286 34.3394 41.278 34.2401C41.4259 34.3402 41.4541 34.3369 41.6019 34.2401C41.7473 34.3385 41.7764 34.3402 41.9226 34.2401C42.0704 34.3369 42.0979 34.3394 42.2457 34.2409C42.3547 34.2934 42.4629 34.3435 42.5784 34.3812C42.5098 34.4517 42.4347 34.5198 42.3741 34.5977C42.0898 35.0021 41.7094 35.3318 41.3637 35.6968C41.0527 35.6443 40.7426 35.6599 40.4292 35.6615C38.141 35.6623 35.852 35.6599 33.5637 35.6623C33.4192 35.6615 33.2762 35.6476 33.1324 35.6344C33.9555 35.2375 34.734 34.7289 35.4553 34.1647Z" fill="#161613"/>
<path d="M64.0545 34.4739C64.3364 34.5231 64.6175 34.5182 64.9026 34.5116C66.4905 34.5116 68.0801 34.5116 69.668 34.51C69.9305 34.5034 70.1849 34.5124 70.4458 34.542C70.3529 34.6141 70.3207 34.6994 70.273 34.8028C70.0727 34.9668 70.0016 35.2079 69.7932 35.3703C69.6438 35.3507 69.496 35.331 69.345 35.3293C67.4606 35.3384 65.5754 35.3302 63.691 35.3359C63.5416 35.3351 63.3946 35.3146 63.2468 35.2982C63.5384 35.0423 63.7896 34.756 64.0545 34.4739Z" fill="#161613"/>
<path d="M57.4838 34.7043C58.2108 35.0529 58.8674 35.4548 59.6138 35.714C60.1073 35.9355 60.6323 36.0954 61.146 36.2635C61.3156 36.2816 61.5046 36.3997 61.6694 36.357C61.7122 36.4103 61.7703 36.4473 61.8446 36.4661C62.112 36.5317 62.3842 36.5826 62.6564 36.6211C62.5497 36.7335 62.4415 36.8442 62.3325 36.9533C62.4286 36.9656 62.5247 36.9787 62.6208 36.9919C62.6523 37.078 62.3906 37.046 62.3381 37.0706C62.3826 37.1362 62.4989 37.2051 62.4771 37.2904C62.4318 37.3445 62.3858 37.3978 62.3381 37.4495C62.3906 37.4741 62.6539 37.4421 62.6208 37.5291C62.5263 37.5414 62.4318 37.552 62.3373 37.5619C62.3704 37.5963 62.4036 37.6308 62.4367 37.6652C62.4044 37.7038 62.3712 37.7423 62.3389 37.7801C62.4351 37.7899 62.532 37.7997 62.6281 37.8112C62.5312 37.9096 62.4294 38.004 62.3317 38.1016C62.385 38.127 62.6499 38.0991 62.6208 38.1852C62.5271 38.1975 62.4334 38.2082 62.3389 38.2172C62.3721 38.2541 62.4044 38.2918 62.4359 38.3304C62.4028 38.3657 62.3704 38.4009 62.3373 38.4354C62.4342 38.4452 62.5312 38.4559 62.6281 38.4674C62.5312 38.5658 62.4294 38.6601 62.3317 38.7577C62.3842 38.7831 62.6531 38.7553 62.62 38.8414C62.5271 38.8537 62.4326 38.8643 62.3389 38.8734C62.3721 38.9111 62.4044 38.9496 62.4367 38.9874C62.4044 39.0202 62.3721 39.0522 62.3397 39.085C62.4746 39.1096 62.5796 39.1112 62.6725 39.2301C61.7962 39.3605 60.9424 39.2949 60.0564 39.3105C59.1905 39.3351 58.3125 39.2071 57.4644 39.0349C57.4531 38.9234 57.4184 38.8364 57.3651 38.7396C57.4588 38.5887 57.4653 38.56 57.3659 38.4091C57.4628 38.2574 57.4612 38.2295 57.3651 38.0786C57.4652 37.9301 57.4596 37.8998 57.3659 37.7513C57.4531 37.6111 57.4733 37.5774 57.3659 37.4397C57.4499 37.2633 57.4822 37.1108 57.3659 36.9303C57.4636 36.781 57.4604 36.7523 57.3651 36.6031C57.4636 36.4538 57.4604 36.4243 57.3659 36.275C57.4612 36.1282 57.4644 36.0945 57.3635 35.9494C57.4604 35.8099 57.462 35.7616 57.3659 35.6197C57.4604 35.4712 57.4644 35.4417 57.3651 35.2932C57.4628 35.1407 57.4612 35.1136 57.3643 34.9602C57.4095 34.8774 57.4539 34.7946 57.4838 34.7043Z" fill="#161613"/>
<path d="M22.4973 34.8364C24.1127 34.8438 25.729 34.8348 27.3444 34.8421C27.577 34.8503 27.7991 34.838 28.0301 34.8044C28.161 34.9504 28.3371 35.0341 28.4744 35.1694C28.6327 35.3605 28.9154 35.4417 29.0769 35.6229C28.8233 35.6664 28.5705 35.6697 28.3137 35.6615C26.7742 35.6607 25.2509 35.6631 23.7098 35.6582C23.4941 35.6689 23.2784 35.609 23.1008 35.755C22.9901 35.6648 22.8924 35.5516 22.7728 35.4745C22.5289 35.3408 22.3665 35.0759 22.1436 34.9069C22.2655 34.8512 22.3633 34.8331 22.4973 34.8364Z" fill="#161613"/>
<path d="M46.365 34.8413C47.999 34.8487 49.6353 34.8257 51.2693 34.8528C51.2524 35.2038 51.2653 35.5557 51.2507 35.9067C51.2532 36.0617 51.2289 36.2045 51.2976 36.3472C51.2604 36.4087 51.2451 36.4801 51.2508 36.5604C51.254 37.1354 51.2532 37.7095 51.2516 38.2845C49.6225 38.2869 47.9933 38.282 46.3642 38.2869C46.3634 37.1387 46.3682 35.9896 46.365 34.8413Z" fill="#161613"/>
<path d="M63.2468 35.2982C63.3946 35.3146 63.5416 35.3351 63.691 35.3359C65.5754 35.3302 67.4606 35.3384 69.345 35.3293C69.496 35.331 69.6438 35.3507 69.7932 35.3703L69.748 35.4187C69.4055 35.7804 68.9863 36.0453 68.53 36.2315C66.6496 36.8532 64.5997 36.9533 62.6564 36.6211C62.3842 36.5826 62.112 36.5317 61.8446 36.4661C61.7703 36.4473 61.7122 36.4103 61.6694 36.357C62.242 36.0888 62.7759 35.7238 63.2468 35.2982Z" fill="#161613"/>
<path d="M69.748 35.4187C69.6583 35.5951 69.5202 35.7361 69.4176 35.9051C69.0105 36.3505 68.5792 36.8204 68.0849 37.1674C66.543 38.355 64.5803 39.0046 62.6725 39.2301C62.5796 39.1112 62.4746 39.1096 62.3397 39.085C62.3721 39.0522 62.4044 39.0202 62.4367 38.9874C62.4044 38.9496 62.3721 38.9111 62.3389 38.8734C62.4326 38.8643 62.5271 38.8537 62.62 38.8414C62.6531 38.7553 62.3842 38.7831 62.3317 38.7577C62.4294 38.6601 62.5312 38.5658 62.6281 38.4674C62.5312 38.4559 62.4342 38.4452 62.3373 38.4354C62.3704 38.4009 62.4028 38.3657 62.4359 38.3304C62.4044 38.2918 62.3721 38.2541 62.3389 38.2172C62.4334 38.2082 62.5271 38.1975 62.6208 38.1852C62.6499 38.0991 62.385 38.127 62.3317 38.1016C62.4294 38.004 62.5312 37.9096 62.6281 37.8112C62.532 37.7997 62.4351 37.7899 62.3389 37.7801C62.3712 37.7423 62.4044 37.7038 62.4367 37.6652C62.4036 37.6308 62.3704 37.5963 62.3373 37.5619C62.4318 37.552 62.5263 37.5414 62.6208 37.5291C62.6539 37.4421 62.3906 37.4741 62.3381 37.4495C62.3858 37.3978 62.4318 37.3445 62.4771 37.2904C62.4989 37.2051 62.3826 37.1362 62.3381 37.0706C62.3906 37.046 62.6523 37.078 62.6208 36.9919C62.5247 36.9787 62.4286 36.9656 62.3325 36.9533C62.4415 36.8442 62.5497 36.7335 62.6564 36.6211C64.5997 36.9533 66.6496 36.8532 68.53 36.2315C68.9863 36.0453 69.4055 35.7804 69.748 35.4187Z" fill="#161613"/>
<path d="M23.7098 35.6582C25.2509 35.6631 26.7742 35.6607 28.3137 35.6615C28.5705 35.6697 28.8233 35.6664 29.0769 35.6229C29.2215 35.7033 29.3814 35.7402 29.4848 35.8649C29.5906 35.9682 29.7199 35.901 29.803 36.0248C29.9807 36.0322 30.0962 36.1716 30.2683 36.1987C30.5445 36.2824 30.824 36.4111 31.1107 36.4472L31.0833 36.5022C30.5639 36.8188 29.8709 36.9377 29.2837 37.0443C27.8072 37.2166 26.3138 37.0419 24.8971 36.5891C24.5885 36.5038 24.3091 36.389 24.0255 36.2414C23.8075 36.1725 23.6483 36.0052 23.4238 35.9723C23.322 35.8895 23.2122 35.8222 23.1008 35.755C23.2784 35.609 23.4941 35.6689 23.7098 35.6582Z" fill="#161613"/>
<path d="M33.1324 35.6344C33.2762 35.6476 33.4192 35.6615 33.5637 35.6623C35.852 35.6599 38.141 35.6623 40.4292 35.6615C40.7426 35.6599 41.0527 35.6443 41.3637 35.6968C40.4211 36.6285 39.3065 37.4134 38.1256 38.0007C37.8155 37.9326 37.5126 37.9588 37.1984 37.9572C33.9409 37.9556 30.6826 37.9572 27.4252 37.9564C27.1691 37.9523 26.9171 37.9441 26.6651 38.0007C26.2112 37.8588 25.8413 37.5815 25.4196 37.3708C25.2088 37.2846 25.0691 37.1181 24.8502 37.041C24.4932 36.7753 24.0999 36.5498 23.7517 36.2709C23.6362 36.1282 23.4561 36.1618 23.4238 35.9723C23.6483 36.0052 23.8075 36.1725 24.0255 36.2414C24.3091 36.389 24.5885 36.5038 24.8971 36.5891C26.3138 37.0419 27.8072 37.2166 29.2837 37.0443C29.8709 36.9377 30.5639 36.8188 31.0833 36.5022C31.7932 36.2651 32.4725 35.997 33.1324 35.6344Z" fill="#161613"/>
<path d="M26.6651 38.0007C26.9171 37.9441 27.1691 37.9523 27.4252 37.9564C30.6826 37.9572 33.9409 37.9556 37.1984 37.9572C37.5126 37.9588 37.8155 37.9326 38.1256 38.0007C34.9804 39.5803 31.2755 39.7034 27.9752 38.5428C27.535 38.373 27.0771 38.2328 26.6651 38.0007Z" fill="#161613"/>
<path d="M46.3642 38.2869C47.9933 38.282 49.6225 38.2869 51.2516 38.2845C51.2492 39.2687 51.2548 40.2529 51.2524 41.2371C49.6233 41.2396 47.9933 41.2355 46.3642 41.2388C46.3634 40.2545 46.3682 39.2711 46.3642 38.2869Z" fill="#161613"/>
<path d="M46.3642 41.2388C47.9933 41.2355 49.6233 41.2396 51.2524 41.2371C51.2492 42.0573 51.2548 42.8775 51.2524 43.6977C49.6232 43.6985 47.9941 43.6968 46.365 43.6993C46.3642 42.8791 46.3682 42.0589 46.3642 41.2388Z" fill="#161613"/>
<path d="M46.365 43.6993C47.9941 43.6968 49.6232 43.6985 51.2524 43.6977C51.2395 44.3546 51.2758 45.0182 51.2354 45.6727C49.6119 45.6612 47.9884 45.6694 46.365 45.6677C46.3642 45.0116 46.3682 44.3555 46.365 43.6993Z" fill="#161613"/>
<path d="M46.365 45.6677C47.9884 45.6694 49.6119 45.6612 51.2354 45.6727C51.2281 46.3263 51.2362 46.98 51.2338 47.6337C49.6313 47.6444 48.0281 47.6206 46.4256 47.646C46.3262 46.9809 46.3795 46.3452 46.365 45.6677Z" fill="#161613"/>
<path d="M46.4256 47.646C48.0281 47.6206 49.6313 47.6444 51.2338 47.6337C51.2306 48.285 51.2354 48.9362 51.2338 49.5882C51.0787 49.6005 51.0028 49.6161 50.8873 49.717C50.7346 49.548 50.3954 49.5472 50.2436 49.7178C50.0909 49.5489 49.7484 49.5456 49.5982 49.7186C49.4455 49.5497 49.1031 49.5456 48.952 49.7186C48.8002 49.5497 48.4553 49.5448 48.3067 49.7195C48.1508 49.548 47.8108 49.5464 47.6565 49.7195C47.6129 49.6834 47.5692 49.6465 47.5256 49.6096C47.436 49.6137 47.3471 49.6219 47.2575 49.6325C46.7866 49.051 46.533 48.3867 46.4256 47.646Z" fill="#161613"/>
<path d="M47.2575 49.6325C47.3471 49.6219 47.436 49.6137 47.5256 49.6096C47.5692 49.6465 47.6129 49.6834 47.6565 49.7195C47.8108 49.5464 48.1508 49.548 48.3067 49.7195C48.4553 49.5448 48.8002 49.5497 48.952 49.7186C49.1031 49.5456 49.4455 49.5497 49.5982 49.7186C49.7484 49.5456 50.0909 49.5489 50.2436 49.7178C50.3954 49.5472 50.7346 49.548 50.8873 49.717C51.0028 49.6161 51.0787 49.6005 51.2338 49.5882C51.229 50.0336 51.2378 50.479 51.2306 50.9243L51.1902 50.9981C50.7459 50.9924 50.3195 51.0219 49.8793 50.9571C48.8971 50.83 47.8996 50.4207 47.2575 49.6325Z" fill="#161613"/>
</svg>
