<svg width="240" height="56" viewBox="0 0 240 56" fill="none" xmlns="http://www.w3.org/2000/svg">
<path d="M101.934 23.241V38.5871C101.43 39.254 100.767 39.5874 100.266 39.9209C99.5995 40.2543 98.9288 40.4248 98.2657 40.4248C97.2654 40.4248 96.5947 40.0914 96.0945 39.4207C95.5943 38.9205 95.2609 38.0869 95.2609 36.9199V23.241H88.7549V36.9199C88.7549 38.2537 88.9216 39.2578 89.2551 40.2543C89.5923 41.2547 90.0887 42.0921 90.7556 42.9219C91.2557 43.5888 92.0894 44.2557 93.0897 44.5929C93.9271 45.0931 94.9274 45.2598 96.0945 45.2598C96.9281 45.2598 97.595 45.0931 98.0952 45.0931C98.7621 44.9264 99.2623 44.7596 99.7624 44.4262C100.266 44.2557 100.763 43.926 101.263 43.5926C101.596 43.2591 102.097 42.9257 102.43 42.5922L102.93 43.7593C103.097 44.5967 103.597 44.9264 104.431 44.9264H108.436V23.241H101.934V23.241Z" fill="#161613"/>
<path d="M126.121 13.5665V24.574C125.454 24.0738 124.783 23.5737 123.949 23.2402C123.116 22.9068 122.282 22.7401 121.115 22.7401C119.781 22.7401 118.448 23.0735 117.277 23.5737C116.11 24.2406 115.106 25.0742 114.442 26.0745C113.609 27.0749 112.942 28.2457 112.442 29.5795C112.108 31.08 111.775 32.5843 111.775 34.0848C111.775 35.9187 111.942 37.4193 112.442 38.753C112.775 40.2535 113.275 41.4244 114.109 42.258C114.776 43.2583 115.61 43.929 116.61 44.4292C117.447 44.9294 118.611 45.2628 119.615 45.2628C120.448 45.2628 121.115 45.0923 121.782 45.0923C122.449 44.9294 122.949 44.5921 123.449 44.4292C124.116 44.0957 124.616 43.7585 125.117 43.4289C125.45 43.0916 125.95 42.5952 126.45 42.0951L126.95 43.7623C127.117 44.5959 127.617 44.9331 128.451 44.9331H132.456V13.5703H126.121V13.5665ZM126.121 38.2566C125.787 38.5901 125.454 38.9235 125.12 39.0941C124.954 39.4275 124.62 39.5942 124.287 39.7609C123.953 39.9277 123.62 40.0944 123.286 40.0944C122.786 40.2611 122.453 40.2611 121.953 40.2611C121.452 40.2611 120.948 40.0944 120.615 39.9277C120.115 39.7609 119.785 39.4275 119.448 38.9273C119.114 38.4272 118.948 37.7603 118.781 37.0934C118.614 36.2598 118.448 35.2556 118.448 34.0924C118.448 32.9215 118.611 31.9212 118.781 31.0876C118.948 30.2502 119.281 29.5871 119.615 29.0869C120.115 28.5867 120.448 28.0866 120.948 27.916C121.452 27.7531 122.116 27.5826 122.619 27.5826C123.286 27.5826 123.953 27.5826 124.453 27.916C124.954 28.0828 125.62 28.4162 126.124 29.0869V38.2566H126.121Z" fill="#161613"/>
<path d="M137.63 28.2474C137.797 28.5809 138.13 28.7514 138.297 29.0811C138.631 29.2478 138.964 29.4183 139.464 29.4183C139.964 29.4183 140.465 29.2478 140.798 29.0811C141.132 28.9143 141.465 28.7476 141.961 28.5809C142.299 28.4142 142.799 28.0807 143.132 27.914C143.632 27.7473 144.299 27.7473 145.133 27.7473C146.133 27.7473 146.8 28.0807 147.3 28.5809C147.8 29.0811 148.134 30.0814 148.134 31.419V32.2526C145.633 32.2526 143.632 32.586 141.961 33.0862C140.294 33.4197 138.96 34.0865 137.96 34.7534C137.126 35.4203 136.459 36.0872 135.959 36.9208C135.626 37.7544 135.459 38.4213 135.459 39.2588C135.459 40.2591 135.626 41.0927 135.959 41.7596C136.13 42.5932 136.63 43.2601 137.126 43.7603C137.793 44.2642 138.464 44.5977 139.298 44.9273C140.131 45.0941 140.965 45.2608 141.965 45.2608C142.632 45.2608 143.303 45.2608 143.966 45.0941C144.633 44.9273 145.137 44.7568 145.637 44.5939C146.304 44.2604 146.804 43.9232 147.304 43.5898C147.804 43.2563 148.304 42.9229 148.805 42.4227L149.305 43.5898C149.475 44.0899 149.809 44.4234 150.138 44.5939C150.305 44.7568 150.805 44.9273 151.472 44.9273H154.473V31.4152C154.473 30.0814 154.303 28.9105 153.806 27.9102C153.469 26.9099 152.973 25.9095 152.139 25.2426C151.472 24.409 150.468 23.9089 149.471 23.4049C148.471 22.9047 147.3 22.738 145.966 22.738C144.133 22.738 142.465 23.0714 140.798 23.5754C139.127 24.2423 137.793 25.0759 136.459 26.243L137.63 28.2474ZM148.141 39.092C147.475 39.7589 146.808 40.2591 146.141 40.5925C145.641 40.7593 144.807 40.926 143.97 40.926C143.303 40.926 142.636 40.7593 142.302 40.422C141.802 40.2553 141.632 39.7551 141.632 38.9215C141.632 38.5881 141.798 38.2546 141.965 37.9212C142.136 37.5877 142.469 37.2543 142.965 37.0876C143.469 36.7541 144.133 36.5874 144.966 36.4207C145.8 36.2539 146.804 36.0872 148.134 36.0872V39.092H148.141Z" fill="#161613"/>
<path d="M159.326 28.2474C159.497 28.5809 159.66 28.7514 159.989 29.0811C160.327 29.2478 160.656 29.4183 161.16 29.4183C161.66 29.4183 162.16 29.2478 162.498 29.0811L163.494 28.5809C163.994 28.4142 164.324 28.0807 164.828 27.914C165.324 27.7473 165.995 27.7473 166.829 27.7473C167.659 27.7473 168.492 28.0807 168.996 28.5809C169.5 29.0811 169.83 30.0814 169.83 31.419V32.2526C167.325 32.2526 165.158 32.586 163.657 33.0862C161.986 33.4197 160.652 34.0865 159.656 34.7534C158.822 35.4203 158.155 36.0872 157.655 36.9208C157.322 37.7544 157.159 38.4213 157.159 39.2588C157.159 40.2591 157.322 41.0927 157.492 41.7596C157.826 42.5932 158.326 43.2601 158.826 43.7603C159.497 44.2642 160.164 44.5977 160.997 44.9273C161.664 45.0941 162.664 45.2608 163.665 45.2608C164.332 45.2608 164.999 45.2608 165.669 45.0941C166.336 44.9273 166.836 44.7568 167.333 44.5939C167.837 44.2604 168.5 43.9232 169.004 43.5898C169.508 43.2563 170.004 42.9229 170.504 42.4227L171.004 43.5898C171.175 44.0899 171.505 44.4234 171.675 44.5939C172.009 44.7568 172.509 44.9273 173.176 44.9273H176.177V31.4152C176.177 30.0814 175.843 28.9105 175.51 27.9102C175.176 26.9099 174.509 25.9095 173.842 25.2426C173.176 24.409 172.175 23.9089 171.179 23.4049C170.175 22.9047 169.008 22.738 167.67 22.738C165.836 22.738 164.002 23.0714 162.505 23.5754C160.834 24.2423 159.501 25.0759 158.167 26.243L159.326 28.2474ZM169.834 39.092C169.167 39.7589 168.496 40.2591 167.833 40.5925C167.329 40.7593 166.499 40.926 165.665 40.926C164.832 40.926 164.328 40.7593 163.828 40.422C163.494 40.2553 163.328 39.7551 163.328 38.9215C163.328 38.5881 163.328 38.2546 163.494 37.9212C163.828 37.5877 164.161 37.2543 164.661 37.0876C165.162 36.7541 165.662 36.5874 166.662 36.4207C167.496 36.2539 168.496 36.0872 169.83 36.0872V39.092H169.834Z" fill="#161613"/>
<path d="M185.842 24.247C185.675 23.5801 185.009 23.2467 184.342 23.2467H180.174V44.932H186.68V29.4192C187.346 28.919 187.85 28.4189 188.514 28.2521C189.18 27.9187 189.851 27.7482 190.514 27.7482C191.515 27.7482 192.181 28.0816 192.682 28.5818C193.182 29.2487 193.352 30.0823 193.352 31.0826V44.9282H199.854V31.0864C199.854 29.9194 199.691 28.7523 199.354 27.7482C199.188 26.7478 198.687 25.9142 198.024 25.2473C197.354 24.4137 196.687 23.9136 195.69 23.4134C194.857 23.0799 193.686 22.9132 192.522 22.9132C191.852 22.9132 191.185 22.9132 190.685 23.0799C190.018 23.2467 189.518 23.4134 189.017 23.5801C188.513 23.9174 188.017 24.0803 187.517 24.4137C187.017 24.7472 186.683 25.0844 186.183 25.5808L185.842 24.247Z" fill="#161613"/>
<path d="M59.8302 8.89783L58.6593 9.06455L57.8257 9.22749L55.825 9.72765L54.8247 10.0649L54.4875 10.2316L53.9873 10.3945L53.3204 10.7318L52.824 10.8985L51.8237 11.3987L51.657 11.5616L50.9863 11.8988L50.8196 12.0694L50.1565 12.399L49.8192 12.7325L49.4858 12.8992L48.9856 13.3993L48.6522 13.5661L47.9853 14.233L47.6518 14.3997L46.9849 15.0666L46.6515 15.2371L46.4848 15.5705L45.8179 16.2336L45.6512 16.5671L44.9805 17.2378L44.8175 17.5712L44.1469 18.2381L43.9801 18.5715L43.8134 18.7383L43.48 19.4052L43.3132 19.5719L43.1465 19.9053L42.9798 20.0721L41.9795 22.0727L41.6422 23.0731L41.4793 23.4103L41.1421 24.4069L40.6419 26.4113L40.479 27.2487L40.3122 28.412L40.1455 30.9166L40.3122 31.0796V33.5842H40.479V34.7512H40.6419V35.5849H40.8124V36.2555H40.9791V36.9186H41.1421V37.5893H41.3126V38.0857H41.4793V38.5897H41.6422V38.9231H41.8127V39.4233H41.9795V39.9235H42.1462V40.2569H42.3129V40.5903H42.4758V40.9238H42.6464V41.2572H42.8131V41.5907H42.9798V41.9241H43.1465L43.3132 42.0946V42.4243H43.48L43.6467 42.591V42.9245H43.8134V43.2617H43.9801L44.1469 43.4284V43.7619H44.3136L44.9805 44.4288V44.7584H45.151L45.8179 45.4291V45.7625H45.9808L46.6515 46.4294V46.7667H46.9849L47.6518 47.4298L47.9853 47.5965L48.6522 48.2634L48.9856 48.4301L49.4858 48.9303L49.8192 49.1008L50.1565 49.4304L50.8196 49.7639L50.9863 49.9344L51.657 50.2679L51.8237 50.4346L52.824 50.931L53.3204 51.1015L53.9873 51.4349L54.4875 51.6016L54.8247 51.7684L55.825 52.1018L57.8257 52.602L58.6593 52.7687L59.8302 52.9354L65.1691 53.1021V52.9354L67.1698 52.602L68.0034 52.4353L68.9999 52.1018L69.6706 51.9313L70.1708 51.7684L70.5042 51.6016L71.0044 51.4349L71.6713 51.1015L72.1753 50.931L72.8422 50.5975L73.0051 50.4346L74.3389 49.7639L74.5056 49.601L74.8428 49.4304L75.1763 49.1008L75.5097 48.9303L75.6727 48.7673L76.0099 48.5968L76.3471 48.2634L76.6768 48.0967L77.8438 46.9296L78.1773 46.7667L78.3478 46.5962L78.5107 46.2627L79.6816 45.0957L79.8445 44.7584L80.015 44.5955L80.178 44.262L80.3447 44.0915L80.5114 43.7619L80.6819 43.5914L80.8449 43.2617L81.0116 43.0912L81.1783 42.7577L81.3488 42.591L81.5155 42.2576L81.6823 42.0946L82.5159 40.4236L82.6826 39.9235L83.3495 38.5897L83.6867 37.2559L83.8497 36.7557L84.3498 34.7512L84.5166 33.5842L84.6871 28.412H84.5166V27.2487H84.3498V26.578H84.1831V25.9111H84.0164V25.2443H83.8497V24.7441H83.6867V24.0734H83.5162V23.4103H83.3495V23.0731H83.1828V22.7434H83.016V22.4062H82.8493V22.0727H82.6826V21.5726H82.5159V21.2391H82.3454V20.9057H82.1824V20.5722H82.0119V20.2388H81.849V19.9053L81.6823 19.7386H81.5155V19.4052L81.3488 19.2384H81.1783V18.905L81.0116 18.7383H80.8449V18.4048L80.6819 18.2381H80.5114V17.9047L80.3447 17.7379H80.178V17.4045L80.015 17.2378H79.8445V16.9043L78.6775 15.7335H78.5107V15.4L78.1773 15.0666L77.8438 14.8999L76.6768 13.7328L76.3471 13.5661L76.0099 13.2326L75.6727 13.0659L75.5097 12.8992L75.1763 12.7325L74.8428 12.399L74.5056 12.2323L74.3389 12.0694L73.0051 11.3987L72.8422 11.2319L72.1753 10.8985L71.6713 10.7318L71.0044 10.3945L70.5042 10.2316L70.1708 10.0649L69.6706 9.89438L68.9999 9.72765L68.0034 9.39421L67.1698 9.22749L65.1691 8.89783H59.8302Z" fill="#161613"/>
<path d="M59.8302 8.89783L58.6593 9.06455L57.8257 9.22749L55.825 9.72765L54.8247 10.0649L54.4875 10.2316L53.9873 10.3945L53.3204 10.7318L52.824 10.8985L51.8237 11.3987L51.657 11.5616L50.9863 11.8988L50.8196 12.0694L50.1565 12.399L49.8192 12.7325L49.4858 12.8992L48.9856 13.3993L48.6522 13.5661L47.9853 14.233L47.6518 14.3997L46.9849 15.0666L46.6515 15.2371L46.4848 15.5705L45.8179 16.2336L45.6512 16.5671L44.9805 17.2378L44.8175 17.5712L44.1469 18.2381L43.9801 18.5715L43.8134 18.7383L43.48 19.4052L43.3132 19.5719L43.1465 19.9053L42.9798 20.0721L41.9795 22.0727L41.6422 23.0731L41.4793 23.4103L41.1421 24.4069L40.6419 26.4113L40.479 27.2487L40.3122 28.412L40.1455 30.9166L40.3122 31.0796V33.5842H40.479V34.7512H40.6419V35.5849H40.8124V36.2555H40.9791V36.9186H41.1421V37.5893H41.3126V38.0857H41.4793V38.5897H41.6422V38.9231H41.8127V39.4233H41.9795V39.9235H42.1462V40.2569H42.3129V40.5903H42.4758V40.9238H42.6464V41.2572H42.8131V41.5907H42.9798V41.9241H43.1465L43.3132 42.0946V42.4243H43.48L43.6467 42.591V42.9245H43.8134V43.2617H43.9801L44.1469 43.4284V43.7619H44.3136L44.9805 44.4288V44.7584H45.151L45.8179 45.4291V45.7625H45.9808L46.6515 46.4294V46.7667H46.9849L47.6518 47.4298L47.9853 47.5965L48.6522 48.2634L48.9856 48.4301L49.4858 48.9303L49.8192 49.1008L50.1565 49.4304L50.8196 49.7639L50.9863 49.9344L51.657 50.2679L51.8237 50.4346L52.824 50.931L53.3204 51.1015L53.9873 51.4349L54.4875 51.6016L54.8247 51.7684L55.825 52.1018L57.8257 52.602L58.6593 52.7687L59.8302 52.9354L65.1691 53.1021V52.9354L67.1698 52.602L68.0034 52.4353L68.9999 52.1018L69.6706 51.9313L70.1708 51.7684L70.5042 51.6016L71.0044 51.4349L71.6713 51.1015L72.1753 50.931L72.8422 50.5975L73.0051 50.4346L74.3389 49.7639L74.5056 49.601L74.8428 49.4304L75.1763 49.1008L75.5097 48.9303L75.6727 48.7673L76.0099 48.5968L76.3471 48.2634L76.6768 48.0967L77.8438 46.9296L78.1773 46.7667L78.3478 46.5962L78.5107 46.2627L79.6816 45.0957L79.8445 44.7584L80.015 44.5955L80.178 44.262L80.3447 44.0915L80.5114 43.7619L80.6819 43.5914L80.8449 43.2617L81.0116 43.0912L81.1783 42.7577L81.3488 42.591L81.5155 42.2576L81.6823 42.0946L82.5159 40.4236L82.6826 39.9235L83.3495 38.5897L83.6867 37.2559L83.8497 36.7557L84.3498 34.7512L84.5166 33.5842L84.6871 28.412H84.5166V27.2487H84.3498V26.578H84.1831V25.9112H84.0164V25.2443H83.8497V24.7441H83.6867V24.0734H83.5162V23.4103H83.3495V23.0731H83.1828V22.7434H83.016V22.4062H82.8493V22.0727H82.6826V21.5726H82.5159V21.2391H82.3454V20.9057H82.1824V20.5722H82.0119V20.2388H81.849V19.9053L81.6823 19.7386H81.5155V19.4052L81.3488 19.2384H81.1783V18.905L81.0116 18.7383H80.8449V18.4048L80.6819 18.2381H80.5114V17.9047L80.3447 17.7379H80.178V17.4045L80.015 17.2378H79.8445V16.9043L78.6775 15.7335H78.5107V15.4L78.1773 15.0666L77.8438 14.8999L76.6768 13.7328L76.3471 13.5661L76.0099 13.2326L75.6727 13.0659L75.5097 12.8992L75.1763 12.7325L74.8428 12.399L74.5056 12.2323L74.3389 12.0694L73.0051 11.3987L72.8422 11.2319L72.1753 10.8985L71.6713 10.7318L71.0044 10.3945L70.5042 10.2316L70.1708 10.0649L69.6706 9.89438L68.9999 9.72765L68.0034 9.39421L67.1698 9.22749L65.1691 8.89783H59.8302Z" fill="#161613"/>
<path d="M56.4859 23.4844L56.1524 23.6511V24.1475H56.3191L57.4862 25.3146V25.6518H64.9926V23.8141L64.6591 23.4844H56.4859Z" fill="white"/>
<path d="M68.8389 23.4844V25.6518H72.8441V23.6511L72.5068 23.4844H68.8389Z" fill="white"/>
<path d="M53.4863 19.9903L53.3196 20.157V20.6572H53.4863L53.9865 21.1574V21.4908H54.157L54.6534 21.9948L64.9978 22.1615L65.498 22.3244L65.6685 22.495V22.8284H65.8352V23.4915H65.9981L65.8352 26.1629L65.6685 26.6668L65.498 26.9927L65.335 27.1632L59.6589 27.3299L59.3254 27.4966L59.4959 27.6634V27.9968H59.6589L60.1628 28.497V28.8342H60.3295L60.663 29.1639L63.3306 29.3306L63.6678 29.4973L63.8307 29.664L64.1642 29.8308L64.6643 30.3347L64.9978 30.5014L67.0023 32.5021V32.8356H67.169L67.3357 33.0023V33.3357H67.4986L67.6691 33.5025V33.8359H67.8359V34.3361H68.0026L67.8359 36.5073L67.6691 37.0036L67.3357 37.6705L66.3316 38.6746L65.6685 39.0081L65.498 39.1748L65.1645 39.3415L64.6643 39.5083L63.9975 39.675L63.1638 39.8379L60.9964 40.0084V39.8379L59.9923 39.675L59.4959 39.5083L58.4918 39.0081L58.3251 38.8414L57.9916 38.6746L57.8249 38.5041L57.4915 38.3412L56.1577 37.0036H55.991V36.674L55.6575 36.3367H55.4908V36.0033L55.3241 35.8366H55.1573V35.5031L54.9868 35.3402H54.8239V35.003L54.4905 34.6695L53.6568 34.5028L52.3193 34.1693H52.1526L51.9896 34.3361V34.8362H52.1526L52.3193 35.003V35.3402H52.4898L52.6527 35.5031V35.8366H52.8232L52.9862 36.0033V36.3367H53.1529L53.3196 36.5073V36.8369H53.4863L53.8198 37.1741V37.5076H53.9865L54.4905 38.0078V38.3412H54.6534L55.8242 39.5083L56.1577 39.675L56.6579 40.1752L56.9913 40.3419L57.158 40.5086L57.4915 40.6753L57.6582 40.842L58.3251 41.1755L58.8253 41.3422L59.1625 41.5089L60.4925 41.8424L63.3306 42.0091V41.8424L64.3309 41.6795L65.1645 41.5089L66.1648 41.1755L66.5021 41.0088L67.0023 40.5086L67.6691 40.1752L68.5028 39.3415L68.6695 39.0081L68.8362 38.8414L69.0029 38.5041L69.1696 38.3412L69.5031 37.6705L69.8365 36.674L70.0033 34.3361H69.8365V33.5025H69.6698V33.0023H69.5031V32.6688H69.3364V32.3354H69.1696V32.0019L68.8362 31.6685H68.6695V31.3351L68.3322 31.0016H68.1693V30.6644L67.0023 29.4973L66.665 29.3306L66.5021 29.1639L66.1648 29.0009L66.5021 28.8342L67.3357 27.9968L67.4986 27.6634L67.8359 26.6668L68.0026 25.3292L68.1693 24.6624H68.0026V22.9913H67.8359V22.3244L67.6691 22.1615H72.8375V20.157L72.5041 19.9903H53.4863Z" fill="white"/>
</svg>
