<svg width="240" height="56" viewBox="0 0 240 56" fill="none" xmlns="http://www.w3.org/2000/svg">
<path d="M84.1158 49.418C83.7576 49.1494 83.333 49.1762 82.935 49.0822C75.9567 47.43 70.5836 41.5733 69.5355 34.4272C68.6334 28.2481 70.3315 22.8885 74.7229 18.5229C78.358 14.9095 82.8289 13.2573 87.9233 13.6334C96.0426 14.2379 102.464 20.2557 103.897 28.4093C105.475 37.3958 100.182 46.1673 91.585 48.8001C90.7492 49.0553 89.8868 49.2165 89.0377 49.4314C88.8653 49.4314 88.6795 49.4314 88.5071 49.4314C88.5071 45.3345 88.5203 41.2375 88.5071 37.1271C88.5071 36.6167 88.6265 36.3077 89.1173 36.0391C91.386 34.8167 92.381 31.9556 91.4125 29.6048C90.3644 27.0795 87.857 25.8303 85.323 26.5556C83.4922 27.0795 81.9533 28.9198 81.7675 30.8138C81.542 33.057 82.5105 35.0316 84.3678 36.0391C84.673 36.2137 84.9781 36.3077 84.9781 36.7913C84.9516 40.9957 84.9516 45.2136 84.9516 49.418C84.6464 49.418 84.3811 49.418 84.1158 49.418Z" fill="#161613"/>
<path d="M120.016 49.418C119.631 49.1762 119.18 49.2299 118.755 49.1627C115.332 48.5986 112.308 47.215 109.827 44.7165C109.429 44.3135 109.402 44.0315 109.747 43.5479C110.848 42.0434 111.896 40.4987 112.931 38.9539C113.236 38.4972 113.382 38.43 113.833 38.8465C115.996 40.9151 118.516 42.2449 121.568 42.3121C122.258 42.3255 122.921 42.1778 123.571 41.9091C125.296 41.1703 126.251 38.5644 124.314 36.9793C122.921 35.8375 121.276 35.1793 119.671 34.454C117.972 33.6883 116.288 32.9361 114.722 31.9152C107.93 27.5093 109.442 18.8721 115.067 15.4468C119.949 12.4647 127.71 13.311 131.823 17.3676C132.181 17.7169 132.248 17.9855 131.996 18.4422C131.067 20.1348 130.165 21.8541 129.302 23.5735C129.037 24.1108 128.891 23.9899 128.533 23.6675C126.423 21.7467 123.996 20.6049 121.077 20.793C120.122 20.8601 119.273 21.2094 118.543 21.8407C117.336 22.8885 117.283 24.6078 118.424 25.7227C119.206 26.475 120.148 26.9451 121.117 27.3884C123.001 28.2615 124.951 28.9734 126.782 29.9675C128.533 30.9212 130.098 32.0764 131.239 33.7689C134.105 38.0271 132.977 45.8717 126.251 48.5045C125.176 48.9209 124.062 49.1627 122.908 49.2971C122.762 49.3105 122.589 49.2433 122.496 49.4314C121.687 49.418 120.851 49.418 120.016 49.418Z" fill="#161613"/>
<path d="M171 48.8807C168.732 48.8807 166.463 48.8538 164.181 48.8807C163.65 48.8807 163.465 48.7732 163.465 48.1956C163.478 37.06 163.478 25.9243 163.465 14.8021C163.465 14.2245 163.65 14.117 164.181 14.117C166.45 14.1439 168.718 14.117 171 14.117C171 25.7094 171 37.3018 171 48.8807Z" fill="#161613"/>
<path d="M135.909 31.5391C135.909 25.9914 135.923 20.4437 135.896 14.896C135.896 14.3319 136.055 14.1975 136.599 14.1975C140.5 14.2244 144.413 14.211 148.314 14.211C150.702 14.211 152.97 14.6677 155 15.9841C159.617 18.9527 160.294 25.9914 156.354 29.954C155.969 30.3436 155.916 30.4913 156.42 30.8272C158.543 32.2242 159.71 34.2794 160.055 36.7778C160.506 39.9882 159.936 42.9703 157.654 45.4016C155.902 47.2687 153.647 48.1956 151.179 48.6254C150.158 48.8001 149.123 48.8807 148.088 48.8807C144.267 48.8807 140.46 48.8538 136.639 48.8941C135.989 48.8941 135.896 48.6792 135.896 48.1016C135.909 42.5807 135.909 37.0599 135.909 31.5391ZM143.047 31.4854C143.047 31.8615 143.047 32.2376 143.047 32.6271C143.047 35.6764 143.047 38.7256 143.047 41.7748C143.047 42.03 142.928 42.3658 143.418 42.3658C145.422 42.339 147.438 42.4195 149.442 42.3121C151.604 42.1912 152.917 40.4718 152.904 38.0405C152.891 35.8913 151.524 34.3465 149.415 34.1719C148.606 34.1047 147.783 34.1182 146.974 34.1182C146.629 34.1182 146.443 34.0644 146.456 33.648C146.47 31.8212 146.47 29.9943 146.456 28.1675C146.456 27.8451 146.563 27.7377 146.881 27.7511C147.385 27.7645 147.903 27.778 148.407 27.7511C149.521 27.6839 150.596 27.4421 151.179 26.3675C151.909 25.0243 151.909 23.6138 151.219 22.2706C150.582 21.0482 149.402 20.7258 148.128 20.7124C146.655 20.6989 145.17 20.7258 143.697 20.6989C143.166 20.6855 143.034 20.8467 143.047 21.3706C143.06 24.7153 143.047 28.1003 143.047 31.4854Z" fill="#161613"/>
</svg>
