<svg width="240" height="56" viewBox="0 0 240 56" fill="none" xmlns="http://www.w3.org/2000/svg">
<g clip-path="url(#clip0_235_1364)">
<path fill-rule="evenodd" clip-rule="evenodd" d="M37.0029 47.9986C35.9422 47.9994 34.9247 47.5914 34.1741 46.8644C33.4234 46.1374 33.0011 45.151 33 44.122V11.878C33.0004 11.3684 33.1042 10.8639 33.3056 10.3932C33.5069 9.92245 33.8019 9.49484 34.1736 9.13473C34.5453 8.77462 34.9865 8.48907 35.4719 8.29437C35.9574 8.09967 36.4776 7.99965 37.0029 8H70.2832C70.8085 7.99965 71.3288 8.09967 71.8142 8.29437C72.2997 8.48907 72.7408 8.77462 73.1125 9.13473C73.4843 9.49484 73.7792 9.92245 73.9806 10.3932C74.1819 10.8639 74.2858 11.3684 74.2861 11.878V44.122C74.2858 44.6316 74.1819 45.1362 73.9806 45.6068C73.7792 46.0775 73.4843 46.5052 73.1125 46.8653C72.7408 47.2254 72.2997 47.5109 71.8142 47.7056C71.3288 47.9003 70.8085 48.0004 70.2832 48L37.0029 47.9986ZM63.1621 27.3587C62.9959 27.1681 62.8184 26.9858 62.6301 26.8128C61.4257 25.7062 59.8567 25.0486 58.2006 24.9565C58.2004 24.9567 58.2001 24.9569 58.1999 24.9571C59.8562 25.049 61.4257 25.7065 62.6303 26.8132C62.8186 26.9861 62.996 27.1683 63.1621 27.3587ZM58.3621 24.8156C58.8573 24.3688 59.2667 23.8393 59.5703 23.2517C59.8957 22.6219 60.0933 21.9375 60.1526 21.2358C60.0938 21.9117 59.9074 22.572 59.602 23.1837C59.2955 23.7976 58.875 24.3507 58.3621 24.8156ZM58.5852 16.9379C58.58 16.9326 58.5748 16.9274 58.5696 16.9222C57.911 16.2199 57.0617 15.712 56.1192 15.4565C55.7783 15.3641 55.4302 15.3061 55.0803 15.2825C55.6808 15.32 56.2708 15.4597 56.8232 15.6959C57.4839 15.9784 58.0759 16.3928 58.5605 16.9121C58.5688 16.9206 58.577 16.9292 58.5852 16.9379ZM46.3285 17.4109L44.9389 17.7993C44.7773 17.8444 44.6264 17.92 44.4949 18.0217C44.3633 18.1234 44.2538 18.2492 44.1724 18.392C44.091 18.5348 44.0394 18.6918 44.0206 18.8539C44.0018 19.0161 44.0161 19.1802 44.0627 19.337L50.132 39.7086C50.2266 40.025 50.4468 40.2921 50.7442 40.4512C50.7872 40.4743 50.8313 40.4947 50.8763 40.5127C50.8314 40.4947 50.7873 40.4742 50.7444 40.4511C50.4469 40.2916 50.2269 40.024 50.1327 39.7072L44.0641 19.3357C44.0176 19.179 44.0034 19.015 44.0222 18.853C44.0411 18.691 44.0926 18.5342 44.1739 18.3916C44.2552 18.2489 44.3647 18.1232 44.4961 18.0216C44.6274 17.9199 44.7782 17.8444 44.9396 17.7993L46.3285 17.4109ZM49.643 41.6668C50.0866 41.9903 50.6262 42.1661 51.1812 42.168C51.4205 42.1675 51.6586 42.1344 51.8885 42.0699L60.4671 39.6693C61.9897 39.1953 63.3393 38.306 64.3549 37.1076C65.42 35.9559 66.1086 34.5233 66.3333 32.9914C66.5824 31.0311 66.1398 29.0468 65.0776 27.3618C64.0932 25.8402 62.6311 24.6655 60.9066 24.011C61.5331 22.8453 61.8052 21.5309 61.6914 20.2209C61.5499 18.777 60.9753 17.405 60.0388 16.2745C59.3365 15.5014 58.4715 14.8835 57.5022 14.4624C56.5328 14.0412 55.4816 13.8267 54.4195 13.8333C53.8655 13.8294 53.3136 13.9009 52.7801 14.0458L44.2532 16.4309C43.9301 16.521 43.6285 16.672 43.3656 16.8752C43.1027 17.0785 42.8837 17.33 42.7211 17.6154C42.5585 17.9009 42.4555 18.2146 42.4179 18.5387C42.3803 18.8628 42.409 19.1908 42.5022 19.5042L48.7193 40.3725C48.8754 40.8892 49.1994 41.3432 49.643 41.6668Z" fill="#161613"/>
<path d="M62.82 32.3523C62.8187 30.6959 62.1439 29.107 60.9423 27.9303C59.7407 26.7537 58.1092 26.0843 56.402 26.0676C56.9627 25.5961 57.4196 25.0197 57.7455 24.373C58.0714 23.7263 58.2595 23.0224 58.2985 22.3036C58.3376 21.5847 58.2269 20.8656 57.9729 20.1892C57.719 19.5128 57.327 18.893 56.8206 18.367C56.1845 17.6636 55.3544 17.1513 54.4282 16.8904C53.5019 16.6295 52.5181 16.6308 51.5927 16.8943L44.6521 18.8353L50.7123 39.1764C50.8069 39.4928 51.0271 39.7599 51.3246 39.9189C51.622 40.0779 51.9724 40.1159 52.2986 40.0244L57.9946 38.4313L58.077 38.4062C59.4406 38.0378 60.6424 37.2466 61.499 36.1533C62.3555 35.0601 62.8198 33.7249 62.8207 32.3516" fill="#161613"/>
<path d="M197.187 42.9294C195.186 42.9536 193.206 42.5342 191.397 41.7031C189.903 41.0048 188.584 39.9973 187.535 38.7516C186.9 38.0766 186.523 37.2109 186.466 36.2989C186.437 35.9436 186.485 35.5863 186.608 35.2505C186.731 34.9146 186.926 34.608 187.181 34.3508C187.435 34.0936 187.743 33.8916 188.083 33.7583C188.424 33.625 188.79 33.5634 189.157 33.5775C190.255 33.5775 191.196 34.4966 191.808 35.1876C193.601 36.8796 195.198 37.6024 197.148 37.6024C199.788 37.6024 201.302 36.4708 201.302 34.4979C201.291 33.9067 201.126 33.3277 200.822 32.8154C200.518 32.303 200.084 31.8741 199.562 31.5687C198.3 30.7794 196.953 30.1265 195.545 29.6216C191.716 28.069 187.376 26.3094 187.376 21.1982C187.354 19.9407 187.615 18.6935 188.139 17.5435C188.603 16.5665 189.294 15.7073 190.158 15.0333C191.932 13.7386 194.097 13.0486 196.317 13.0706C198.476 13.0211 200.608 13.5376 202.489 14.5656C204.26 15.5564 206.326 17.4257 206.326 19.4338C206.327 19.7526 206.255 20.0676 206.115 20.356C205.974 20.6443 205.77 20.8987 205.515 21.1007C204.985 21.5185 204.32 21.7423 203.636 21.7329C202.422 21.7329 201.683 20.9823 200.967 20.2568C200.704 19.9748 200.419 19.7123 200.115 19.4717C199.036 18.6847 197.706 18.2911 196.357 18.3597C195.49 18.3137 194.635 18.5685 193.944 19.0785C193.653 19.3353 193.424 19.6516 193.273 20.0045C193.123 20.3574 193.054 20.7382 193.074 21.1197C193.074 21.9494 193.534 22.6438 194.523 23.3051C195.621 23.9601 196.778 24.516 197.98 24.9659C201.999 26.6342 207 28.7106 207 34.8032C207.031 35.9558 206.785 37.0997 206.281 38.144C205.777 39.1882 205.029 40.1042 204.097 40.8192C202.102 42.2533 199.669 42.9964 197.187 42.9294ZM93.5082 42.7393H93.2375L85.3642 42.6614C84.9858 42.6738 84.6086 42.613 84.2546 42.4827C83.9005 42.3523 83.5768 42.1549 83.3021 41.9021C83.0416 41.6431 82.8377 41.3358 82.7026 40.9985C82.5675 40.6613 82.504 40.301 82.5159 39.9394V15.792C82.5022 15.428 82.5648 15.0651 82.6999 14.7252C82.8351 14.3854 83.0399 14.0758 83.3021 13.815C83.5785 13.5655 83.9029 13.3713 84.2568 13.2436C84.6106 13.1158 84.9869 13.057 85.3642 13.0706H93.2773C94.8207 13.0498 96.3586 13.2526 97.8404 13.6722C99.0307 14.0104 100.137 14.5819 101.091 15.3514C101.942 16.0783 102.617 16.9799 103.065 17.9909C103.513 19.0019 103.724 20.097 103.682 21.1969C103.682 23.6252 102.437 25.6928 100.081 27.1757C100.07 27.1825 100.061 27.1918 100.055 27.2028C100.049 27.2138 100.046 27.2261 100.046 27.2386C100.046 27.2496 100.05 27.2603 100.056 27.2694C100.062 27.2786 100.071 27.286 100.081 27.2907C101.592 27.8609 102.902 28.8406 103.854 30.113C104.763 31.3889 105.242 32.9066 105.225 34.4573C105.282 35.556 105.082 36.653 104.64 37.6658C104.197 38.6786 103.524 39.5809 102.67 40.3048C100.704 41.921 97.6213 42.7393 93.5082 42.7393V42.7393ZM88.1735 18.1303V37.5246H93.9888C95.3945 37.6079 96.7962 37.3076 98.035 36.6576C98.4725 36.396 98.8304 36.0262 99.072 35.5861C99.3136 35.1461 99.4303 34.6516 99.41 34.1534C99.41 31.7251 98.2408 30.697 95.0973 30.3586C94.2823 30.2984 93.5096 29.9821 92.8964 29.4578C92.6235 29.1885 92.411 28.8672 92.2723 28.5143C92.1336 28.1614 92.0718 27.7844 92.0906 27.4071C92.0691 27.0478 92.1324 26.6884 92.2755 26.3563C92.4186 26.0241 92.6379 25.728 92.9166 25.4904C93.5666 25.017 94.3313 24.714 95.1371 24.6106C97.0534 24.281 98.0252 23.2624 98.0252 21.5826C98.074 20.6676 97.7549 19.7699 97.1351 19.0785C96.7819 18.7496 96.3622 18.4956 95.9025 18.3324C95.4428 18.1693 94.9531 18.1007 94.4646 18.131L88.1735 18.1303ZM119.001 42.6614C118.63 42.6631 118.263 42.5888 117.924 42.4435C117.585 42.2982 117.281 42.0851 117.032 41.8181C116.458 41.1694 116.158 40.3342 116.192 39.4798V30.9705L108.002 18.2467C107.518 17.5839 107.256 16.7928 107.252 15.9808C107.252 15.6436 107.326 15.3103 107.471 15.0036C107.615 14.697 107.826 14.4241 108.089 14.2035C108.661 13.7317 109.391 13.4788 110.141 13.4922C111.374 13.4922 112.045 14.1514 112.674 15.1402L119.044 25.4133L125.411 15.1402C126.04 14.1534 126.71 13.4922 127.943 13.4922C128.694 13.4795 129.424 13.7335 129.995 14.2062C130.258 14.4268 130.469 14.6997 130.614 15.0064C130.758 15.313 130.833 15.6463 130.833 15.9835C130.826 16.7946 130.563 17.5842 130.079 18.2453L121.89 30.9691V39.4798C121.891 41.4127 120.757 42.6614 119.001 42.6614ZM137.358 42.5464C133.676 42.5464 131.507 41.0121 130.336 39.7241C129.099 38.4022 128.379 36.7023 128.298 34.9189C128.283 34.5281 128.355 34.1387 128.508 33.7769C128.661 33.415 128.891 33.0891 129.185 32.8208C129.722 32.3564 130.419 32.1032 131.138 32.1109C131.219 32.1109 131.301 32.1109 131.381 32.1203C132.921 32.2415 133.342 33.3115 133.787 34.4438C134.323 35.8082 134.878 37.2186 137.403 37.2186H137.513C138.094 37.2584 138.676 37.1616 139.211 36.9364C139.745 36.7113 140.216 36.3644 140.582 35.9253C141.231 35.084 141.546 33.8144 141.546 32.0445V16.6738C141.546 14.682 142.611 13.4929 144.395 13.4929C144.779 13.4819 145.16 13.5516 145.514 13.6972C145.867 13.8427 146.184 14.0607 146.442 14.3362C146.998 14.9927 147.284 15.8258 147.243 16.6745V31.9288C147.243 35.3527 146.406 37.9997 144.76 39.7959C143.094 41.6212 140.602 42.5464 137.359 42.5464H137.358ZM164.023 42.5078C160.513 42.5078 157.785 41.4845 155.912 39.4622C153.996 37.3953 153.024 34.3308 153.024 30.3539V16.6738C152.983 15.8271 153.263 14.9949 153.812 14.3355C154.079 14.0683 154.398 13.8558 154.751 13.7107C155.104 13.5656 155.483 13.4909 155.867 13.4909C156.25 13.4909 156.63 13.5656 156.983 13.7107C157.336 13.8558 157.655 14.0683 157.922 14.3355C158.478 14.9919 158.763 15.825 158.723 16.6738V29.939C158.723 32.5941 159.163 34.4336 160.068 35.5639C160.911 36.6163 162.168 37.1063 164.024 37.1063C165.881 37.1063 167.138 36.6163 167.981 35.5639C168.888 34.4336 169.326 32.5941 169.326 29.939V16.6738C169.286 15.825 169.572 14.9919 170.128 14.3355C170.394 14.0683 170.714 13.8558 171.067 13.7107C171.42 13.5656 171.799 13.4909 172.183 13.4909C172.566 13.4909 172.945 13.5656 173.298 13.7107C173.651 13.8558 173.971 14.0683 174.237 14.3355C174.786 14.9951 175.066 15.8272 175.024 16.6738V30.3573C175.024 34.3341 174.052 37.396 172.135 39.4656C170.263 41.4845 167.534 42.5112 164.024 42.5112L164.023 42.5078ZM181.197 23.6496C179.619 23.6496 178.784 22.1782 178.784 19.3952V17.2098C178.784 14.6949 179.727 13.4875 181.751 13.4151C182.161 13.3852 182.572 13.4417 182.958 13.5806C183.343 13.7195 183.693 13.9375 183.983 14.2198C184.483 14.8406 184.73 15.6188 184.676 16.4051C184.506 18.4387 183.998 20.4322 183.172 22.3082C183.013 22.6938 182.742 23.0261 182.392 23.2644C182.041 23.5027 181.627 23.6365 181.199 23.6496H181.197Z" fill="#161613"/>
</g>
<defs>
<clipPath id="clip0_235_1364">
<rect width="174" height="40" fill="white" transform="translate(33 8)"/>
</clipPath>
</defs>
</svg>
