<svg width="240" height="56" viewBox="0 0 240 56" fill="none" xmlns="http://www.w3.org/2000/svg">
<path d="M1 8H239.457V47.7395H1V8Z" fill="#161613"/>
<path d="M40.7444 8H239.457V47.7395H40.7444V8Z" fill="#161613"/>
<path d="M53.3814 37.2711V18.4682H59.5675V24.814H65.3638V18.4682H71.5597V37.2711H65.3638V29.9758H59.5675V37.2711H53.3814Z" fill="white"/>
<path d="M81.3482 23.1401H82.9522C84.1065 23.1401 84.9509 23.26 85.4906 23.4999C85.8903 23.6748 86.2151 23.9346 86.4999 24.3244C86.7597 24.7091 86.9696 25.1939 87.1245 25.8035C87.2644 26.4081 87.3394 27.0476 87.3394 27.7222C87.3394 28.8215 87.1895 29.7409 86.8647 30.4854C86.5499 31.23 86.0952 31.7646 85.5105 32.0944C84.9259 32.4291 84.0565 32.589 82.9072 32.589L81.3482 32.5991V23.1401V23.1401ZM83.7366 37.2711C85.1957 37.2711 86.405 37.1512 87.3944 36.8864C88.3888 36.6315 89.1982 36.2917 89.8178 35.8869C90.4474 35.4722 91.017 34.9126 91.5417 34.2181C92.0613 33.4985 92.516 32.5941 92.8708 31.4849C93.2355 30.3806 93.4104 29.1363 93.4104 27.7272C93.4104 25.6585 93.0158 23.9097 92.2163 22.4506C91.4068 21.0215 90.3075 19.9872 88.9035 19.3776C87.5043 18.768 85.8353 18.4682 83.8966 18.4682H75.2971V37.2711H83.7366" fill="white"/>
<path d="M96.2438 37.2711V18.4682H110.914V23.1052H102.35V26.1183H109.2V30.6303H102.35V37.2711H96.2438" fill="white"/>
<path d="M131.631 25.6586H125.79C125.68 24.7242 125.34 23.9848 124.775 23.4551C124.206 22.9355 123.491 22.6806 122.612 22.6806C121.517 22.6806 120.628 23.1053 119.943 23.9448C119.254 24.7942 118.909 26.1683 118.909 28.0571C118.909 29.3763 119.064 30.3656 119.349 31.0401C119.644 31.7347 120.058 32.2344 120.573 32.5692C121.103 32.9039 121.747 33.059 122.542 33.059C123.491 33.059 124.251 32.819 124.805 32.2694C125.375 31.7547 125.705 30.9853 125.815 29.9559H131.761C131.631 31.1252 131.396 32.1045 131.056 32.904C130.732 33.6985 130.152 34.4879 129.367 35.2824C128.573 36.0869 127.624 36.7065 126.529 37.1362C125.435 37.571 124.171 37.7759 122.722 37.7759C121.293 37.7759 119.959 37.5711 118.754 37.1513C117.535 36.7216 116.506 36.1119 115.686 35.3474C114.852 34.5529 114.202 33.6635 113.738 32.6591C113.068 31.245 112.753 29.6911 112.753 27.9572C112.753 26.5082 112.988 25.134 113.463 23.8748C113.937 22.6256 114.592 21.5612 115.426 20.7018C116.266 19.8473 117.18 19.2078 118.2 18.7781C119.489 18.2285 120.908 17.9637 122.482 17.9637C123.851 17.9637 125.12 18.1634 126.319 18.5681C127.514 18.9729 128.493 19.5626 129.258 20.3471C130.032 21.1316 130.627 22.031 131.041 23.0553C131.341 23.7698 131.531 24.6343 131.631 25.6586" fill="white"/>
<path d="M151.443 22.7005C152.318 22.7005 152.882 22.7404 153.162 22.8204C153.522 22.9253 153.822 23.1302 154.037 23.4C154.257 23.6798 154.372 24.0047 154.372 24.3794C154.372 24.8591 154.182 25.2538 153.817 25.5536C153.427 25.8684 152.763 26.0134 151.808 26.0134H149.48V22.7005H151.443ZM152.997 37.2711C154.462 37.2711 155.491 37.2011 156.095 37.0712C156.69 36.9313 157.305 36.7115 157.929 36.4217C158.539 36.1019 159.009 35.8021 159.318 35.4723C159.798 35.0276 160.153 34.4878 160.413 33.8382C160.672 33.1837 160.802 32.4442 160.802 31.6497C160.802 30.5154 160.523 29.581 159.953 28.8215C159.383 28.057 158.619 27.5523 157.654 27.2775C159.288 26.2482 160.103 24.9191 160.103 23.3001C160.103 21.6262 159.383 20.3469 157.959 19.4775C156.86 18.8079 155.146 18.4682 152.823 18.4682H143.494V37.2711H152.997ZM152.003 29.3962C153.227 29.3962 154.022 29.546 154.422 29.8608C154.791 30.1656 154.991 30.5854 154.991 31.15C154.991 31.7196 154.791 32.1693 154.386 32.4841C154.002 32.8189 153.197 32.9588 152.003 32.9588H149.48V29.3962H152.003Z" fill="white"/>
<path d="M174.389 30.9502H170.456L172.395 24.1095L174.389 30.9502ZM168.607 37.2711L169.322 34.8027H175.478L176.198 37.2711H182.349L175.603 18.4682H169.322L162.571 37.2711H168.607Z" fill="white"/>
<path d="M184.947 37.2711V18.4682H190.708L197.209 28.5368V18.4682H203.135V37.2711H197.249L190.888 27.4524V37.2711H184.947" fill="white"/>
<path d="M207.258 37.2711V18.4682H213.249V24.6692L218.84 18.4682H226.105L219.215 25.5486L226.82 37.2711H219.415L214.893 29.7809L213.249 31.4048V37.2711H207.258" fill="white"/>
<path d="M1 8H40.7395V47.7395H1V8Z" fill="#161613"/>
<path d="M7.95543 14.9555H33.7889V40.7889H7.95543V14.9555Z" fill="white"/>
<path d="M18.8835 8H22.8558V47.7395H18.8835V8Z" fill="white"/>
<path d="M1 25.8885H40.7395V29.8609H1V25.8885Z" fill="white"/>
<path d="M14.911 21.9111H26.8333V33.8335H14.911V21.9111Z" fill="#161613"/>
</svg>
