<svg width="240" height="56" viewBox="0 0 240 56" fill="none" xmlns="http://www.w3.org/2000/svg">
<path d="M160.792 49.8647C160.472 50.3043 160.232 50.8439 159.812 51.1636C158.953 51.843 157.794 51.7032 156.975 50.9038C155.976 49.9246 154.996 48.9454 153.997 47.9462C150.26 50.3243 146.264 51.0637 142.007 49.6448C138.909 48.6057 136.491 46.6872 134.793 43.8895C131.476 38.434 132.555 31.4796 137.411 27.1432C142.187 22.8666 149.221 22.5869 154.297 26.4038C159.433 30.2606 161.611 38.2341 157.135 44.8487C157.954 45.6481 158.773 46.4874 159.613 47.2868C160.112 47.7664 160.572 48.266 160.792 48.9254C160.792 49.2252 160.792 49.5449 160.792 49.8647ZM155.916 36.9951C155.936 31.6994 151.679 27.383 146.423 27.363C141.048 27.343 136.551 31.7594 136.531 37.0351C136.531 42.2908 140.928 46.6673 146.224 46.6872C151.599 46.7272 155.896 42.4107 155.916 36.9951Z" fill="black"/>
<path d="M125.82 4.40171C126.439 6.04038 127.059 7.67904 127.678 9.31771C128.638 11.7957 129.597 14.2737 130.556 16.7517C130.616 16.8915 130.656 17.0514 130.736 17.2712C130.536 17.2712 130.376 17.2712 130.216 17.2712C128.917 17.2712 127.599 17.2512 126.3 17.2912C125.88 17.2912 125.74 17.1513 125.6 16.7716C124.841 14.5135 124.041 12.2553 123.242 9.99715C123.202 9.85727 123.142 9.73737 123.062 9.51754C122.962 9.75735 122.902 9.9372 122.842 10.1171C122.063 12.3352 121.284 14.5734 120.524 16.7916C120.404 17.1513 120.225 17.2712 119.845 17.2712C118.386 17.2512 116.947 17.2712 115.388 17.2712C117.067 12.9348 118.706 8.65824 120.344 4.40171C122.183 4.40171 124.001 4.40171 125.82 4.40171Z" fill="black"/>
<path d="M100.621 4.40171C100.661 4.58156 100.7 4.76142 100.76 4.94127C102.259 8.85808 103.778 12.7749 105.297 16.7117C105.357 16.8716 105.397 17.0314 105.477 17.2712C104.977 17.2712 104.537 17.2712 104.098 17.2712C103.079 17.2712 102.059 17.2512 101.04 17.2912C100.641 17.3112 100.501 17.1513 100.381 16.7916C99.6214 14.5534 98.822 12.3153 98.0426 10.0771C97.9827 9.9372 97.9227 9.79732 97.8428 9.55751C97.7629 9.77733 97.7029 9.91722 97.643 10.0771C96.8436 12.3552 96.0643 14.6134 95.2849 16.8915C95.205 17.1114 95.165 17.3112 94.8652 17.2912C93.3864 17.2712 91.8877 17.2912 90.4089 17.2712C90.3689 17.2712 90.3089 17.2512 90.229 17.2313C90.269 17.0914 90.3089 16.9715 90.3489 16.8316C91.9276 12.7549 93.5063 8.65824 95.085 4.58156C95.105 4.52161 95.145 4.46166 95.165 4.40171C96.9835 4.40171 98.802 4.40171 100.621 4.40171Z" fill="black"/>
<path d="M91.2282 4.40171C91.2282 5.62072 91.2282 6.85971 91.2282 8.11868C90.0292 8.11868 88.8902 8.11868 87.6911 8.11868C87.6911 11.1762 87.6911 14.1738 87.6911 17.2313C86.0325 17.2313 84.4338 17.2313 82.7951 17.2313C82.7951 14.2137 82.7951 11.2162 82.7951 8.15865C81.5961 8.15865 80.457 8.15865 79.258 8.15865C79.258 6.87969 79.258 5.6407 79.258 4.40171C83.2547 4.40171 87.2515 4.40171 91.2282 4.40171Z" fill="black"/>
<path d="M116.428 4.40171C116.428 5.62072 116.428 6.85971 116.428 8.11868C115.249 8.11868 114.11 8.11868 112.911 8.11868C112.911 11.1762 112.911 14.1937 112.911 17.2512C111.252 17.2512 109.653 17.2512 108.035 17.2512C108.035 14.2337 108.035 11.2162 108.035 8.15865C106.856 8.15865 105.716 8.15865 104.457 8.15865C104.457 6.87969 104.457 5.6407 104.457 4.40171C108.454 4.40171 112.451 4.40171 116.428 4.40171Z" fill="black"/>
<path d="M92.2874 49.4651C90.2291 49.4251 88.4705 49.2653 86.7519 48.7457C83.2548 47.6666 80.9367 45.3684 79.9375 41.8513C78.9783 38.4341 78.9583 34.9769 79.9175 31.5597C80.9367 27.9826 83.2348 25.5646 86.8119 24.4855C90.4289 23.3864 94.086 23.4063 97.683 24.6253C99.3417 25.1849 100.781 26.1041 101.92 27.463C102.659 28.3623 102.739 29.2416 102.179 29.981C101.54 30.8003 100.301 31.0801 99.3617 30.6005C99.0819 30.4606 98.8021 30.2608 98.5823 30.0409C96.3841 27.8028 93.6663 27.2832 90.6887 27.6229C89.9893 27.7028 89.2699 27.8627 88.5904 28.1025C86.4322 28.8819 85.1732 30.5205 84.6337 32.6788C83.9542 35.3966 83.9542 38.1543 84.6936 40.8521C85.3731 43.3701 87.0317 44.8888 89.5896 45.3884C91.3882 45.7282 93.1867 45.7282 94.9653 45.3485C96.3441 45.0687 97.5032 44.3493 98.5623 43.43C98.902 43.1303 99.2418 42.8305 99.6414 42.6307C101.04 41.8913 102.819 42.8705 102.819 44.3493C102.819 44.8888 102.579 45.2885 102.239 45.6682C100.781 47.2269 98.942 48.1662 96.9237 48.7657C95.3449 49.2653 93.6863 49.4651 92.2874 49.4651Z" fill="black"/>
<path d="M109.253 45.3683C110.992 45.3683 112.651 45.3683 114.309 45.3683C115.548 45.3683 116.767 45.3683 118.006 45.3683C119.125 45.3683 119.945 46.1677 120.025 47.2668C120.105 48.4059 119.385 49.2851 118.246 49.425C118.046 49.445 117.826 49.465 117.627 49.465C114.229 49.465 110.832 49.465 107.435 49.465C105.796 49.465 105.017 48.7056 105.017 47.067C105.017 40.0726 105.017 33.0584 105.017 26.0641C105.017 24.6852 105.876 23.726 107.135 23.726C108.234 23.726 109.154 24.5653 109.253 25.6644C109.273 25.8642 109.273 26.084 109.273 26.2839C109.273 32.4389 109.273 38.5939 109.273 44.7488C109.253 44.9287 109.253 45.1285 109.253 45.3683Z" fill="black"/>
<path d="M128.598 39.813C128.598 42.251 128.598 44.689 128.598 47.127C128.598 47.9863 128.258 48.6857 127.519 49.1454C126.3 49.9247 124.661 49.1653 124.381 47.7065C124.321 47.4467 124.301 47.167 124.301 46.9072C124.301 42.171 124.301 37.4349 124.301 32.6988C124.301 32.359 124.341 32.0193 124.421 31.6996C124.741 30.6604 125.7 30.0409 126.719 30.1608C127.739 30.3007 128.558 31.2399 128.558 32.339C128.618 34.837 128.598 37.315 128.598 39.813Z" fill="black"/>
<path d="M130.716 27.5229C130.676 28.602 130.177 29.4013 129.177 29.861C128.158 30.3206 127.179 30.2007 126.38 29.4413C125.181 28.3422 124.042 27.1831 122.922 25.9841C121.963 24.9849 122.063 23.3663 123.042 22.3871C124.042 21.3879 125.66 21.3479 126.679 22.3271C127.818 23.4262 128.918 24.5453 130.037 25.6844C130.516 26.2039 130.736 26.8234 130.716 27.5229Z" fill="black"/>
</svg>
