<svg width="240" height="56" viewBox="0 0 240 56" fill="none" xmlns="http://www.w3.org/2000/svg">
<path fill-rule="evenodd" clip-rule="evenodd" d="M83.4146 32.1623V34.1184C83.4146 37.5525 84.7854 40.6171 86.1779 42.7036C87.7444 45.051 89.8549 46.4637 92.2482 47.9634C94.1411 49.1588 97.9705 50.4846 100.56 50.9845C103.758 51.6148 106.956 52.093 110.807 52.093H112.7C124.493 52.093 136.46 48.6806 144.162 44.5945V39.0522C142.073 40.1607 139.506 41.6169 137.091 42.3559C136.568 42.508 135.763 42.8558 135.241 43.0514C134.589 43.2905 133.936 43.4643 133.283 43.7034C132.304 44.0946 130.346 44.6163 129.236 44.8553C127.844 45.1596 126.495 45.5291 125.037 45.8334C123.514 46.1377 122.165 46.2898 120.598 46.5724C119.141 46.8332 117.422 46.9201 115.877 47.0288C114.245 47.1375 112.57 47.2027 110.807 47.2027H110.438C104.193 47.2027 98.2316 46.2246 94.0541 44.1381C90.0507 42.1385 86.2866 38.4219 86.2866 32.4666V31.9232C86.2866 29.1195 87.1569 26.9677 87.962 24.9464C88.3101 24.0553 88.9846 22.9251 89.5068 22.1644C89.8331 21.6862 90.0942 21.3385 90.4206 20.882C90.7252 20.4691 91.1821 20.0344 91.4214 19.6866V17.7305C90.4423 18.3826 89.4197 19.6649 88.593 20.5126C87.6574 21.4906 86.9611 22.5773 86.1996 23.7075C85.0465 25.4246 83.4146 29.3803 83.4146 32.1623Z" fill="#161613"/>
<path fill-rule="evenodd" clip-rule="evenodd" d="M156.585 21.6427V19.8822C156.564 19.8605 156.303 17.9044 156.259 17.6436C156.15 17.0133 155.911 16.1874 155.693 15.644C155.149 14.2964 154.692 13.3836 153.866 12.2969C152.343 10.2973 150.537 8.86278 148.252 7.60218C144.097 5.2983 137.743 3.90729 131.281 3.90729H130.737C124.058 3.90729 118.531 5.01575 113.331 6.49371C111.961 6.88493 110.829 7.27616 109.545 7.71085C108.479 8.0586 106.935 8.64544 105.955 9.1236C104.824 9.6887 103.671 10.1669 102.561 10.732C101.974 11.0145 99.6893 12.4055 99.3194 12.4925V13.9487C99.8198 13.84 101.669 12.8185 102.387 12.5142C103.366 12.1012 104.606 11.4709 105.607 11.1667C106.064 11.0362 106.804 10.7537 107.261 10.5581C107.805 10.319 108.371 10.1886 108.958 9.99299C110.068 9.6235 111.286 9.21054 112.461 8.90625C114.963 8.27595 117.182 7.77605 119.924 7.27616C122.252 6.8632 125.559 6.45024 128.192 6.45024H130.933C136.286 6.45024 142.051 7.66738 145.489 9.58003C147.578 10.732 148.97 11.71 150.406 13.514C151.494 14.8615 152.843 17.5784 152.843 19.9909V21.0342C152.843 23.5554 151.538 26.294 150.428 27.7502C149.754 28.6413 149.101 29.4455 148.274 30.1845C147.882 30.5322 146.011 32.0102 145.576 32.1188V36.1398C146.446 36.0745 149.014 34.401 149.688 33.9011C150.907 32.9882 152.016 31.945 152.952 30.7496C154.018 29.402 154.584 28.4022 155.367 26.7504C155.715 26.0114 155.911 25.229 156.172 24.3813C156.237 24.077 156.585 21.6427 156.585 21.6427Z" fill="#161613"/>
<path fill-rule="evenodd" clip-rule="evenodd" d="M123.732 28.4023V29.1413C123.732 33.3361 126.299 36.4006 130.498 36.4006H131.281C132.543 36.4006 133.457 36.0964 134.371 35.7051C135.35 35.2922 135.872 34.5749 136.612 34.075L134.219 31.8364C133.74 32.5319 132.435 33.2274 131.238 33.2274H130.563C128.975 33.2274 127.517 31.8798 127.517 30.3584V29.9237H137.025V28.2719C137.025 26.3375 136.329 24.4683 135.481 23.3599C134.676 22.2949 133.044 21.0995 131.238 21.0995H130.085C128.17 21.0995 126.43 22.2949 125.494 23.3381C124.515 24.3814 123.732 26.381 123.732 28.4023ZM127.496 26.9243V27.359H133.24V27.0547C133.24 25.5333 132.152 24.1858 130.563 24.1858H130.259C128.845 24.1858 127.496 25.5551 127.496 26.9243Z" fill="#161613"/>
<path fill-rule="evenodd" clip-rule="evenodd" d="M101.212 36.1397H104.933V24.3813H108.283C109.023 24.3813 109.632 24.9464 109.632 25.6636V36.1397H113.418V25.7288C113.418 23.2511 111.743 21.3384 109.263 21.3384H101.212V36.1397V36.1397Z" fill="#161613"/>
<path fill-rule="evenodd" clip-rule="evenodd" d="M116.16 31.7493C116.16 34.2488 117.792 36.1397 120.25 36.1397H122.796V32.9665H120.903C120.337 32.9665 119.924 32.3144 119.924 31.7493V24.3813H122.796V21.3384H119.924V17.2523H116.138V31.7493H116.16Z" fill="#161613"/>
<path fill-rule="evenodd" clip-rule="evenodd" d="M139.201 32.5318C139.201 33.5533 139.81 34.4662 140.354 34.9878C140.637 35.2703 141.094 35.5094 141.507 35.6616C142.095 35.9006 142.399 35.8572 142.987 36.0093V15.1658H139.201V32.5318V32.5318Z" fill="#161613"/>
<path fill-rule="evenodd" clip-rule="evenodd" d="M94.0105 24.7942L94.0323 32.1623C94.0323 34.6617 95.4901 36.2484 97.8834 36.3136V21.3384H94.1193L94.0105 24.7942Z" fill="#161613"/>
<path fill-rule="evenodd" clip-rule="evenodd" d="M94.0758 19.252H97.8617V15.6658H94.0758V19.252Z" fill="#161613"/>
<path fill-rule="evenodd" clip-rule="evenodd" d="M147.077 15.1658C147.338 15.1658 147.578 15.231 147.817 15.3614C148.056 15.4918 148.252 15.6874 148.383 15.9265C148.513 16.1656 148.579 16.4264 148.579 16.6872C148.579 16.948 148.513 17.2089 148.383 17.4479C148.252 17.687 148.056 17.8826 147.817 18.013C147.578 18.1434 147.317 18.2087 147.056 18.2087C146.794 18.2087 146.533 18.1434 146.294 18.013C146.055 17.8826 145.859 17.687 145.728 17.4479C145.598 17.2089 145.533 16.948 145.533 16.6872C145.533 16.4264 145.598 16.1656 145.728 15.9265C145.859 15.6874 146.055 15.4918 146.294 15.3614C146.577 15.231 146.816 15.1658 147.077 15.1658ZM147.077 15.4049C146.86 15.4049 146.664 15.4701 146.446 15.5788C146.251 15.6874 146.098 15.8396 145.968 16.0352C145.859 16.2308 145.794 16.4481 145.794 16.6655C145.794 16.8828 145.859 17.1002 145.968 17.2958C146.076 17.4914 146.229 17.6435 146.446 17.7522C146.642 17.8609 146.86 17.9261 147.077 17.9261C147.295 17.9261 147.512 17.8609 147.708 17.7522C147.904 17.6435 148.056 17.4914 148.165 17.2958C148.274 17.1002 148.339 16.8828 148.339 16.6655C148.339 16.4481 148.274 16.2308 148.165 16.0352C148.056 15.8396 147.904 15.6874 147.687 15.5788C147.491 15.4701 147.273 15.4049 147.077 15.4049ZM146.403 17.5131V15.883H146.969C147.164 15.883 147.295 15.9048 147.382 15.9265C147.469 15.9482 147.534 16.0135 147.578 16.0787C147.621 16.1439 147.643 16.2308 147.643 16.3177C147.643 16.4264 147.599 16.5351 147.512 16.622C147.425 16.709 147.317 16.7524 147.164 16.7742C147.23 16.7959 147.273 16.8176 147.295 16.8611C147.36 16.9263 147.447 17.035 147.534 17.1871L147.73 17.5131H147.404L147.251 17.2523C147.143 17.0567 147.056 16.9263 146.969 16.8828C146.925 16.8394 146.86 16.8176 146.751 16.8176H146.599V17.5131H146.403V17.5131ZM146.664 16.6003H146.99C147.143 16.6003 147.251 16.5786 147.295 16.5351C147.36 16.4916 147.382 16.4264 147.382 16.3612C147.382 16.3177 147.36 16.2743 147.338 16.2308C147.317 16.1873 147.273 16.1656 147.23 16.1439C147.186 16.1221 147.099 16.1221 146.969 16.1221H146.664V16.6003Z" fill="#161613"/>
</svg>
