<svg width="240" height="56" viewBox="0 0 240 56" fill="none" xmlns="http://www.w3.org/2000/svg">
<path d="M129.381 16.8969C129.617 16.8969 129.809 16.7053 129.809 16.4689C129.809 16.2325 129.617 16.0409 129.381 16.0409C129.144 16.0409 128.953 16.2325 128.953 16.4689C128.953 16.7053 129.144 16.8969 129.381 16.8969Z" fill="#161613"/>
<path d="M117.747 31.8279C117.747 31.8279 117.747 31.8209 117.747 31.8179C117.399 31.8658 117.049 31.8899 116.698 31.8899C115.427 31.8898 114.176 31.5704 113.06 30.9612C111.945 30.3519 111 29.4723 110.313 28.403C109.625 27.3336 109.218 26.1088 109.127 24.8409C109.036 23.573 109.265 22.3026 109.793 21.1463C110.321 19.99 111.131 18.9847 112.148 18.2228C113.166 17.4609 114.358 16.9666 115.616 16.7854C116.875 16.6042 118.158 16.7419 119.349 17.1858C120.54 17.6296 121.601 18.3655 122.434 19.3259C122.507 19.409 122.611 19.4601 122.721 19.4682C122.832 19.4764 122.942 19.441 123.027 19.3695C123.112 19.298 123.165 19.1962 123.176 19.0857C123.187 18.9752 123.155 18.8648 123.086 18.7779L123.04 18.7249C122.917 18.5849 122.789 18.4509 122.658 18.3249C121.241 16.9142 119.37 16.0517 117.377 15.8906C115.385 15.7296 113.4 16.2806 111.775 17.4455C110.15 18.6104 108.991 20.3139 108.504 22.2528C108.018 24.1918 108.234 26.2406 109.116 28.0349C109.141 28.0852 109.156 28.14 109.16 28.1961C109.165 28.2523 109.158 28.3087 109.14 28.3621C109.122 28.4156 109.094 28.4649 109.057 28.5074C109.02 28.5498 108.975 28.5845 108.924 28.6094C108.874 28.6343 108.819 28.649 108.762 28.6526C108.706 28.6561 108.65 28.6485 108.597 28.6301C108.543 28.6117 108.494 28.583 108.452 28.5455C108.41 28.5081 108.376 28.4627 108.352 28.4119C107.72 27.1346 107.393 25.728 107.397 24.3029C107.395 22.4804 107.929 20.6976 108.933 19.1763C109.937 17.6551 111.366 16.4625 113.042 15.747C114.718 15.0315 116.568 14.8246 118.361 15.1521C120.154 15.4796 121.811 16.327 123.126 17.5889C123.126 17.5889 123.439 17.8809 123.584 18.0409C123.659 18.124 123.765 18.1738 123.877 18.1796C123.989 18.1854 124.099 18.1466 124.183 18.0717C124.266 17.9968 124.317 17.8918 124.324 17.7797C124.331 17.6676 124.293 17.5573 124.219 17.4729C124.192 17.4429 124.163 17.4149 124.135 17.3849C124.035 17.2749 123.929 17.1669 123.822 17.0629L123.742 16.9859C123.617 16.8669 123.491 16.7499 123.362 16.6379C121.77 15.251 119.786 14.3946 117.685 14.1882C115.584 13.9817 113.471 14.4353 111.64 15.4859C111.591 15.5138 111.538 15.5319 111.482 15.5391C111.427 15.5463 111.37 15.5425 111.316 15.528C111.262 15.5134 111.211 15.4883 111.167 15.4541C111.123 15.42 111.086 15.3774 111.058 15.3289C111.03 15.2804 111.012 15.2268 111.004 15.1713C110.997 15.1158 111.001 15.0594 111.016 15.0054C111.03 14.9514 111.055 14.9007 111.089 14.8564C111.124 14.812 111.166 14.7748 111.215 14.7469C113.091 13.6699 115.244 13.17 117.403 13.3096C119.562 13.4493 121.632 14.2222 123.355 15.5319L123.369 15.5419C123.431 15.5889 123.479 15.6119 123.541 15.6609C123.585 15.6959 123.635 15.7219 123.689 15.7374C123.743 15.7529 123.799 15.7575 123.855 15.7511C123.911 15.7447 123.965 15.7273 124.014 15.7C124.063 15.6727 124.106 15.636 124.141 15.5919C124.17 15.5563 124.193 15.5165 124.211 15.4739C124.235 15.4103 124.242 15.3412 124.231 15.2739C124.224 15.2374 124.213 15.2018 124.198 15.1679C124.19 15.1495 124.181 15.1314 124.171 15.1139C124.155 15.0908 124.137 15.0691 124.118 15.0489C122.601 13.8242 120.803 12.9951 118.887 12.6359C118.832 12.6256 118.779 12.6046 118.732 12.574C118.685 12.5434 118.645 12.5039 118.613 12.4577C118.582 12.4115 118.56 12.3595 118.548 12.3047C118.537 12.25 118.536 12.1934 118.546 12.1384C118.556 12.0834 118.578 12.0309 118.608 11.9841C118.639 11.9372 118.678 11.8968 118.724 11.8651C118.771 11.8335 118.823 11.8113 118.877 11.7998C118.932 11.7882 118.989 11.7876 119.044 11.7979C121.052 12.1726 122.939 13.0287 124.544 14.2929C124.716 14.4249 124.886 14.5539 125.068 14.6929C125.154 14.7638 125.264 14.799 125.376 14.7912C125.488 14.7834 125.592 14.7332 125.668 14.6509C125.742 14.5657 125.779 14.4547 125.771 14.3422C125.763 14.2298 125.711 14.125 125.626 14.0509C125.512 13.9509 125.395 13.8569 125.278 13.7609C125.202 13.6792 125.16 13.5722 125.16 13.4609C125.16 13.3829 125.181 13.3062 125.221 13.2392C125.261 13.1721 125.318 13.1172 125.387 13.0801C125.455 13.0431 125.533 13.0254 125.611 13.0289C125.689 13.0324 125.765 13.0569 125.83 13.0999C125.844 13.1099 125.953 13.1909 125.967 13.1999C126.84 13.9343 127.625 14.7679 128.306 15.6839C128.339 15.7288 128.381 15.7667 128.429 15.7954C128.477 15.8241 128.53 15.8431 128.586 15.8512C128.641 15.8593 128.698 15.8565 128.752 15.8428C128.806 15.8291 128.857 15.8048 128.902 15.7714C128.947 15.738 128.985 15.6961 129.014 15.648C129.042 15.5999 129.061 15.5467 129.069 15.4913C129.078 15.4359 129.075 15.3795 129.061 15.3252C129.047 15.2709 129.023 15.2198 128.99 15.1749C127.41 13.0498 125.305 11.3709 122.882 10.3021C120.459 9.23341 117.801 8.81144 115.166 9.07743C112.531 9.34343 110.01 10.2883 107.85 11.8198C105.689 13.3512 103.963 15.4169 102.84 17.8149C102.792 17.9173 102.786 18.0345 102.825 18.1409C102.863 18.2472 102.942 18.3339 103.045 18.3819C103.147 18.4299 103.264 18.4353 103.371 18.3968C103.477 18.3584 103.564 18.2793 103.612 18.1769C103.732 17.9219 103.861 17.6769 103.994 17.4269V17.4179C104.034 17.3479 104.092 17.2899 104.162 17.2499C104.227 17.2133 104.3 17.1944 104.374 17.1952C104.449 17.1961 104.522 17.2165 104.586 17.2546C104.65 17.2926 104.703 17.3469 104.739 17.412C104.775 17.477 104.794 17.5504 104.793 17.6249C104.801 17.6987 104.785 17.7731 104.747 17.8369C103.343 20.4271 102.819 23.4033 103.255 26.3169C103.255 26.3289 103.255 26.3419 103.26 26.3539C103.275 26.4539 103.293 26.5539 103.31 26.6539C103.324 26.7329 103.337 26.8129 103.352 26.8919C103.361 26.9409 103.373 26.9919 103.383 27.0389C103.409 27.1669 103.436 27.2949 103.466 27.4209L103.475 27.4569C103.831 28.9411 104.434 30.355 105.258 31.6399L105.287 31.6849C105.36 31.7979 105.436 31.9099 105.512 32.0209L105.591 32.1349C105.648 32.2169 105.708 32.2969 105.767 32.3779C105.815 32.4429 105.867 32.5079 105.911 32.5709C105.945 32.6159 105.981 32.6599 106.011 32.7039C107.393 34.4619 109.186 35.854 111.232 36.7579V36.7629C111.487 36.8749 111.745 36.9819 112.009 37.0789C112.115 37.1179 112.201 37.1974 112.248 37.3C112.296 37.4026 112.301 37.5198 112.262 37.6259C112.223 37.732 112.143 37.8183 112.041 37.8657C111.938 37.9132 111.821 37.9179 111.715 37.8789C111.494 37.7979 111.276 37.7099 111.061 37.6179C111.007 37.5994 110.951 37.5919 110.895 37.5959C110.797 37.5983 110.704 37.634 110.63 37.6969C110.555 37.7599 110.505 37.8464 110.487 37.942C110.468 38.0376 110.484 38.1366 110.529 38.2224C110.575 38.3083 110.649 38.3759 110.739 38.4139C112.637 39.2126 114.677 39.6217 116.736 39.6171C118.796 39.6125 120.834 39.1941 122.729 38.3869C121.294 37.9902 120.03 37.1336 119.13 35.9486C118.23 34.7637 117.744 33.3159 117.747 31.8279V31.8279ZM109.347 34.1819C109.312 34.2258 109.268 34.2624 109.219 34.2895C109.17 34.3167 109.116 34.3338 109.061 34.3401C109.005 34.3463 108.948 34.3414 108.895 34.3258C108.841 34.3101 108.79 34.284 108.747 34.2489C106.845 32.732 105.419 30.702 104.635 28.3993C103.852 26.0967 103.744 23.6178 104.326 21.2561C104.908 18.8944 106.154 16.7487 107.917 15.0732C109.68 13.3977 111.886 12.2625 114.275 11.8019C114.33 11.7914 114.386 11.7917 114.441 11.803C114.496 11.8142 114.548 11.8362 114.594 11.8676C114.641 11.899 114.68 11.9392 114.711 11.9859C114.742 12.0326 114.763 12.085 114.774 12.1399C114.784 12.1949 114.784 12.2514 114.773 12.3062C114.761 12.361 114.739 12.4131 114.708 12.4594C114.677 12.5058 114.636 12.5455 114.59 12.5763C114.543 12.6071 114.491 12.6283 114.436 12.6389C112.207 13.0688 110.148 14.1284 108.503 15.6922C106.858 17.256 105.695 19.2584 105.153 21.4625C104.611 23.6665 104.711 25.9798 105.443 28.1284C106.175 30.277 107.507 32.171 109.282 33.5859C109.326 33.6208 109.362 33.6641 109.389 33.7132C109.416 33.7623 109.434 33.8163 109.44 33.872C109.446 33.9278 109.441 33.9842 109.426 34.0381C109.41 34.0919 109.384 34.1422 109.349 34.1859L109.347 34.1819ZM116.038 34.8819C116.027 34.9868 115.978 35.084 115.9 35.1547C115.822 35.2254 115.72 35.2647 115.615 35.2649H115.571C113.488 35.0506 111.509 34.2473 109.867 32.9489C108.224 31.6505 106.985 29.9109 106.296 27.9339C105.606 25.9569 105.494 23.8243 105.973 21.786C106.452 19.7477 107.502 17.888 109 16.4249C109.081 16.3454 109.19 16.3012 109.303 16.3021C109.417 16.3031 109.525 16.349 109.605 16.4299C109.684 16.5108 109.728 16.62 109.727 16.7335C109.727 16.8469 109.681 16.9554 109.6 17.0349C108.218 18.3849 107.25 20.1006 106.808 21.981C106.366 23.8615 106.47 25.8289 107.106 27.6528C107.742 29.4767 108.884 31.0816 110.4 32.2796C111.915 33.4775 113.74 34.2189 115.662 34.4169C115.772 34.429 115.874 34.4841 115.945 34.5703C116.015 34.6565 116.05 34.7669 116.04 34.8779L116.038 34.8819ZM103.29 29.7119C103.332 29.8168 103.331 29.9342 103.287 30.0383C103.242 30.1424 103.159 30.2246 103.054 30.2669C102.949 30.3092 102.831 30.3081 102.727 30.2639C102.623 30.2196 102.541 30.1358 102.499 30.0309C101.764 28.2109 101.387 26.2658 101.391 24.3029C101.391 23.378 101.474 22.455 101.639 21.5449C101.659 21.4337 101.723 21.335 101.816 21.2707C101.909 21.2064 102.023 21.1816 102.135 21.2019C102.246 21.2222 102.345 21.2859 102.409 21.3789C102.473 21.4719 102.498 21.5867 102.478 21.6979C102.378 22.2575 102.311 22.8225 102.278 23.3899C102.278 23.3959 102.278 23.4029 102.278 23.4089C102.269 23.5542 102.262 23.6996 102.258 23.8449C102.258 23.8569 102.258 23.8679 102.258 23.8799C102.258 24.0209 102.249 24.1619 102.249 24.3029C102.245 26.155 102.599 27.9903 103.292 29.7079L103.29 29.7119Z" fill="#161613"/>
<path d="M124.777 16.5859C125.013 16.5859 125.205 16.3943 125.205 16.1579C125.205 15.9215 125.013 15.7299 124.777 15.7299C124.54 15.7299 124.349 15.9215 124.349 16.1579C124.349 16.3943 124.54 16.5859 124.777 16.5859Z" fill="#161613"/>
<path d="M124.711 19.1649C124.947 19.1649 125.139 18.9733 125.139 18.7369C125.139 18.5005 124.947 18.3089 124.711 18.3089C124.474 18.3089 124.283 18.5005 124.283 18.7369C124.283 18.9733 124.474 19.1649 124.711 19.1649Z" fill="#161613"/>
<path d="M125.376 20.2639C125.612 20.2639 125.804 20.0723 125.804 19.8359C125.804 19.5995 125.612 19.4079 125.376 19.4079C125.139 19.4079 124.948 19.5995 124.948 19.8359C124.948 20.0723 125.139 20.2639 125.376 20.2639Z" fill="#161613"/>
<path d="M126.28 15.6719C126.516 15.6719 126.708 15.4803 126.708 15.2439C126.708 15.0075 126.516 14.8159 126.28 14.8159C126.043 14.8159 125.852 15.0075 125.852 15.2439C125.852 15.4803 126.043 15.6719 126.28 15.6719Z" fill="#161613"/>
<path d="M127.116 16.6469C127.352 16.6469 127.544 16.4553 127.544 16.2189C127.544 15.9825 127.352 15.7909 127.116 15.7909C126.879 15.7909 126.688 15.9825 126.688 16.2189C126.688 16.4553 126.879 16.6469 127.116 16.6469Z" fill="#161613"/>
<path d="M102.534 20.1989C102.77 20.1989 102.962 20.0073 102.962 19.7709C102.962 19.5345 102.77 19.3429 102.534 19.3429C102.297 19.3429 102.106 19.5345 102.106 19.7709C102.106 20.0073 102.297 20.1989 102.534 20.1989Z" fill="#161613"/>
<path d="M109.729 37.9279C109.965 37.9279 110.157 37.7363 110.157 37.4999C110.157 37.2635 109.965 37.0719 109.729 37.0719C109.492 37.0719 109.301 37.2635 109.301 37.4999C109.301 37.7363 109.492 37.9279 109.729 37.9279Z" fill="#161613"/>
<path d="M108.639 37.2479C108.875 37.2479 109.067 37.0563 109.067 36.8199C109.067 36.5835 108.875 36.3919 108.639 36.3919C108.402 36.3919 108.211 36.5835 108.211 36.8199C108.211 37.0563 108.402 37.2479 108.639 37.2479Z" fill="#161613"/>
<path d="M124.539 37.3509C127.588 37.3509 130.061 34.8786 130.061 31.8289C130.061 28.7792 127.588 26.3069 124.539 26.3069C121.489 26.3069 119.017 28.7792 119.017 31.8289C119.017 34.8786 121.489 37.3509 124.539 37.3509Z" fill="#161613"/>
<path d="M120.669 36.9649C119.163 36.9649 117.691 36.5185 116.44 35.682C115.188 34.8455 114.212 33.6566 113.636 32.2657C113.06 30.8747 112.909 29.3441 113.203 27.8675C113.497 26.3909 114.222 25.0346 115.286 23.9701C116.351 22.9056 117.708 22.1807 119.184 21.8871C120.661 21.5935 122.191 21.7444 123.582 22.3206C124.973 22.8969 126.162 23.8727 126.998 25.1247C127.835 26.3766 128.281 27.8484 128.281 29.3539C128.278 31.3719 127.475 33.3066 126.048 34.7334C124.621 36.1603 122.687 36.9628 120.669 36.9649V36.9649Z" stroke="#161613" stroke-width="0.4" stroke-linecap="round" stroke-linejoin="round" stroke-dasharray="1.05 1.05"/>
<path d="M120.669 35.9239C124.297 35.9239 127.239 32.9824 127.239 29.3539C127.239 25.7254 124.297 22.7839 120.669 22.7839C117.04 22.7839 114.099 25.7254 114.099 29.3539C114.099 32.9824 117.04 35.9239 120.669 35.9239Z" stroke="#161613" stroke-width="0.6" stroke-miterlimit="10"/>
<path d="M120.669 34.8819C119.575 34.8819 118.507 34.5577 117.598 33.9503C116.688 33.3428 115.98 32.4795 115.562 31.4694C115.143 30.4593 115.034 29.3478 115.247 28.2755C115.46 27.2031 115.987 26.2181 116.76 25.445C117.533 24.6719 118.518 24.1454 119.59 23.9321C120.663 23.7188 121.774 23.8283 122.784 24.2467C123.794 24.6651 124.658 25.3737 125.265 26.2827C125.873 27.1918 126.197 28.2606 126.197 29.3539C126.195 30.8196 125.612 32.2247 124.576 33.261C123.54 34.2974 122.134 34.8803 120.669 34.8819V34.8819Z" stroke="#161613" stroke-width="0.4" stroke-linecap="round" stroke-linejoin="round" stroke-dasharray="1.05 1.05"/>
<path d="M152.483 38.0059L142.434 24.6329L136.491 30.7229V38.0049H133.034V10.5979H136.49V25.9369L151.87 10.5979H155.949L144.734 22.2859L156.458 38.0059H152.483Z" fill="#161613"/>
<path d="M98.7418 10.5929H95.2858V38.0049H98.7418V10.5929Z" fill="#161613"/>
<path d="M195.881 34.5799C193.824 34.5775 191.851 33.7593 190.397 32.3047C188.942 30.8502 188.124 28.878 188.122 26.8209V24.6799H197.622V21.2239H188.122V10.5469H184.646V26.8159C184.649 29.7949 185.834 32.651 187.94 34.7575C190.047 36.8639 192.903 38.0487 195.882 38.0519H197.62V34.5799H195.881Z" fill="#161613"/>
<path d="M82.3937 10.5619C79.7083 10.5619 77.1319 11.6236 75.2263 13.5157C73.3208 15.4078 72.2407 17.9766 72.2217 20.6619C72.2217 20.6849 72.2217 20.7079 72.2217 20.7319V37.9979H75.6827V20.7389C75.6827 18.9588 76.3898 17.2516 77.6486 15.9928C78.9073 14.7341 80.6145 14.0269 82.3947 14.0269C84.1748 14.0269 85.882 14.7341 87.1408 15.9928C88.3995 17.2516 89.1067 18.9588 89.1067 20.7389C89.1067 20.9029 89.0987 21.0659 89.0867 21.2269H92.5557C92.5637 21.0649 92.5677 20.9029 92.5677 20.7389C92.5682 19.4026 92.3054 18.0792 91.7943 16.8444C91.2833 15.6097 90.5339 14.4877 89.5891 13.5426C88.6443 12.5975 87.5226 11.8478 86.2879 11.3364C85.0533 10.825 83.73 10.5618 82.3937 10.5619V10.5619Z" fill="#161613"/>
<path d="M65.1327 28.5219C64.1667 30.6689 62.4938 32.4198 60.3929 33.4825C58.2921 34.5451 55.8904 34.8553 53.5885 34.3613C51.2867 33.8673 49.2237 32.599 47.7439 30.7679C46.2641 28.9368 45.4569 26.6537 45.4569 24.2994C45.4569 21.9451 46.2641 19.662 47.7439 17.8309C49.2237 15.9998 51.2867 14.7315 53.5885 14.2375C55.8904 13.7435 58.2921 14.0537 60.3929 15.1164C62.4938 16.1791 64.1667 17.9299 65.1327 20.0769H68.8397C67.8336 16.9584 65.7469 14.3016 62.9556 12.5851C60.1643 10.8686 56.8518 10.2053 53.6148 10.7145C50.3778 11.2238 47.429 12.8722 45.2995 15.3628C43.1701 17.8534 42 21.0226 42 24.2994C42 27.5763 43.1701 30.7454 45.2995 33.2361C47.429 35.7267 50.3778 37.3751 53.6148 37.8843C56.8518 38.3936 60.1643 37.7302 62.9556 36.0137C65.7469 34.2973 67.8336 31.6405 68.8397 28.5219H65.1327Z" fill="#161613"/>
<path d="M181.918 24.6799C181.918 24.5679 181.918 24.4559 181.918 24.3439C181.912 20.899 180.617 17.581 178.286 15.044C175.956 12.5069 172.759 10.9349 169.327 10.6378C165.895 10.3406 162.476 11.3399 159.744 13.4386C157.013 15.5373 155.166 18.5833 154.569 21.976C153.971 25.3688 154.666 28.8623 156.517 31.7679C158.368 34.6735 161.24 36.7804 164.567 37.6734C167.894 38.5664 171.435 38.1807 174.492 36.5922C177.549 35.0038 179.9 32.3279 181.082 29.0919H177.31C176.211 31.2156 174.409 32.8923 172.212 33.8364C170.016 34.7805 167.559 34.9335 165.262 34.2692C162.965 33.605 160.97 32.1647 159.616 30.1938C158.262 28.2229 157.633 25.8434 157.837 23.461C158.042 21.0786 159.066 18.8407 160.735 17.1288C162.404 15.4169 164.616 14.3369 166.992 14.073C169.369 13.8092 171.763 14.3776 173.768 15.6816C175.772 16.9856 177.262 18.9443 177.984 21.2239H163.116V24.6799H181.918Z" fill="#161613"/>
<path d="M156.02 52.8349C158.794 52.8349 161.043 50.5861 161.043 47.8119C161.043 45.0378 158.794 42.7889 156.02 42.7889C153.245 42.7889 150.997 45.0378 150.997 47.8119C150.997 50.5861 153.245 52.8349 156.02 52.8349Z" fill="#161613"/>
<path d="M165.917 47.8429V47.8149C165.908 47.146 166.035 46.4823 166.289 45.8635C166.543 45.2447 166.92 44.6836 167.396 44.2137C167.872 43.7438 168.438 43.3748 169.06 43.1288C169.682 42.8828 170.348 42.7648 171.017 42.7819C171.816 42.7446 172.612 42.9102 173.33 43.2632C174.048 43.6162 174.665 44.1452 175.124 44.8009L173.105 46.3639C172.869 46.0183 172.554 45.7346 172.186 45.5372C171.817 45.3397 171.407 45.2343 170.989 45.2299C170.667 45.2404 170.351 45.3156 170.059 45.451C169.768 45.5864 169.506 45.7792 169.291 46.0179C169.075 46.2565 168.91 46.5362 168.805 46.8402C168.7 47.1441 168.657 47.4661 168.68 47.7869V47.8149C168.653 48.138 168.693 48.4631 168.796 48.7704C168.9 49.0777 169.064 49.3608 169.28 49.6026C169.496 49.8444 169.759 50.0399 170.052 50.1771C170.346 50.3143 170.665 50.3905 170.989 50.4009C171.421 50.3987 171.846 50.2903 172.227 50.0855C172.608 49.8806 172.933 49.5855 173.174 49.2259L175.191 50.6639C174.574 51.5453 173.694 52.2089 172.677 52.56C171.66 52.9111 170.558 52.9316 169.529 52.6186C168.499 52.3056 167.596 51.6752 166.946 50.8174C166.297 49.9596 165.935 48.9185 165.914 47.8429H165.917Z" fill="#161613"/>
<path d="M175.735 47.8429V47.8149C175.784 46.4677 176.352 45.1918 177.322 44.2548C178.291 43.3177 179.585 42.7923 180.933 42.7887C182.281 42.7851 183.578 43.3035 184.553 44.2354C185.527 45.1672 186.102 46.44 186.159 47.7869V47.8149C186.11 49.1621 185.541 50.438 184.572 51.3751C183.602 52.3121 182.308 52.8375 180.96 52.8412C179.612 52.8448 178.315 52.3263 177.341 51.3945C176.366 50.4627 175.791 49.1898 175.735 47.8429V47.8429ZM183.422 47.8429V47.8149C183.435 47.4787 183.38 47.1433 183.261 46.8286C183.142 46.5138 182.961 46.2261 182.729 45.9825C182.497 45.7388 182.219 45.5442 181.91 45.4102C181.601 45.2761 181.269 45.2053 180.933 45.2019C180.6 45.2041 180.271 45.2735 179.966 45.4059C179.661 45.5384 179.386 45.7311 179.158 45.9726C178.929 46.214 178.751 46.4992 178.636 46.811C178.52 47.1228 178.469 47.4548 178.485 47.7869V47.8149C178.471 48.1502 178.525 48.4847 178.643 48.7988C178.761 49.1129 178.941 49.4001 179.171 49.6437C179.402 49.8872 179.679 50.0821 179.987 50.2168C180.294 50.3515 180.625 50.4233 180.961 50.4279C181.294 50.4272 181.624 50.3589 181.931 50.2272C182.237 50.0954 182.514 49.9029 182.744 49.6614C182.974 49.4198 183.152 49.1341 183.269 48.8216C183.385 48.509 183.437 48.1761 183.422 47.8429V47.8429Z" fill="#161613"/>
<path d="M187.556 42.9739H190.39L192.699 46.7209L195.007 42.9739H197.839V52.6519H195.171V47.0919L192.699 50.8819H192.639L190.178 47.1199V52.6519H187.552L187.556 42.9739Z" fill="#161613"/>
</svg>
