<svg width="240" height="56" viewBox="0 0 240 56" fill="none" xmlns="http://www.w3.org/2000/svg">
<path d="M168.785 50.9902C168.684 50.9044 168.555 50.9115 168.433 50.8829C168.089 50.8043 168.039 50.7328 168.103 50.3824C168.211 49.7461 168.29 49.1026 168.354 48.4591C168.405 47.9085 168.498 47.3579 168.491 46.8074C168.484 46.121 168.426 45.4274 168.304 44.7482C168.254 44.4765 168.304 44.1976 168.297 43.9188C168.261 42.7033 168.304 41.4878 168.34 40.2723C168.347 39.9219 168.268 39.5716 168.225 39.2284C168.168 38.7922 168.125 38.3561 168.068 37.9199C168.01 37.4551 167.931 36.9904 167.874 36.5185C167.817 36.0823 167.788 35.6462 167.716 35.21C167.645 34.7882 167.645 34.3663 167.573 33.9445C167.508 33.5441 167.523 33.1294 167.472 32.7218C167.415 32.2714 167.415 31.8066 167.322 31.3562C167.286 31.1631 167.286 30.9558 167.279 30.7556C167.257 30.298 167.2 29.8404 167.164 29.3828C167.114 28.8537 167.092 28.3246 167.042 27.7954C167.013 27.5023 166.992 27.202 166.97 26.9017C166.949 26.5513 166.942 26.1938 166.892 25.8435C166.856 25.6004 166.856 25.3501 166.834 25.0999C166.784 24.5064 166.77 23.9058 166.734 23.3124C166.691 22.6117 166.648 21.9181 166.59 21.2174C166.504 20.1807 166.662 19.1439 166.655 18.1072C166.655 17.5065 166.669 16.8988 166.691 16.2982C166.719 15.4116 166.777 14.525 166.791 13.6384C166.813 12.716 166.87 11.7865 166.877 10.8642C166.884 10.3422 167.085 9.87031 167.193 9.37696C167.329 8.75491 167.53 8.14 167.666 7.51795C167.702 7.36065 167.788 7.30345 167.903 7.2534C168.426 7.03175 168.95 6.8244 169.473 6.5956C169.545 6.567 169.617 6.567 169.688 6.567C170.305 6.567 170.922 6.5384 171.531 6.57415C172.313 6.6099 173.088 6.71715 173.869 6.74575C174.45 6.7672 175.017 6.87445 175.59 6.94595C175.798 6.97455 175.992 6.88875 176.186 6.83155C177.713 6.35964 179.291 6.15229 180.861 5.86629C181.284 5.78764 181.665 5.90919 182.066 5.95924C182.353 5.99499 182.367 5.99499 182.31 5.72329C182.274 5.55169 182.26 5.38009 182.21 5.20849C182.181 5.10839 182.181 4.98684 182.375 5.00114C182.654 5.02259 182.934 5.00829 183.214 5.00114C183.35 5.00114 183.465 5.05834 183.579 5.12269C183.909 5.31574 184.239 5.50879 184.569 5.71614C184.698 5.80194 184.834 5.82339 184.985 5.82339C185.63 5.80909 186.276 5.80194 186.928 5.78764C187.093 5.78049 187.158 5.84484 187.194 5.99499C187.316 6.45259 187.445 6.90305 187.588 7.36065C187.631 7.4965 187.61 7.56085 187.459 7.60375C187.165 7.6824 186.885 7.7968 186.598 7.8826C186.455 7.9255 186.405 7.9827 186.412 8.14C186.534 10.4352 186.613 12.7375 186.692 15.0326C186.756 16.9274 186.735 18.8222 186.728 20.7098C186.728 21.339 186.828 21.9467 186.993 22.5402C187.251 23.4625 187.237 24.392 187.215 25.3287C187.179 26.9875 187.086 28.6392 187.115 30.298C187.143 32.6074 187.215 34.9097 187.495 37.2049C187.653 38.5062 187.775 39.8147 187.896 41.1231C187.947 41.6236 187.818 42.117 187.739 42.6032C187.567 43.7114 187.502 44.8268 187.416 45.9351C187.402 46.0995 187.38 46.2568 187.308 46.407C187.143 46.7788 186.986 47.1577 186.821 47.5295C186.756 47.6654 186.756 47.7798 186.835 47.9156C187.007 48.1873 187.151 48.4662 187.316 48.7379C187.38 48.8451 187.38 48.9024 187.251 48.9596C186.935 49.1097 186.62 49.267 186.304 49.4243C186.132 49.503 185.967 49.4315 185.802 49.41C185.135 49.3314 184.469 49.2456 183.816 49.0954C183.716 49.074 183.601 49.0811 183.5 49.1026C182.618 49.2813 181.729 49.2813 180.84 49.3314C178.739 49.4458 176.637 49.553 174.536 49.6817C173.733 49.7318 172.937 49.839 172.141 49.932C172.012 49.9463 171.876 49.9749 171.761 50.0321C171.381 50.2108 171.001 50.2537 170.606 50.0964C170.449 50.0321 170.327 50.0678 170.212 50.1894C169.896 50.5254 169.488 50.7399 169.115 50.9973C168.978 50.9902 168.878 50.9902 168.785 50.9902ZM169.853 41.5664C169.86 41.6665 169.868 41.7595 169.882 41.8453C170.133 43.6542 170.319 45.4703 170.449 47.2936C170.477 47.7154 170.563 48.0515 170.986 48.2231C171.094 48.266 171.18 48.3446 171.273 48.409C171.331 48.4447 171.374 48.4805 171.453 48.4662C172.277 48.2874 173.123 48.2374 173.919 47.9585C174.371 47.8012 174.823 47.6296 175.282 47.4795C175.461 47.4223 175.626 47.3293 175.82 47.3222C176.465 47.2936 177.111 47.2578 177.756 47.2149C178.344 47.172 178.939 47.1935 179.513 47.0576C179.986 46.9504 180.445 46.9647 180.919 47.0505C182.353 47.3079 183.809 47.408 185.265 47.5152C185.444 47.5295 185.494 47.4795 185.516 47.3007C185.702 45.6062 185.716 43.9116 185.573 42.2171C185.516 41.545 185.551 40.8514 185.336 40.2079C184.999 39.1855 185.057 38.1558 185.143 37.1119C185.186 36.6329 185.265 36.1538 185.257 35.6748C185.236 34.2448 185.179 32.8219 185.143 31.3919C185.128 30.8557 185.035 30.3194 185.207 29.7903C185.315 29.4686 185.372 29.1254 185.458 28.7965C185.473 28.7321 185.487 28.6749 185.48 28.6034C185.279 27.3664 185.078 26.1223 184.877 24.8854C184.755 24.106 184.547 23.3338 184.504 22.5473C184.447 21.5678 184.433 20.5954 184.404 19.6158C184.354 17.8211 184.239 16.0336 184.153 14.239C184.11 13.3524 184.088 12.4586 183.995 11.5792C183.866 10.3565 183.68 9.13386 183.529 7.91835C183.508 7.7539 183.429 7.74675 183.307 7.74675C182.482 7.74675 181.65 7.74675 180.825 7.74675C180.732 7.74675 180.646 7.76105 180.56 7.78965C179.692 8.13285 178.782 8.26155 177.871 8.426C177.247 8.5404 176.602 8.57616 175.992 8.77636C175.397 8.96941 174.809 9.16246 174.192 9.23396C173.898 9.26971 173.611 9.37696 173.296 9.29831C172.306 9.04806 171.302 8.83356 170.284 8.72631C170.147 8.71201 170.047 8.68341 169.997 8.87646C169.667 10.1277 169.466 11.3933 169.409 12.6803C169.33 14.3391 169.201 15.9979 169.007 17.6567C168.77 19.6659 168.627 21.6822 168.527 23.7056C168.519 23.8272 168.534 23.9487 168.57 24.0631C168.799 24.7924 169.021 25.5289 169.237 26.2582C169.33 26.5871 169.488 26.9017 169.509 27.2449C169.559 27.9957 169.602 28.7393 169.638 29.49C169.703 30.9915 169.66 32.493 169.667 33.9945C169.667 34.0875 169.667 34.1733 169.674 34.2662C169.817 35.2672 169.99 36.2611 170.083 37.2692C170.154 38.1058 170.233 38.9352 170.076 39.7789C169.968 40.3724 169.925 40.9801 169.853 41.5664Z" fill="#161613"/>
<path d="M191.941 48.2016C191.841 48.2374 191.869 48.3303 191.848 48.4018C191.583 49.2026 190.751 49.6745 189.926 49.4886C189.037 49.2884 188.506 48.5162 188.635 47.6153C188.757 46.7717 189.488 46.1782 190.342 46.2283C191.088 46.2712 191.618 46.6716 191.862 47.3651C191.877 47.4151 191.862 47.4938 191.948 47.5153C191.941 47.7441 191.941 47.9728 191.941 48.2016ZM188.779 47.8656C188.771 48.6807 189.445 49.3671 190.263 49.3671C191.088 49.3742 191.762 48.7021 191.769 47.8799C191.776 47.0577 191.116 46.3927 190.306 46.3856C189.453 46.3856 188.779 47.0291 188.779 47.8656Z" fill="#161613"/>
<path d="M54.7742 39.8576C55.0682 39.0997 55.3479 38.3847 55.6276 37.6768C56.1511 36.3326 56.6746 34.9956 57.1981 33.6513C57.2483 33.5298 57.2985 33.4726 57.4419 33.4797C58.4961 33.4869 59.5575 33.4869 60.6117 33.4797C60.7623 33.4797 60.8196 33.5226 60.7981 33.6728C60.7838 33.7943 60.8627 33.9588 60.6188 33.9516C60.4682 33.9445 60.3105 33.9802 60.1599 34.016C59.6937 34.1447 59.4642 34.445 59.4642 34.9241C59.4714 35.8178 59.5933 36.6973 59.6722 37.5839C59.7583 38.5205 59.8587 39.45 59.9519 40.3867C59.9806 40.6584 60.0308 40.9158 60.1097 41.1803C60.2889 41.7523 60.669 42.0955 61.2786 42.1384C61.5081 42.1527 61.5583 42.2457 61.5439 42.453C61.5368 42.5889 61.5009 42.6318 61.3647 42.6318C60.9057 42.6246 60.4467 42.6318 59.9877 42.6318C58.9981 42.6318 58.0013 42.6318 57.0116 42.6318C56.9184 42.6318 56.775 42.689 56.8037 42.4959C56.8252 42.3672 56.7104 42.1742 56.9829 42.1599C57.908 42.1027 58.1447 41.6808 58.1088 40.7656C58.03 38.9209 57.779 37.0977 57.6355 35.2601C57.6284 35.2101 57.6284 35.16 57.6212 35.1171C57.614 35.0814 57.6069 35.0313 57.5567 35.0242C57.5136 35.017 57.4778 35.0456 57.4634 35.0885C57.4419 35.1386 57.4204 35.1958 57.3989 35.2458C56.4666 37.6339 55.5272 40.022 54.6092 42.4173C54.5088 42.6747 54.351 42.6103 54.1718 42.6389C53.9781 42.6675 53.9208 42.5531 53.8634 42.4101C52.9311 40.0149 51.9988 37.6125 51.0594 35.2172C51.0307 35.1457 51.0379 35.0242 50.9375 35.0313C50.8084 35.0456 50.8658 35.1743 50.8586 35.253C50.6865 37.0333 50.5144 38.8065 50.3422 40.5869C50.3207 40.7799 50.3207 40.973 50.3566 41.1732C50.4498 41.7738 50.7367 42.0598 51.3391 42.1599C51.5901 42.2028 51.6474 42.2957 51.5972 42.5531C51.5757 42.6532 51.5184 42.6389 51.4538 42.6389C50.3566 42.6389 49.2594 42.6389 48.1621 42.6389C48.0689 42.6389 47.9829 42.6318 48.0187 42.5102C48.0546 42.403 47.8968 42.2171 48.1335 42.1813C48.2052 42.167 48.2769 42.1599 48.3558 42.1527C48.8434 42.0884 49.1661 41.8238 49.3454 41.3805C49.496 41.0016 49.5391 40.6083 49.5821 40.2079C49.7972 38.3132 50.0052 36.4184 50.2203 34.5237C50.2347 34.3735 50.1916 34.2805 50.0626 34.2019C49.7614 34.016 49.4171 33.9516 49.0729 33.9659C48.8506 33.9731 48.8578 33.873 48.8434 33.7085C48.8291 33.5012 48.9295 33.494 49.0873 33.494C50.1128 33.5012 51.1383 33.5012 52.1638 33.494C52.3359 33.494 52.4004 33.5512 52.4578 33.7014C53.2036 35.6891 53.9494 37.6768 54.7024 39.6645C54.7096 39.7003 54.7311 39.7503 54.7742 39.8576Z" fill="#161613"/>
<path d="M151.788 33.2295C153.201 33.2724 154.542 33.587 155.675 34.5236C156.565 35.2529 157.102 36.1753 157.275 37.3122C157.44 38.399 157.26 39.4143 156.679 40.3509C156.077 41.3305 155.209 42.0026 154.133 42.4101C153.244 42.7462 152.319 42.8391 151.373 42.7962C150.318 42.7462 149.35 42.4602 148.468 41.8667C147.672 41.3305 147.134 40.6083 146.761 39.736C146.46 39.021 146.388 38.2703 146.46 37.5267C146.539 36.6758 146.847 35.8893 147.378 35.1957C148.382 33.9016 149.752 33.3582 151.344 33.2438C151.494 33.2438 151.631 33.2366 151.788 33.2295ZM155.345 37.9771C155.317 37.6697 155.31 37.3122 155.259 36.9547C155.023 35.2458 153.954 34.1876 152.255 33.9731C150.899 33.8015 149.637 34.4164 149.027 35.6319C148.289 37.1048 148.246 38.6349 148.877 40.1507C149.429 41.4663 150.49 42.117 151.91 42.0955C153.337 42.0741 154.37 41.4163 154.958 40.1078C155.259 39.4429 155.324 38.735 155.345 37.9771Z" fill="#161613"/>
<path d="M70.7305 33.2438C71.8851 33.2581 73.1257 33.5512 74.2158 34.3449C75.2054 35.0671 75.8222 36.0252 76.0445 37.2407C76.4819 39.686 74.8971 41.7595 72.8891 42.4244C70.917 43.0822 68.9807 43.0107 67.2309 41.8167C64.3982 39.8862 64.642 35.6033 67.6468 33.9445C68.5504 33.444 69.5329 33.2509 70.7305 33.2438ZM74.1226 38.02C74.1154 37.4695 74.0652 36.9261 73.9146 36.397C73.5058 34.9169 72.3943 34.0375 70.8524 33.9516C69.3536 33.8658 68.1416 34.6309 67.5966 36.0538C67.109 37.3336 67.0803 38.6421 67.5536 39.9291C68.0341 41.2232 68.9663 41.9668 70.3719 42.0884C71.921 42.2171 73.262 41.3877 73.7998 39.9362C74.0365 39.3213 74.1154 38.6778 74.1226 38.02Z" fill="#161613"/>
<path d="M82.4986 35.5533C82.4915 36.8689 82.4915 38.1845 82.4915 39.4929C82.4915 40.0006 82.4771 40.5011 82.5273 41.0087C82.599 41.7023 83.0365 42.1313 83.7321 42.1599C83.7895 42.1599 83.8469 42.1599 83.9042 42.1599C84.1552 42.1599 84.2413 42.2957 84.1696 42.5388C84.1481 42.6246 84.0907 42.6103 84.0405 42.6103C82.8285 42.6103 81.6166 42.6103 80.4046 42.6103C80.2827 42.6103 80.254 42.546 80.2827 42.4602C80.3185 42.3601 80.1679 42.1956 80.3974 42.1599C80.6699 42.117 80.9496 42.0884 81.2006 41.9239C81.4731 41.7452 81.6381 41.5021 81.7026 41.1946C81.7456 41.0016 81.76 40.7942 81.76 40.594C81.7672 38.9638 81.76 37.3265 81.76 35.6963C81.76 35.396 81.7313 35.0885 81.6237 34.8097C81.4014 34.2377 80.8922 34.0589 80.3472 33.9802C80.0675 33.9373 79.9528 33.8086 80.0317 33.5441C80.0532 33.4654 80.1106 33.4726 80.1679 33.4726C81.1432 33.4726 82.1185 33.4726 83.0939 33.4726C83.2014 33.4726 83.2588 33.5441 83.3162 33.6084C83.9042 34.2806 84.4923 34.9527 85.0803 35.6319C85.5536 36.1753 86.027 36.7259 86.5003 37.2693C87.2031 38.0844 87.9059 38.8923 88.6087 39.7074C88.7306 39.8504 88.8597 39.9791 88.9887 40.115C89.082 40.0792 89.0389 40.0006 89.0389 39.9434C89.0389 38.449 89.0533 36.9547 89.0318 35.4603C89.0246 35.0313 89.0174 34.5737 88.6373 34.252C88.4437 34.0875 88.2142 33.9945 87.9704 33.9874C87.8413 33.9802 87.7122 33.9445 87.5903 33.923C87.4182 33.8944 87.5329 33.7228 87.5043 33.6156C87.4827 33.5155 87.5258 33.4654 87.6405 33.4726C87.7553 33.4797 87.87 33.4726 87.9847 33.4726C89.0103 33.4726 90.0358 33.4797 91.0541 33.4726C91.2262 33.4726 91.2836 33.5155 91.2764 33.6871C91.2692 33.8372 91.2764 33.9516 91.0684 33.9445C90.8963 33.9373 90.717 33.9659 90.5449 34.016C90.0429 34.1518 89.7776 34.5308 89.7704 35.1171C89.7632 35.968 89.7632 36.8117 89.7632 37.6625C89.7632 39.2999 89.7561 40.9444 89.7704 42.5817C89.7704 42.7676 89.7274 42.8391 89.5409 42.8105C89.462 42.7962 89.376 42.7962 89.2971 42.8105C88.8668 42.9035 88.6589 42.6175 88.4294 42.3458C88.1927 42.0669 87.9561 41.7881 87.7122 41.5021C87.3537 41.0802 86.9951 40.6512 86.6365 40.2365C86.4142 39.972 86.1776 39.7217 85.9552 39.4572C85.5895 39.0282 85.2381 38.592 84.8652 38.1702C84.65 37.9271 84.4421 37.6911 84.2341 37.4409C83.7321 36.8331 83.2158 36.2397 82.6994 35.6462C82.6707 35.6105 82.6277 35.5819 82.5919 35.5461C82.5847 35.5175 82.5775 35.4961 82.5417 35.4961C82.5345 35.4889 82.5201 35.4818 82.513 35.4675C82.513 35.4746 82.513 35.4818 82.513 35.4889C82.5273 35.4889 82.5345 35.4889 82.5488 35.4889C82.5201 35.5247 82.513 35.539 82.4986 35.5533Z" fill="#161613"/>
<path d="M128.238 40.115C128.245 39.0854 128.252 38.0558 128.252 37.0333C128.252 36.4327 128.245 35.825 128.231 35.2243C128.223 35.0527 128.18 34.874 128.137 34.7095C128.023 34.3163 127.614 33.9945 127.184 33.9874C127.098 33.9874 127.033 33.9659 126.954 33.9516C126.739 33.9159 126.653 33.7586 126.717 33.5584C126.753 33.4511 126.832 33.4869 126.897 33.4869C128.03 33.4869 129.156 33.4869 130.289 33.4797C130.461 33.4797 130.49 33.5441 130.49 33.6942C130.482 33.8372 130.504 33.9731 130.289 33.9516C130.102 33.9373 129.923 33.9945 129.744 34.0374C129.213 34.159 129.077 34.5665 129.012 34.9455C128.976 35.1457 128.984 35.353 128.984 35.5533C128.984 37.8913 128.976 40.2222 128.984 42.5603C128.984 42.7677 128.941 42.8678 128.718 42.8249C128.69 42.8177 128.654 42.8177 128.618 42.8249C128.087 42.9607 127.829 42.6032 127.549 42.26C127.32 41.974 127.076 41.6951 126.832 41.4163C126.474 40.9944 126.122 40.5654 125.756 40.1507C125.527 39.879 125.283 39.6216 125.054 39.3571C124.595 38.8208 124.15 38.2703 123.684 37.7483C123.361 37.3908 123.053 37.0262 122.737 36.6544C122.45 36.3183 122.142 36.0037 121.884 35.6462C121.855 35.6033 121.798 35.5747 121.733 35.5175C121.726 35.6176 121.719 35.6891 121.719 35.7678C121.719 37.4409 121.712 39.114 121.719 40.7871C121.719 41.2804 121.848 41.738 122.307 42.0169C122.572 42.1742 122.874 42.2171 123.175 42.1813C123.383 42.1599 123.383 42.26 123.39 42.4173C123.397 42.5961 123.34 42.6318 123.175 42.6318C122.02 42.6247 120.866 42.6318 119.711 42.6247C119.625 42.6247 119.474 42.689 119.496 42.496C119.51 42.3529 119.417 42.1599 119.697 42.1599C119.941 42.1599 120.17 42.0884 120.392 41.974C120.794 41.7595 120.923 41.3734 120.944 40.973C121.016 39.7932 120.973 38.6135 120.98 37.4337C120.98 36.9332 121.023 36.4327 120.966 35.9394C120.923 35.5461 121.002 35.1314 120.794 34.7453C120.586 34.3592 120.263 34.1733 119.883 34.0589C119.761 34.0231 119.625 33.9874 119.482 33.9874C119.288 33.9874 119.166 33.7228 119.252 33.5512C119.288 33.4797 119.345 33.5012 119.403 33.5012C120.364 33.5012 121.317 33.5012 122.278 33.5012C122.393 33.5012 122.458 33.5512 122.522 33.6299C123.684 34.9669 124.846 36.304 126.007 37.6411C126.689 38.4276 127.37 39.2141 128.044 40.0006C128.087 40.0506 128.13 40.1221 128.209 40.1293C128.209 40.1436 128.216 40.1507 128.216 40.165C128.238 40.1364 128.238 40.1293 128.238 40.115Z" fill="#161613"/>
<path d="M114.067 42.6175C113.386 42.6175 112.704 42.6175 112.023 42.6103C111.937 42.6103 111.765 42.6961 111.787 42.4816C111.801 42.3458 111.693 42.1599 111.987 42.1599C112.246 42.1599 112.518 42.1098 112.719 41.9025C112.848 41.7738 112.898 41.6308 112.848 41.4449C112.661 40.7942 112.36 40.1793 112.174 39.5287C112.073 39.1855 111.894 39.1783 111.614 39.1783C110.718 39.1926 109.829 39.1855 108.932 39.1855C108.839 39.1855 108.739 39.164 108.696 39.2927C108.488 39.9219 108.208 40.5297 108.036 41.1732C107.885 41.7309 108.23 42.0455 108.739 42.1241C108.803 42.1313 108.868 42.1384 108.932 42.1527C109.097 42.1885 109.198 42.3958 109.133 42.5603C109.104 42.6389 109.04 42.6103 108.99 42.6103C107.921 42.6103 106.86 42.6103 105.791 42.6103C105.705 42.6103 105.605 42.6103 105.641 42.4888C105.677 42.3815 105.512 42.2028 105.755 42.1599C106.193 42.0884 106.587 41.9311 106.86 41.5593C107.075 41.2733 107.226 40.9444 107.355 40.6155C107.634 39.9148 107.907 39.2069 108.172 38.4991C108.416 37.8627 108.638 37.2264 108.882 36.5972C109.198 35.7749 109.52 34.9598 109.843 34.1447C109.936 33.9087 110.037 33.6728 110.116 33.4297C110.151 33.3296 110.202 33.3081 110.295 33.3081C110.761 33.3081 111.227 33.3153 111.693 33.3081C111.822 33.3081 111.844 33.3796 111.88 33.4797C112.482 35.1171 113.077 36.7545 113.694 38.3847C114.017 39.2427 114.325 40.1007 114.655 40.9515C114.942 41.6737 115.401 42.1241 116.204 42.1742C116.484 42.1956 116.312 42.3887 116.34 42.5031C116.383 42.6532 116.247 42.6175 116.168 42.6175C115.48 42.6175 114.77 42.6175 114.067 42.6175ZM111.83 38.4991C111.385 37.1835 110.94 35.8893 110.503 34.588C110.481 34.588 110.46 34.5951 110.438 34.5951C109.951 35.8893 109.463 37.1835 108.975 38.4991C109.936 38.4991 110.861 38.4991 111.83 38.4991Z" fill="#161613"/>
<path d="M95.7155 41.2876C95.7155 40.8729 95.7227 40.4582 95.7084 40.0363C95.7012 39.8719 95.737 39.8218 95.9163 39.8075C96.196 39.7789 96.2462 39.8933 96.3036 40.1436C96.5259 41.1589 97.1068 41.8953 98.1681 42.0955C98.8781 42.2242 99.5666 42.1098 100.133 41.5736C100.556 41.166 100.599 40.3152 100.226 39.8361C99.7315 39.1998 99.0359 38.8566 98.3546 38.4991C97.8167 38.2202 97.2502 37.9914 96.7626 37.6196C96.2606 37.2335 95.945 36.7545 95.8159 36.1467C95.6367 35.2887 95.8805 34.5594 96.5116 33.9659C96.992 33.5155 97.6016 33.3367 98.247 33.2652C99.0287 33.1723 99.7817 33.3439 100.52 33.5727C100.621 33.6013 100.728 33.6299 100.829 33.637C101.001 33.6513 101.151 33.5655 101.23 33.3939C101.273 33.301 101.331 33.2795 101.431 33.2724C101.682 33.2438 101.747 33.3296 101.739 33.5798C101.718 34.2877 101.732 35.0027 101.732 35.7105C101.732 35.7892 101.79 35.9465 101.618 35.9107C101.453 35.8821 101.202 36.0538 101.13 35.7534C100.929 34.9741 100.528 34.3449 99.7602 34.0517C99.0717 33.7872 98.3618 33.78 97.7522 34.2662C97.3076 34.6237 97.2215 35.2887 97.6446 35.8035C97.8741 36.0823 98.161 36.2897 98.4837 36.4613C99.1578 36.826 99.8821 37.0834 100.542 37.4838C101.288 37.9414 101.89 38.5134 102.127 39.3857C102.457 40.6155 102.112 41.7881 100.814 42.4459C100.183 42.7676 99.4662 42.8248 98.7562 42.8177C98.1466 42.8105 97.5801 42.6318 97.0136 42.4459C96.906 42.4101 96.7984 42.3887 96.698 42.3672C96.5331 42.3243 96.3538 42.3744 96.2964 42.5531C96.2104 42.8248 96.0024 42.7533 95.8231 42.7533C95.6868 42.7533 95.737 42.6389 95.737 42.5674C95.7155 42.1384 95.7155 41.7166 95.7155 41.2876Z" fill="#161613"/>
<path d="M133.953 35.8964C134.025 35.782 134.018 35.6676 134.011 35.5604C133.982 34.8239 134.104 34.0875 134.061 33.3439C134.054 33.2223 134.061 33.0579 134.161 33.0293C134.305 32.9935 134.477 32.9649 134.613 33.1365C134.814 33.3868 135.129 33.444 135.424 33.444C137.396 33.4583 139.375 33.4583 141.347 33.4583C141.734 33.4583 142.1 33.3868 142.38 33.0793C142.494 32.9578 142.659 33.0221 142.803 33.015C142.86 33.015 142.86 33.065 142.853 33.1079C142.832 33.2938 142.889 33.4797 142.896 33.6656C142.918 34.3377 142.946 35.017 142.982 35.6891C142.989 35.875 142.939 35.9465 142.753 35.9179C142.688 35.9107 142.624 35.9107 142.559 35.9179C142.437 35.925 142.43 35.875 142.416 35.7606C142.373 35.3173 142.272 34.8954 141.928 34.5594C141.627 34.2662 141.239 34.1733 140.845 34.1375C140.458 34.1018 140.056 34.1232 139.669 34.1232C139.497 34.1232 139.418 34.1733 139.418 34.3878C139.432 35.8893 139.418 37.3908 139.425 38.8923C139.432 39.6145 139.382 40.3438 139.454 41.0659C139.526 41.8024 139.898 42.0455 140.573 42.1241C140.694 42.1384 140.888 42.0669 140.888 42.31C140.895 42.6103 140.902 42.6103 140.594 42.6103C139.16 42.6103 137.726 42.6103 136.291 42.6103C136.184 42.6103 136.019 42.7033 136.019 42.4602C136.019 42.2528 136.04 42.1313 136.298 42.1241C136.686 42.1098 137.044 42.0026 137.295 41.6665C137.417 41.5092 137.475 41.3233 137.489 41.1446C137.51 40.8872 137.546 40.6369 137.546 40.3724C137.539 38.3704 137.539 36.3755 137.546 34.3735C137.546 34.1518 137.482 34.1018 137.274 34.1089C136.879 34.1304 136.485 34.1089 136.098 34.1304C135.129 34.1804 134.678 34.7095 134.556 35.5747C134.513 35.8821 134.412 35.9393 134.154 35.9036C134.111 35.8964 134.047 35.8964 133.953 35.8964Z" fill="#161613"/>
<path d="M82.4987 35.5532C82.513 35.5389 82.5202 35.5175 82.5345 35.5032L82.5273 35.5104C82.5632 35.5032 82.5775 35.5247 82.5775 35.5604C82.556 35.5604 82.5273 35.5532 82.4987 35.5532Z" fill="#161613"/>
<path d="M128.238 40.115C128.238 40.1221 128.231 40.1364 128.231 40.1436C128.231 40.1293 128.223 40.1221 128.223 40.1078C128.223 40.115 128.238 40.115 128.238 40.115Z" fill="#161613"/>
<path d="M82.5345 35.5032C82.5202 35.5032 82.513 35.5032 82.4987 35.5032C82.4987 35.496 82.4987 35.4889 82.4987 35.4817C82.5058 35.496 82.5202 35.5032 82.5345 35.5032C82.5345 35.5032 82.5273 35.5103 82.5345 35.5032Z" fill="#161613"/>
<path d="M177.849 21.3247C177.77 20.4023 177.606 19.5515 177.362 18.7078C177.355 18.6935 177.355 18.6792 177.347 18.6649C177.197 18.1429 177.182 18.0929 176.666 18.2359C175.074 18.672 173.97 17.907 172.987 16.8201C172.442 16.2124 172.069 15.4974 171.732 14.7609C171.66 14.6036 171.725 14.575 171.861 14.5536C172.808 14.382 173.754 14.4034 174.68 14.6608C174.88 14.718 174.895 14.668 174.873 14.4892C174.701 12.6231 175.483 11.2074 176.953 10.1134C177.433 9.75591 177.943 9.45561 178.488 9.19106C178.574 9.36981 178.566 9.55571 178.581 9.72731C178.674 10.8856 178.653 12.0368 178.28 13.1593C177.993 14.0102 177.527 14.7109 176.716 15.1542C176.637 15.1971 176.602 15.2328 176.673 15.3115C177.505 16.2195 178.057 17.2778 178.43 18.479C178.552 18.1501 178.653 17.8498 178.789 17.5709C179.441 16.2767 180.395 15.7262 181.851 15.8334C182.088 15.8477 182.324 15.8692 182.561 15.8906C182.654 15.8978 182.726 15.9121 182.683 16.0336C182.21 17.4208 181.665 18.7793 180.539 19.7946C180.087 20.2021 179.556 20.4381 178.925 20.3523C178.839 20.338 178.803 20.3523 178.81 20.4452C178.932 21.4319 178.911 22.4115 178.789 23.391C178.861 23.4125 178.875 23.3696 178.896 23.341C179.671 22.3614 180.739 21.9539 181.944 21.8109C182.045 21.7966 182.116 21.8037 182.123 21.9396C182.195 23.2623 182.109 24.5565 181.306 25.6862C180.646 26.6157 179.721 27.0376 178.588 27.0376C178.473 27.0376 178.394 27.0304 178.359 27.1806C178.014 28.6106 177.505 29.9834 177.017 31.3633C176.221 33.6227 176.616 35.7248 177.892 37.7054C177.907 37.7269 177.914 37.7483 177.957 37.8198C178.05 36.9618 178.287 36.2182 178.731 35.5532C179.441 34.4807 180.46 33.7872 181.614 33.2724C181.93 33.1294 182.253 33.015 182.568 32.8934C182.661 32.8577 182.74 32.8362 182.74 32.9864C182.769 34.6452 182.726 36.2968 182.116 37.877C182.052 38.0343 181.987 38.1916 181.908 38.3418C181.428 39.2713 180.732 39.9362 179.606 40.1078C179.771 40.3009 179.915 40.4582 180.058 40.6298C180.13 40.7156 180.187 40.6655 180.245 40.6226C181.399 39.7646 182.733 39.3428 184.124 39.0782C184.261 39.0496 184.347 39.0353 184.318 39.2212C183.974 41.6022 183.156 43.7686 181.37 45.4703C180.617 46.1925 179.75 46.7359 178.71 46.9647C178.387 47.0362 178.38 47.0362 178.308 46.7073C177.986 45.3202 178.014 43.9617 178.595 42.6389C178.61 42.6103 178.61 42.5746 178.624 42.5317C178.151 42.5889 177.692 42.6675 177.233 42.7033C175.246 42.8606 173.324 42.6532 171.574 41.6093C171.223 41.402 171.223 41.3948 171.409 41.0302C171.761 40.3509 172.184 39.7217 172.765 39.2212C173.74 38.3775 174.823 38.1988 175.999 38.7279C176.824 39.0925 177.484 39.6717 178.1 40.3223C178.158 40.2151 178.086 40.1507 178.043 40.0864C177.498 39.2427 176.953 38.4061 176.408 37.5553C176.336 37.448 176.272 37.4266 176.15 37.4623C174.938 37.7841 173.927 37.4194 173.116 36.5185C172.091 35.3816 171.596 34.0303 171.56 32.5002C171.56 32.4644 171.553 32.4358 171.56 32.4001C171.589 32.2857 171.524 32.1141 171.639 32.064C171.804 31.9925 171.79 32.2142 171.89 32.2785C171.969 32.3286 172.033 32.4144 172.112 32.4644C173.066 33.1079 174.113 33.5226 175.225 33.8372C175.289 33.0221 175.461 32.2428 175.719 31.4706C175.411 31.4706 175.117 31.4563 174.837 31.3919C173.726 31.1345 172.987 30.4195 172.456 29.4614C171.825 28.3246 171.553 27.1091 171.79 25.8077C171.811 25.7005 171.811 25.5932 171.976 25.6361C173.123 25.9364 174.228 26.3225 175.174 27.0662C175.834 27.5881 176.307 28.2388 176.487 29.0753C176.494 29.0968 176.508 29.1182 176.537 29.1754C176.645 28.8322 176.745 28.5248 176.838 28.2173C176.931 27.9027 177.017 27.5881 177.104 27.2735C177.326 26.4512 177.512 25.629 177.67 24.7924C177.699 24.6494 177.713 24.5851 177.527 24.6065C176.322 24.7352 175.375 24.249 174.594 23.3839C173.948 22.6689 173.511 21.8395 173.26 20.91C173.238 20.8242 173.231 20.7312 173.209 20.6454C173.188 20.5453 173.217 20.5024 173.331 20.4881C174.4 20.3952 175.468 20.3594 176.53 20.6383C176.766 20.7026 176.996 20.7884 177.218 20.8957C177.412 20.9815 177.613 21.1316 177.849 21.3247Z" fill="#161613"/>
<path d="M178.136 33.3939C177.9 33.3939 177.663 33.3939 177.426 33.3939C177.312 33.3939 177.261 33.351 177.304 33.2295C177.77 31.6779 178.459 30.2479 179.735 29.1826C180.618 28.4461 181.636 28.0457 182.783 27.9813C182.79 27.9813 182.798 27.9813 182.805 27.9813C183.257 27.967 183.249 27.967 183.214 28.4104C183.135 29.3828 182.955 30.3337 182.496 31.206C181.865 32.4215 180.833 33.0722 179.506 33.3081C179.047 33.3868 178.595 33.4225 178.136 33.3939Z" fill="#161613"/>
<path d="M190.722 47.8513C191.059 48.1373 190.916 48.5663 191.109 48.8952C190.622 48.9167 190.622 48.9167 190.564 48.4734C190.514 48.0801 190.435 48.0015 190.127 47.9657C189.998 47.9514 189.947 47.98 189.947 48.1159C189.955 48.3304 189.94 48.5377 189.955 48.7522C189.962 48.9167 189.861 48.9095 189.754 48.9095C189.639 48.9095 189.575 48.9024 189.575 48.7594C189.582 48.1659 189.582 47.5653 189.575 46.9719C189.575 46.8575 189.603 46.8146 189.725 46.8146C189.991 46.8217 190.249 46.8146 190.514 46.8217C190.815 46.836 191.009 46.979 191.066 47.215C191.124 47.4938 191.045 47.6583 190.722 47.8513ZM190.198 47.6654C190.227 47.6654 190.249 47.6654 190.263 47.6654C190.435 47.6583 190.614 47.6654 190.679 47.4509C190.708 47.3437 190.686 47.2293 190.586 47.1721C190.399 47.072 190.163 47.0577 189.998 47.1506C189.876 47.215 189.94 47.4509 189.969 47.6082C189.983 47.7298 190.134 47.6368 190.198 47.6654Z" fill="#161613"/>
</svg>
