<svg width="240" height="56" viewBox="0 0 240 56" fill="none" xmlns="http://www.w3.org/2000/svg">
<path d="M106.09 17.4725C102.984 17.4725 99.4517 18.9122 97.2935 21.7946L97.295 21.7888L97.2935 21.7903L97.295 17.9251H89.8875V44.9007H97.2935V29.5512C97.2935 26.7885 99.4356 23.852 103.401 23.852C106.466 23.852 109.638 25.9839 109.638 29.5512V44.9007H117.045V28.1786C117.045 21.9742 112.607 17.4725 106.09 17.4725Z" fill="#161613"/>
<path d="M169.692 17.9263L162.996 36.3013L156.299 17.9263H147.838L158.937 44.8931H167.054L178.153 17.9263H169.692Z" fill="#161613"/>
<path d="M67.7735 26.0527C69.0351 24.3589 71.0443 23.3645 73.4711 23.3645C76.1403 23.3645 78.1656 24.8889 79.2126 27.1391L66.2709 32.5082C65.9176 29.7528 66.6228 27.5976 67.7735 26.0527ZM82.0045 36.6069C78.887 38.914 77.1055 39.4645 74.2625 39.4645C71.7043 39.4645 69.7009 38.6702 68.2889 37.2771L87.2261 29.4213C86.8129 26.4937 85.7017 23.8785 83.9918 21.8897C81.5036 19 77.821 17.4711 73.3368 17.4711C65.1918 17.4711 59.0503 23.4798 59.0503 31.4159C59.0503 39.558 65.2064 45.3593 74.153 45.3593C79.1659 45.3593 84.2911 42.9836 86.6887 40.2077L82.0045 36.6069Z" fill="#161613"/>
<path d="M58.3443 38.0992H41.5083V9.85765H34V44.9007H58.3443V38.0992Z" fill="#161613"/>
<path d="M191.454 23.8188C187.317 23.8188 184.313 26.9538 184.313 31.4132C184.313 35.6712 187.495 39.0077 191.553 39.0077C195.691 39.0077 198.693 35.7865 198.693 31.4132C198.693 27.1553 195.513 23.8188 191.454 23.8188ZM191.454 45.3551C183.352 45.3551 177.005 39.3202 177.005 31.4132C177.005 23.5954 183.396 17.4714 191.553 17.4714C199.654 17.4714 206 23.5063 206 31.4132C206 39.2296 199.61 45.3551 191.454 45.3551Z" fill="#161613"/>
<path d="M134.423 23.8188C130.286 23.8188 127.284 26.9538 127.284 31.4132C127.284 35.6712 130.464 39.0077 134.524 39.0077C138.661 39.0077 141.663 35.7865 141.663 31.4132C141.663 27.1553 138.482 23.8188 134.423 23.8188ZM134.423 45.3551C126.322 45.3551 119.976 39.3202 119.976 31.4132C119.976 23.5954 126.366 17.4714 134.524 17.4714C142.623 17.4714 148.971 23.5063 148.971 31.4132C148.971 39.2296 142.58 45.3551 134.423 45.3551Z" fill="#161613"/>
</svg>
