<svg width="240" height="56" viewBox="0 0 240 56" fill="none" xmlns="http://www.w3.org/2000/svg">
<path d="M109.453 44.1605C110.063 44.5396 110.772 44.7287 111.49 44.7037C112.621 44.7037 113.572 44.1152 113.572 42.8025C113.572 40.9918 109.317 40.7654 109.317 38.3663C109.317 36.8724 110.675 35.9218 112.259 35.9218C112.712 35.9218 113.436 36.0124 114.07 36.2387L113.934 37.0535C113.527 36.8272 112.893 36.7366 112.259 36.7366C111.309 36.7366 110.268 37.1441 110.268 38.321C110.268 40.177 114.477 40.177 114.477 42.893C114.477 44.749 112.893 45.5185 111.444 45.5185C110.539 45.5185 109.86 45.3375 109.362 45.0659L109.453 44.1605V44.1605ZM120.77 45.1111C120.181 45.3827 119.412 45.5185 118.823 45.5185C116.56 45.5185 115.745 43.9794 115.745 41.9424C115.745 39.9054 116.877 38.4115 118.597 38.4115C120.498 38.4115 121.313 39.9506 121.313 41.7613V42.214H116.65C116.65 43.6173 117.42 44.7943 118.914 44.7943C119.502 44.7943 120.362 44.5227 120.77 44.2963V45.1111V45.1111ZM120.362 41.4897C120.362 40.3128 119.909 39.1358 118.642 39.1358C117.42 39.1358 116.65 40.358 116.65 41.4897H120.362V41.4897ZM127.288 39.498C126.835 39.2716 126.292 39.1358 125.84 39.1358C124.21 39.1358 123.259 40.3128 123.259 41.9424C123.259 43.4815 124.165 44.7943 125.749 44.7943C126.247 44.7943 126.745 44.6585 127.243 44.4774L127.333 45.2469C126.78 45.4378 126.198 45.5298 125.613 45.5185C123.44 45.5185 122.354 43.8436 122.354 41.9424C122.354 39.9054 123.712 38.4115 125.704 38.4115C126.519 38.4115 127.062 38.5926 127.333 38.6831L127.288 39.498V39.498ZM133.988 43.7531C133.988 44.251 133.988 44.7943 134.078 45.3375H133.263V44.1152C132.947 44.749 132.449 45.4733 131.045 45.4733C129.37 45.4733 128.782 44.3868 128.782 42.893V38.5926H129.597V42.6667C129.597 43.9794 130.049 44.7943 131.181 44.7943C132.72 44.7943 133.173 43.4362 133.173 42.3045V38.5926H134.033V43.7531H133.988ZM136.115 40.0864L136.07 38.5926H136.885V39.9054H136.93C137.247 39.1358 137.835 38.4115 138.65 38.4115L139.239 38.5021V39.4074C139.058 39.3169 138.831 39.3169 138.65 39.3169C137.292 39.3169 136.975 40.7654 136.975 42.0329V45.3375H136.115V40.0864V40.0864ZM141.366 36.7819H140.551V35.6502H141.366V36.7819ZM140.551 38.5926H141.366V45.3827H140.551V38.5926ZM146.391 39.3169H144.852V43.6626C144.852 44.2963 145.078 44.7943 145.757 44.7943C146.074 44.7943 146.3 44.7037 146.527 44.6132L146.572 45.3375C146.391 45.3827 145.984 45.5185 145.576 45.5185C144.082 45.5185 144.037 44.4774 144.037 43.2552V39.3169H142.679V38.5926H144.037V36.963L144.852 36.6461V38.5926H146.391V39.3169ZM148.745 36.7819H147.885V35.6502H148.745V36.7819ZM147.885 38.5926H148.745V45.3827H147.885V38.5926ZM155.354 45.1111C154.765 45.3827 153.996 45.5185 153.407 45.5185C151.144 45.5185 150.329 43.9794 150.329 41.9424C150.329 39.9054 151.461 38.4115 153.181 38.4115C155.082 38.4115 155.897 39.9506 155.897 41.7613V42.214H151.189C151.189 43.6173 151.959 44.7943 153.453 44.7943C154.041 44.7943 154.901 44.5227 155.309 44.2963V45.1111H155.354ZM154.947 41.4897C154.947 40.3128 154.494 39.1358 153.226 39.1358C152.004 39.1358 151.235 40.358 151.235 41.4897H154.947V41.4897ZM156.938 44.3416C157.436 44.6132 158.07 44.7943 158.704 44.7943C159.519 44.7943 160.198 44.3416 160.198 43.572C160.198 41.9877 156.938 42.214 156.938 40.2675C156.938 38.9095 158.025 38.4568 159.156 38.4568C159.519 38.4568 160.243 38.5021 160.831 38.7284L160.695 39.498C160.243 39.3169 159.654 39.1811 159.202 39.1811C158.342 39.1811 157.753 39.4527 157.753 40.3128C157.753 41.5803 161.058 41.3992 161.058 43.6173C161.058 45.0659 159.7 45.5638 158.704 45.5638C158.07 45.5638 157.391 45.4733 156.802 45.2469L156.893 44.3869L156.938 44.3416Z" fill="#161613"/>
<path d="M132.494 31.9383C137.473 31.9383 141.276 29.0412 141.276 24.0617C141.276 19.0823 137.473 16.1399 132.494 16.1399C127.514 16.1399 123.667 19.037 123.667 24.0617C123.667 29.0412 127.469 31.9383 132.494 31.9383ZM132.494 28.3169C130.049 28.3169 129.054 26.2798 129.054 24.0617C129.054 21.7984 130.049 19.8066 132.494 19.8066C134.893 19.8066 135.889 21.7984 135.889 24.0617C135.889 26.3251 134.893 28.3169 132.494 28.3169Z" fill="#161613"/>
<path d="M140.778 20.1235H143.765V26.2798C143.765 29.9012 144.897 31.9383 149.605 31.9383C150.872 31.9383 151.868 31.8025 152.864 31.6667L152.683 28.2716C152.185 28.3621 151.597 28.4979 151.099 28.4979C149.424 28.4979 149.016 27.5473 149.016 25.7366V20.1235H152.638V16.5021H149.016V11.251L143.856 13.0617V16.5021H140.778V20.1235ZM170.971 31.6214H176.177V24.107H176.222L180.432 31.6214H186.77L181.066 23.428L186.317 16.5021H180.568L176.222 22.8395H176.177V11.251L170.971 13.0617V31.6214ZM109.77 31.6214H114.975V24.107H115.066L119.23 31.6214H125.568L119.864 23.428L125.115 16.5021H119.412L115.066 22.8395H114.975V11.251L109.77 13.0165V31.5761V31.6214ZM169.115 31.6667C168.844 30.4897 168.798 29.2675 168.798 28.0453V22.4321C168.798 17.7243 165.403 16.0946 161.556 16.0946C159.292 16.0946 157.3 16.4115 155.399 17.1358L155.49 20.7572C156.992 19.9531 158.675 19.5479 160.379 19.5802C162.28 19.5802 163.819 20.1687 163.864 22.251C163.185 22.1152 162.235 22.0247 161.42 22.0247C158.568 22.0247 153.498 22.5679 153.498 27.2757C153.498 30.5802 156.214 32.0741 159.247 32.0741C161.42 32.0741 162.868 31.214 164.091 29.358C164.091 30.1276 164.226 30.8971 164.226 31.7119H169.115V31.6667ZM158.432 26.823C158.432 25.3745 159.835 24.786 161.601 24.786L163.864 24.8765C163.864 26.6872 162.597 28.4979 160.605 28.4979C159.383 28.4979 158.432 27.9095 158.432 26.823Z" fill="#161613"/>
<path d="M54 28.0453C54 15.8683 65.4527 6 79.5761 6C93.7449 6 105.198 15.823 105.198 28C105.198 40.1317 93.7449 50 79.5761 50C65.4527 50 54 40.1317 54 28" fill="#161613"/>
<path d="M76.498 13.1523L82.3828 11.2058V43.3457L76.498 45.3374V13.1523Z" fill="#161613"/>
<path d="M98.8149 30.3086C98.2716 34.9259 95.6914 39.5432 90.0782 39.5432C86.7737 39.5432 84.1935 37.2798 82.428 34.5638V31.3951C84.6914 32.4815 86.7284 33.6584 89.2634 33.6584C92.3869 33.749 95.1482 32.572 96.3251 30.3086H98.8149V30.3086ZM80.0288 33.2058C77.4033 36.3292 74.9136 39.498 70.2511 39.498C63.642 39.498 60.5186 33.1152 60.5186 27.7284C60.5186 22.6132 62.963 16.5473 69.391 16.5473C72.1976 16.5473 74.8684 18.2675 76.498 20.0782V24.4239C75.14 23.5185 72.1523 22.6132 70.1605 22.6132C66.0865 22.5226 62.4651 24.3333 62.5556 28.3621C62.6009 31.0782 65.3622 32.9794 68.0782 32.9794C72.2881 32.9794 74.8231 29.177 76.9507 26.2798L79.4404 22.9301C81.7943 19.6255 84.5556 16.5926 89.2181 16.5926C94.7408 16.5926 97.819 21.0741 98.7243 25.6461H96.1893C95.6463 24.8924 94.9324 24.278 94.1063 23.8531C93.2802 23.4283 92.3652 23.205 91.4363 23.2017C87.0906 23.2017 84.5103 27.1852 82.3828 30.1276L79.9836 33.1605" fill="white"/>
</svg>
