<svg width="240" height="56" viewBox="0 0 240 56" fill="none" xmlns="http://www.w3.org/2000/svg">
<path d="M165.171 2.40185C163.262 2.74901 163.146 2.86473 162.973 5.35271C162.741 9.92365 162.452 10.4444 160.369 10.6758C158.518 10.8494 158.518 10.8494 158.344 14.4367C158.17 17.9662 158.228 18.0819 159.617 18.0819C162.568 18.0819 162.857 19.0655 162.857 29.7696V39.6058L164.766 41.5152C167.023 43.7717 170.552 44.5239 175.181 43.7717C178.074 43.251 178.19 43.1931 178.363 41.168C178.479 40.0687 178.248 38.3907 177.901 37.5228C177.38 36.0763 177.091 35.9028 175.355 36.2499C174.082 36.4814 173.214 36.3656 172.809 35.8449C172.115 35.0349 171.71 19.7598 172.404 18.7184C172.578 18.3712 174.024 18.0819 175.586 18.0819C178.363 18.0819 178.421 18.024 178.769 16.1725C179 15.0732 179.058 13.4531 178.942 12.5273C178.769 10.9073 178.595 10.8494 175.586 10.6758C173.85 10.5601 172.23 10.1551 171.999 9.80793C171.767 9.40291 171.536 7.49353 171.536 5.46843V1.88111L169.395 1.93897C168.18 1.99683 166.271 2.17041 165.171 2.40185Z" fill="#161613"/>
<path d="M102.278 10.7915C96.2023 12.7009 93.9458 16.3461 93.5408 25.0251C93.2515 31.3318 94.0615 36.2499 95.913 39.0272C99.6739 44.6975 112.635 45.8547 118.189 40.9944C121.661 37.9857 122.355 35.6713 122.355 27.0502C122.355 18.3712 121.603 15.9989 118.016 12.9902C114.486 10.1551 107.543 9.17145 102.278 10.7915ZM111.651 19.5284C112.982 20.8592 113.097 21.322 113.097 27.0502C113.097 32.7783 112.982 33.2412 111.651 34.572C109.857 36.4235 106.096 36.5392 104.418 34.8613C103.377 33.8198 103.261 32.9519 103.261 27.0502C103.261 20.9749 103.377 20.3384 104.534 19.2391C106.386 17.5611 109.857 17.6769 111.651 19.5284Z" fill="#161613"/>
<path d="M133.927 11.1388C130.108 12.4117 127.389 15.2468 126.463 18.9498C125.537 22.595 125.653 32.3734 126.695 35.7871C127.563 38.8537 129.472 40.9945 132.77 42.7303C135.894 44.3504 144.92 44.2346 148.161 42.5567C151.169 40.9945 153.368 38.3908 154.178 35.5556C155.104 32.1419 154.93 21.0328 153.831 17.9084C151.574 11.3123 142.433 8.1879 133.927 11.1388ZM143.821 19.1813C145.152 20.2228 145.21 20.6278 145.21 27.0502C145.21 33.4727 145.152 33.8777 143.821 34.9192C142.085 36.3657 138.498 36.3657 136.762 34.9192C135.431 33.8777 135.374 33.4727 135.374 27.0502C135.374 20.6278 135.431 20.2228 136.762 19.1813C137.572 18.5448 139.019 18.0819 140.292 18.0819C141.565 18.0819 143.011 18.5448 143.821 19.1813Z" fill="#161613"/>
<path d="M61.255 12.0066C60.9078 12.8167 69.1818 40.8209 70.339 43.0774C70.8019 43.9453 71.7276 44.1189 76.2986 44.1189C79.9438 44.1189 81.911 43.8875 82.316 43.4246C82.6053 43.0196 84.9776 35.7871 87.5813 27.3395C91.0529 15.9411 92.0365 11.9488 91.5157 11.6016C90.59 11.023 84.6304 11.023 83.6468 11.6595C83.2418 11.9488 81.6217 16.6933 80.0595 22.19C76.5879 34.572 76.7036 34.2248 76.125 33.1255C75.8357 32.6626 74.3892 27.8024 72.9427 22.4214C71.3805 16.7511 69.8183 12.2959 69.2397 11.8331C67.9089 10.7916 61.66 10.9073 61.255 12.0066Z" fill="#161613"/>
</svg>
