<svg width="240" height="56" viewBox="0 0 240 56" fill="none" xmlns="http://www.w3.org/2000/svg">
<path d="M133.66 30.5847C133.66 26.3935 131.866 22.6904 125.798 22.6904C122.685 22.6904 120.212 23.5777 118.872 24.3543L119.854 27.7168C121.089 26.9424 123.058 26.3046 124.918 26.3046C127.989 26.3002 128.493 28.0379 128.493 29.1551V29.4241C121.787 29.4132 117.548 31.7301 117.548 36.4485C117.548 39.3315 119.7 42.0345 123.462 42.0345C125.757 42.0345 127.697 41.1082 128.855 39.6461H128.968C128.968 39.6461 129.731 42.8415 133.955 41.6202C133.74 40.2817 133.66 38.8716 133.66 37.1578V30.5847V30.5847ZM128.658 35.0102C128.658 35.3486 128.629 35.7 128.53 36.0016C128.143 37.2923 126.812 38.3727 125.154 38.3727C123.755 38.3727 122.657 37.5809 122.657 35.9213C122.657 33.3832 125.46 32.6846 128.658 32.702" fill="#161613"/>
<path d="M31 16.9878C31 16.9878 35.3799 34.9067 36.0763 37.8093C36.8963 41.2022 38.3649 42.456 42.6039 41.6208L45.3416 30.5094C46.0336 27.7565 46.5043 25.7824 46.9512 22.9774H47.0271C47.3373 25.8106 47.7843 27.7565 48.3504 30.5181C48.3504 30.5181 49.4676 35.5662 50.0469 38.2106C50.6109 40.8551 52.1988 42.5233 56.3575 41.6208L62.8743 16.9878H57.6136L55.377 27.6437C54.7848 30.7307 54.2467 33.1625 53.828 35.9914H53.7521C53.3747 33.1929 52.8952 30.8609 52.2792 27.8368L49.9623 16.9878H44.4738L42.0007 27.5591C41.2957 30.7871 40.6362 33.3751 40.2219 36.115H40.1503C39.723 33.5443 39.1437 30.2708 38.5298 27.1643C38.5298 27.1643 37.0611 19.5954 36.5427 16.9878" fill="#161613"/>
<path d="M77.5349 30.5847C77.5349 26.3935 75.7364 22.6904 69.6688 22.6904C66.5645 22.6904 64.0871 23.5777 62.7465 24.3543L63.7291 27.7168C64.9592 26.9424 66.9268 26.3046 68.7924 26.3046C71.8642 26.3002 72.3675 28.0379 72.3675 29.1551V29.4241C65.6621 29.4132 61.4188 31.7301 61.4188 36.4485C61.4188 39.3315 63.5795 42.0345 67.3238 42.0345C69.6406 42.0345 71.5627 41.1082 72.7211 39.6461H72.8382C72.8382 39.6461 73.6061 42.8415 77.8255 41.6202C77.6087 40.2817 77.5349 38.8716 77.5349 37.1578V30.5847V30.5847ZM72.5281 35.0102C72.5281 35.3486 72.4999 35.7 72.4044 36.0016C72.0138 37.2923 70.6819 38.3727 69.0202 38.3727C67.6296 38.3727 66.5276 37.5809 66.5276 35.9213C66.5276 33.3832 69.3303 32.6846 72.5281 32.702" fill="#161613"/>
<path d="M80.2646 16.9878V41.6122H85.2715V36.3905V16.9878H80.2646Z" fill="#161613"/>
<path d="M149.027 16.9878V35.1562C149.027 37.6639 149.498 39.4124 150.511 40.4841C151.4 41.4234 152.856 42.0352 154.589 42.0352C156.077 42.0352 157.533 41.7488 158.221 41.4994L158.16 37.588C157.646 37.7073 157.058 37.8093 156.251 37.8093C154.541 37.8093 153.977 36.7268 153.977 34.475V27.5201H158.338V22.8147H153.977V16.9878" fill="#161613"/>
<path d="M136.086 23.1178V41.6202H141.262V32.1444C141.262 31.6346 141.294 31.1943 141.375 30.7864C141.761 28.7885 143.277 27.5237 145.462 27.5237C146.071 27.5237 146.486 27.591 146.946 27.6626V22.8119C146.559 22.7425 146.297 22.7056 145.822 22.7056C143.885 22.7056 141.689 23.9356 140.763 26.6148H140.635V23.1178" fill="#161613"/>
<path d="M88.1791 23.1178V41.6202H93.2227V30.7604C93.2227 30.2506 93.2791 29.73 93.4592 29.2592C93.8693 28.1593 94.8867 26.8859 96.5202 26.8859C98.5506 26.8859 99.5095 28.5997 99.5095 31.0728V41.6202H104.54V30.6302C104.54 30.1508 104.608 29.5629 104.748 29.1377C105.152 27.8903 106.254 26.8859 107.777 26.8859C109.829 26.8859 110.823 28.5628 110.823 31.4785V41.6202H115.849V30.7105C115.849 24.9791 112.933 22.7056 109.623 22.7056C108.167 22.7056 107.009 23.0635 105.968 23.7057C105.087 24.2458 104.315 25.0073 103.623 26.003H103.547C102.751 24.0115 100.881 22.7056 98.4378 22.7056C95.3053 22.7056 93.8822 24.2871 93.0449 25.6234H92.9689V23.1178" fill="#161613"/>
<path d="M185.426 22.2874C186.415 22.2874 187.248 21.771 187.357 21.1072L188.337 10.0001C188.337 8.90028 187.042 8 185.426 8C183.801 8 182.515 8.90028 182.515 10.0001L183.504 21.1072C183.608 21.771 184.437 22.2874 185.426 22.2874Z" fill="#161613"/>
<path d="M179.41 25.7629C179.9 24.8951 179.872 23.9319 179.342 23.5024L170.188 17.1006C169.235 16.5453 167.81 17.207 166.994 18.6084C166.181 20.0076 166.346 21.5782 167.279 22.1227L177.414 26.8215C178.062 27.0645 178.911 26.6133 179.41 25.7542" fill="#161613"/>
<path d="M191.441 25.7537C191.959 26.6128 192.808 27.064 193.439 26.8341L203.574 22.1223C204.516 21.5669 204.657 20.0115 203.86 18.6122C203.047 17.2108 201.613 16.5535 200.663 17.098L191.506 23.4933C190.998 23.9293 190.962 24.8969 191.452 25.7624" fill="#161613"/>
<path d="M185.426 36.1614C186.415 36.1614 187.248 36.6778 187.357 37.3416L188.337 48.4487C188.337 49.5485 187.042 50.4401 185.426 50.4401C183.801 50.4401 182.515 49.5485 182.515 48.4487L183.504 37.3416C183.608 36.6778 184.437 36.1614 185.426 36.1614Z" fill="#161613"/>
<path d="M191.441 32.6957C191.959 31.8345 192.808 31.3746 193.439 31.624L203.574 36.3272C204.516 36.8717 204.657 38.4401 203.86 39.8415C203.047 41.2321 201.613 41.8937 200.663 41.3492L191.506 34.9453C190.998 34.5136 190.962 33.5504 191.452 32.6957" fill="#161613"/>
<path d="M179.41 32.6861C179.9 33.5517 179.872 34.5127 179.342 34.9466L170.188 41.3397C169.235 41.895 167.81 41.2312 166.994 39.8407C166.181 38.4414 166.346 36.8708 167.279 36.3263L177.414 31.6232C178.062 31.3759 178.911 31.8314 179.41 32.6861Z" fill="#161613"/>
<path d="M206.54 40.3745H206.666C206.837 40.3745 206.907 40.4288 206.926 40.5654C206.963 40.7173 206.983 40.8192 207.019 40.8626H207.345C207.317 40.8301 207.28 40.7477 207.26 40.5568C207.223 40.3919 207.139 40.2986 207.019 40.2661V40.2357C207.184 40.1988 207.28 40.0882 207.28 39.9515C207.28 39.8279 207.223 39.7389 207.167 39.6825C207.058 39.6304 206.954 39.5892 206.724 39.5892C206.52 39.5892 206.371 39.6066 206.251 39.6348V40.8626H206.54V40.3745V40.3745ZM206.549 39.8148L206.696 39.7953C206.87 39.7953 206.963 39.8756 206.963 39.9884C206.963 40.1142 206.837 40.1728 206.677 40.1728H206.549V39.8148V39.8148ZM206.733 38.9818C206.022 38.9818 205.458 39.5372 205.458 40.2183C205.458 40.9169 206.022 41.4722 206.733 41.4722C207.453 41.4722 208 40.9169 208 40.2183C208 39.5372 207.453 38.9818 206.733 38.9818ZM206.733 39.2313C207.28 39.2313 207.685 39.6738 207.685 40.2183C207.685 40.7672 207.28 41.2227 206.733 41.2141C206.186 41.2141 205.772 40.7672 205.772 40.2183C205.772 39.6738 206.186 39.2313 206.724 39.2313" fill="#161613"/>
</svg>
