<svg width="240" height="56" viewBox="0 0 240 56" fill="none" xmlns="http://www.w3.org/2000/svg">
<path fill-rule="evenodd" clip-rule="evenodd" d="M69.0327 9L65.6024 20.2589C64.2632 24.6549 66.2171 27.0524 71.1831 27.0524C76.1492 27.0524 79.5194 24.6549 80.8588 20.2589L84.2888 9H79.1215L75.8252 19.8193C75.2373 21.7486 74.3953 22.6034 72.5386 22.6034C70.6819 22.6034 70.3161 21.7486 70.9038 19.8193L74.2001 9H69.0327ZM81.1537 26.5599H85.9184L91.2683 9H86.5035L81.1537 26.5599ZM94.8557 21.7486L96.4332 16.5709H98.6479L99.5555 13.5915H97.3409L98.5612 9.5861H93.8635L92.6431 13.5915H90.9655L90.0578 16.5709H91.7355L89.7561 23.0675C88.9005 25.876 89.7202 26.7838 92.6505 26.7838C93.5677 26.7838 94.567 26.7349 95.6182 26.6616L96.7579 22.9209C96.5045 22.9453 96.2806 22.9453 96.0793 22.9453C94.9385 22.9453 94.5729 22.6767 94.8557 21.7486V21.7486ZM97.1034 26.5599H101.689L103.311 21.2357C104.381 17.726 105.67 17.0815 109.268 17.785L110.525 13.2494H109.212C107.288 13.2494 105.902 14.0554 104.695 15.9605L105.416 13.5915H101.054L97.1034 26.5599ZM115.76 26.5599H120.502L120.614 26.1935C120.353 25.9493 120.293 25.5587 120.434 25.0946L122.637 17.8653C123.165 16.1314 123.194 15.1545 122.224 14.2263C121.597 13.6403 120.098 13.1274 117.928 13.1274C113.768 13.1274 111.159 14.6417 110.229 17.548H114.837C115.194 16.6688 115.835 16.2536 116.819 16.2536C117.96 16.2536 118.423 16.5709 118.192 17.3282C117.828 18.5249 116.88 18.4027 114.502 18.7202C110.841 19.2087 108.94 20.0146 108.062 22.8966C107.266 25.5097 108.302 27.0281 111.009 27.0281C112.754 27.0281 114.283 26.4866 115.848 25.3144L115.76 26.5599ZM117.098 20.7717C117.054 20.9915 116.987 21.2114 116.92 21.4312C116.399 23.1408 115.49 23.9222 113.901 23.9222C113.029 23.9222 112.693 23.4826 112.916 22.75C113.296 21.5043 114.631 21.6754 117.098 20.7717ZM123.433 26.5599H128.6L132.544 13.6159H137.085L138.491 9H124.152L122.746 13.6159H127.376L123.433 26.5599ZM140.551 22.7256C140.118 23.4094 139.373 23.8002 138.456 23.8002C137.091 23.8002 136.591 22.872 137.052 21.2114H145.911L146.008 20.8938C147.496 16.0092 145.824 13.1274 141.618 13.1274C137.39 13.1274 133.969 15.8383 132.645 20.1856C131.387 24.313 133.088 27.0281 137.204 27.0281C140.873 27.0281 143.565 25.5341 145.069 22.7256H140.551ZM137.841 18.6225C138.377 17.0839 139.406 16.2047 140.636 16.2047C141.978 16.2047 142.448 17.0106 142.047 18.6225H137.841ZM155.687 21.5043C155.188 22.7744 154.361 23.4337 153.265 23.4337C151.9 23.4337 151.646 22.3592 152.345 20.0635C153.037 17.7922 153.969 16.7175 155.355 16.7175C156.452 16.7175 156.832 17.3036 156.55 18.5249H161.27C162.148 15.2765 160.342 13.1274 156.472 13.1274C152.266 13.1274 148.89 15.765 147.58 20.0635C146.286 24.313 148.031 27.0281 152.281 27.0281C156.107 27.0281 159.171 24.8991 160.407 21.5043H155.687ZM160.813 26.5599H165.533L167.572 19.868C168.107 18.1096 168.949 17.2549 170.135 17.2549C171.432 17.2549 171.5 18.0608 170.957 19.8437L168.911 26.5599H173.631L175.684 19.8193C176.369 17.5724 176.763 15.9848 176.225 14.8126C175.74 13.7625 174.755 13.2494 173.234 13.2494C171.758 13.2494 170.371 13.8357 169.06 14.9836L170.883 9H166.163L160.813 26.5599ZM74.9043 33.7799L74.8082 34.0456C74.5347 34.8024 74.24 35.1325 73.4574 35.1325C72.4588 35.1325 72.6829 34.5126 73.195 33.0955L73.2357 32.9828C73.7187 31.6463 73.9418 31.0666 74.9268 31.0666C75.669 31.0666 75.7761 31.4047 75.5074 32.1857H77.8148L77.8351 32.1294C78.3647 30.664 77.5259 29.9233 75.2995 29.9233C74.0041 29.9233 72.977 30.189 72.2212 30.7123C71.5561 31.1713 71.2063 31.9522 70.7931 33.0955C70.38 34.2388 70.1652 35.0198 70.4986 35.4787C70.8868 36.0101 71.7242 36.2691 73.0466 36.2691C75.3 36.2691 76.612 35.5512 77.1416 34.0858C77.1794 33.9812 77.2143 33.8846 77.2387 33.7799H74.9043ZM88.5521 36.1228H94.071L94.5162 34.891H91.3587L91.8359 33.5706H94.7505L95.1899 32.3548H92.2752L92.6768 31.2437H95.8343L96.2592 30.0682H90.7403L88.5521 36.1228ZM106.15 36.1228H108.39L109.878 31.445L109.794 36.1228H111.602L114.898 31.445L113.005 36.1228H115.245L117.433 30.0682H114.141L112.328 32.6205C112.249 32.7252 111.967 33.2083 111.443 34.0617C111.546 33.2163 111.623 32.7413 111.631 32.6446L111.658 30.0682H108.338L106.15 36.1228ZM127.527 36.1228H133.045L133.491 34.891H130.333L130.81 33.5706H133.725L134.164 32.3548H131.25L131.651 31.2437H134.809L135.234 30.0682H129.715L127.527 36.1228ZM145.125 36.1228H147.257L147.626 35.1003C147.955 34.1905 148.201 33.2485 148.378 32.2743L148.97 36.1228H151.453L153.641 30.0682H151.523L151.18 31.0183C150.941 31.6785 150.687 32.6044 150.402 33.8041L149.782 30.0682H147.313L145.125 36.1228ZM164.963 36.1228H167.338L169.101 31.2437H171.098L171.523 30.0682H165.248L164.824 31.2437H166.726L164.963 36.1228ZM64.8092 52.0869H65.6207L67.3033 45.0533H69.6422L69.7854 44.4362H64.0216L63.8785 45.0533H66.4918L64.8092 52.0869ZM69.139 52.0869H69.845L70.5014 49.3203C70.8713 47.7987 71.6231 47.0006 72.9596 47.0006C73.6995 47.0006 74.141 47.3092 74.141 47.8731C74.141 47.9902 74.1171 48.1711 74.0575 48.4158L73.1863 52.0869H73.9023L74.7496 48.501C74.8093 48.2562 74.8331 48.054 74.8331 47.8625C74.8331 46.99 74.2007 46.4473 73.1147 46.4473C72.351 46.4473 71.647 46.7452 70.9787 47.3518L71.6708 44.4362H70.9548L69.139 52.0869ZM80.215 50.395C79.9047 51.225 79.2245 51.6719 78.2818 51.6719C77.172 51.6719 76.5038 51.0441 76.5038 50.0226C76.5038 49.8523 76.5157 49.6501 76.5396 49.4054H81.2413C81.2651 49.15 81.289 48.9372 81.289 48.767C81.289 47.2879 80.4059 46.4366 78.8665 46.4366C77.0766 46.4366 75.7639 47.8519 75.7639 49.863C75.7639 51.3846 76.6589 52.227 78.2222 52.227C79.6064 52.227 80.573 51.5762 80.9191 50.395H80.215ZM76.6589 48.8202C77.0169 47.5965 77.7806 46.9793 78.9262 46.9793C79.9525 46.9793 80.573 47.5858 80.573 48.5435C80.573 48.6073 80.573 48.6925 80.5611 48.8202H76.6589ZM85.2627 52.0869H90.6804L90.7998 51.491H86.1816L86.8976 48.4265H90.9191L91.0623 47.7986H87.0527L87.6971 45.064H91.7783L91.9454 44.4362H87.0527L85.2627 52.0869ZM91.8479 52.0869H92.5659L93.2222 49.3203C93.5921 47.788 94.3439 47.0006 95.6804 47.0006C96.4322 47.0006 96.8618 47.3092 96.8618 47.8731C96.8618 48.0008 96.8499 48.1817 96.7902 48.4158L95.9072 52.0869H96.6112L97.4704 48.501C97.5301 48.2562 97.5539 48.054 97.5539 47.8625C97.5539 46.99 96.9096 46.4473 95.8236 46.4473C95.0361 46.4473 94.3081 46.7665 93.6399 47.4049L93.8308 46.5643H93.1625L91.8479 52.0869ZM99.9117 52.0951C98.4447 52.4414 97.7231 52.8625 97.7231 53.5272C97.7231 54.3203 98.6748 55 100.214 55C102.098 55 103.263 54.2818 103.263 53.4011C103.263 52.5824 102.544 52.249 101.106 51.8771C99.9549 51.5821 99.2357 51.5308 99.2357 51.1097C99.2357 50.8916 99.4659 50.7377 99.9117 50.6116C100.257 50.509 100.875 50.509 101.638 50.3166C102.76 50.0217 103.407 49.2521 103.407 48.239C103.407 47.5977 102.99 46.9712 102.458 46.6378C102.657 46.2539 103.189 46.05 104.327 46.1911L104.47 45.6817C103.081 45.3429 102.422 45.6938 101.849 46.2477C101.745 46.3476 101.139 46.3075 101.006 46.3177C99.4319 46.4378 98.5885 47.256 98.5885 48.5211C98.5885 49.3163 99.02 49.8934 99.8686 50.2782C99.0631 50.4193 98.6317 50.7506 98.6317 51.161C98.6317 51.5949 99.0631 51.9155 99.9117 52.0951V52.0951ZM100.803 49.9704C99.8686 49.9704 99.2501 49.4061 99.2501 48.5468C99.2501 47.5336 100.027 46.8025 101.177 46.8025C102.112 46.8025 102.76 47.4181 102.76 48.2774C102.76 49.2522 101.897 49.9704 100.803 49.9704ZM100.588 52.2875C101.94 52.5824 102.601 52.8496 102.601 53.4396C102.601 54.0659 101.724 54.5639 100.271 54.5639C99.0775 54.5639 98.3128 54.0531 98.3128 53.4909C98.3128 52.9651 99.0775 52.5311 100.588 52.2875ZM103.995 52.0869H104.701L106.014 46.5643H105.309L103.995 52.0869ZM105.536 45.3087H106.36L106.562 44.4362H105.739L105.536 45.3087ZM106.381 52.0869H107.099L107.756 49.3203C108.126 47.788 108.877 47.0006 110.214 47.0006C110.966 47.0006 111.395 47.3092 111.395 47.8731C111.395 48.0008 111.383 48.1817 111.324 48.4158L110.441 52.0869H111.145L112.004 48.501C112.064 48.2562 112.088 48.054 112.088 47.8625C112.088 46.99 111.443 46.4473 110.357 46.4473C109.57 46.4473 108.842 46.7665 108.173 47.4049L108.364 46.5643H107.696L106.381 52.0869ZM117.469 50.395C117.159 51.225 116.479 51.6719 115.536 51.6719C114.426 51.6719 113.758 51.0441 113.758 50.0226C113.758 49.8523 113.77 49.6501 113.794 49.4054H118.496C118.52 49.15 118.543 48.9372 118.543 48.767C118.543 47.2879 117.66 46.4366 116.121 46.4366C114.331 46.4366 113.018 47.8519 113.018 49.863C113.018 51.3846 113.913 52.227 115.477 52.227C116.861 52.227 117.827 51.5762 118.173 50.395H117.469ZM113.913 48.8202C114.271 47.5965 115.035 46.9793 116.181 46.9793C117.207 46.9793 117.827 47.5858 117.827 48.5435C117.827 48.6073 117.827 48.6925 117.815 48.8202H113.913ZM123.878 50.395C123.567 51.225 122.887 51.6719 121.944 51.6719C120.835 51.6719 120.166 51.0441 120.166 50.0226C120.166 49.8523 120.178 49.6501 120.202 49.4054H124.904C124.928 49.15 124.952 48.9372 124.952 48.767C124.952 47.2879 124.068 46.4366 122.529 46.4366C120.739 46.4366 119.426 47.8519 119.426 49.863C119.426 51.3846 120.321 52.227 121.885 52.227C123.269 52.227 124.236 51.5762 124.582 50.395H123.878ZM120.321 48.8202C120.679 47.5965 121.443 46.9793 122.589 46.9793C123.615 46.9793 124.236 47.5858 124.236 48.5435C124.236 48.6073 124.236 48.6925 124.224 48.8202H120.321ZM125.63 52.0869H126.372L127.004 49.3097C127.338 47.8412 127.863 47.0964 128.866 47.0964C128.961 47.0964 129.092 47.107 129.283 47.1283L129.438 46.5111C129.271 46.4579 129.104 46.426 128.937 46.426C128.388 46.426 127.935 46.7239 127.386 47.2879L127.553 46.5643H126.897L125.63 52.0869ZM131.679 44.4362H130.99C130.736 45.5282 130.658 45.7209 130.381 46.8303L130.958 46.836L131.679 44.4362ZM132.66 50.3631H131.942C132.014 51.5868 132.875 52.2483 134.391 52.2483C135.87 52.2483 136.777 51.5336 136.777 50.6078C136.777 49.6608 135.954 49.3416 134.737 48.9159C133.89 48.618 133.412 48.4158 133.412 47.8625C133.412 47.3198 133.985 46.9367 134.773 46.9367C135.823 46.9367 136.36 47.3092 136.443 48.1072H137.111C137.04 47.0006 136.276 46.426 134.88 46.426C133.52 46.426 132.708 47.0538 132.708 47.937C132.708 48.7138 133.257 49.0543 134.367 49.4373C135.393 49.7885 136.049 49.98 136.049 50.5972C136.049 51.2888 135.465 51.7145 134.45 51.7145C133.353 51.7145 132.756 51.2676 132.66 50.3631V50.3631ZM148.46 49.831H147.684C147.267 51.0015 146.217 51.6932 145.071 51.6932C143.364 51.6932 142.338 50.6291 142.338 48.8734C142.338 46.6069 143.878 44.8405 145.87 44.8405C147.207 44.8405 148.042 45.5109 148.15 46.7346H148.913C148.818 45.1491 147.72 44.234 145.918 44.234C144.713 44.234 143.639 44.6809 142.863 45.5002C142.016 46.4047 141.515 47.6284 141.515 48.8734C141.515 50.9909 142.792 52.2908 145.023 52.2908C146.551 52.2908 147.971 51.3846 148.46 49.831V49.831ZM149.21 52.0869H149.916L150.572 49.3203C150.942 47.7987 151.694 47.0006 153.03 47.0006C153.77 47.0006 154.212 47.3092 154.212 47.8731C154.212 47.9902 154.188 48.1711 154.128 48.4158L153.257 52.0869H153.973L154.82 48.501C154.88 48.2562 154.904 48.054 154.904 47.8625C154.904 46.99 154.271 46.4473 153.186 46.4473C152.422 46.4473 151.718 46.7452 151.049 47.3518L151.742 44.4362H151.026L149.21 52.0869ZM155.835 49.8736C155.835 51.3527 156.765 52.2483 158.353 52.2483C160.226 52.2483 161.527 50.81 161.527 48.7989C161.527 47.2666 160.608 46.4047 159.021 46.4047C157.171 46.4047 155.835 47.937 155.835 49.8736ZM158.973 46.9474C160.155 46.9474 160.775 47.5646 160.775 48.767C160.775 50.3844 159.749 51.6932 158.365 51.6932C157.243 51.6932 156.587 51.0441 156.587 49.8736C156.587 48.2243 157.589 46.9474 158.973 46.9474ZM162.169 52.0869H162.875L164.188 46.5643H163.484L162.169 52.0869ZM163.711 45.3087H164.534L164.737 44.4362H163.913L163.711 45.3087ZM169.474 50.246C169.188 51.1292 168.388 51.6719 167.458 51.6719C166.264 51.6719 165.572 50.9802 165.572 49.8417C165.572 48.2669 166.598 46.9687 168.007 46.9687C169.045 46.9687 169.701 47.5114 169.737 48.4052H170.417C170.405 47.1709 169.522 46.4473 167.983 46.4473C166.133 46.4473 164.832 47.9264 164.832 49.8523C164.832 51.3527 165.811 52.2377 167.434 52.2377C168.818 52.2377 169.892 51.5016 170.238 50.246H169.474ZM175.692 50.395C175.381 51.225 174.701 51.6719 173.758 51.6719C172.649 51.6719 171.98 51.0441 171.98 50.0226C171.98 49.8523 171.992 49.6501 172.016 49.4054H176.718C176.742 49.15 176.766 48.9372 176.766 48.767C176.766 47.2879 175.882 46.4366 174.343 46.4366C172.553 46.4366 171.24 47.8519 171.24 49.863C171.24 51.3846 172.135 52.227 173.699 52.227C175.083 52.227 176.05 51.5762 176.396 50.395H175.692ZM172.135 48.8202C172.493 47.5965 173.257 46.9793 174.403 46.9793C175.429 46.9793 176.05 47.5858 176.05 48.5435C176.05 48.6073 176.05 48.6925 176.038 48.8202H172.135ZM179.601 28.4689H170.671H69.93H66.3587C65.4365 33.0747 63.239 37.533 61 37.7235H69.93H170.671H174.242C175.164 33.1177 177.362 28.6594 179.601 28.4689Z" fill="black"/>
</svg>
