<?xml version="1.0" encoding="UTF-8"?>
<svg xmlns="http://www.w3.org/2000/svg" width="50" height="50" viewBox="0 0 50 50" fill="none">
  <path fill-rule="evenodd" clip-rule="evenodd" d="M0 25V50H25H50V25V0H25H0V25ZM31.825 15.95L32.425 16.5566L30.35 18.6054C27.9494 20.9756 27.8701 21.032 27.3411 20.7471C27.1616 20.6504 24.5 18.0571 24.5 17.9789C24.5 17.91 25.6279 16.8334 25.7243 16.8102C25.758 16.8021 26.0449 17.1171 26.3616 17.5103C26.6785 17.9034 27.1015 18.4275 27.3018 18.675C27.7479 19.2265 27.6936 19.2295 28.2061 18.625C28.4393 18.35 29.1761 17.4781 29.8435 16.6876C30.8482 15.4974 31.0714 15.2583 31.141 15.2968C31.1871 15.3224 31.495 15.6164 31.825 15.95ZM23.1845 17.1105C23.2684 17.2031 23.2769 17.3846 23.3 19.6012L23.325 21.992L23.4463 22.121C23.5786 22.262 23.7371 22.2815 24.075 22.1985C26.8579 21.5145 29.3472 22.0877 30.2734 23.6257C30.8675 24.6125 30.8655 24.5919 30.8866 29.9389L30.9049 34.5529L30.7563 34.7014L30.6077 34.85H28.675H26.7423L26.5961 34.7039L26.45 34.5578L26.4496 30.5414C26.4491 25.6537 26.4524 25.6819 25.8546 25.3664C25.4766 25.1667 24.2281 25.2441 23.5851 25.5069C23.2889 25.628 23.3 25.4434 23.3 30.2249V34.6048L23.1677 34.7274L23.0354 34.85H21.1894C20.019 34.85 19.3083 34.8311 19.2472 34.7985C18.987 34.6592 19 35.1222 19 25.9736V17.4923L19.1415 17.3509C19.3046 17.1878 19.3352 17.1829 20.775 17.0966C23.1741 16.953 23.0413 16.9521 23.1845 17.1105ZM38.875 19.6524C41.4034 19.8687 42.7839 20.9949 43.2326 23.207C43.3372 23.7231 43.399 31.9609 43.3 32.2C43.0163 32.8851 38.702 33.5634 36.268 33.3056C33.7943 33.0436 32.3731 32.111 31.9142 30.4484C31.7351 29.7994 31.806 28.2734 32.043 27.675C32.799 25.7669 35.1219 24.8671 38.0979 25.33C38.864 25.4491 39.0382 25.295 38.9855 24.5448C38.9184 23.5906 38.5969 23.2094 37.7197 23.0436C37.0685 22.9205 35.3042 23.0799 34.3091 23.3516C33.7539 23.5033 33.6251 23.4239 33.4546 22.825C33.324 22.366 33 20.9913 33 20.8958C33 20.3727 35.7066 19.6857 38.075 19.6076C38.185 19.604 38.545 19.6241 38.875 19.6524ZM14.125 19.7763C16.1609 20.1404 17.2804 21.1969 17.7085 23.1584C17.8433 23.776 17.9215 31.8566 17.7956 32.1606C17.6429 32.5294 15.8781 33.0222 13.9821 33.2256C9.116 33.7477 6.34325 32.3109 6.35087 29.2709C6.35838 26.2931 8.8 24.7624 12.6339 25.3318C13.395 25.4448 13.496 25.3678 13.4984 24.6716C13.5042 22.9989 12.069 22.588 8.90913 23.3579C8.1945 23.5319 8.192 23.5291 7.85087 22.1734C7.478 20.6917 7.48325 20.6702 8.2865 20.4065C10.3018 19.745 12.5766 19.4994 14.125 19.7763ZM11.8609 27.6033C10.459 27.8495 9.9785 29.7986 11.1687 30.4104C11.7684 30.7185 13.08 30.7246 13.384 30.4206C13.5666 30.238 13.5658 27.9792 13.383 27.8075C13.1753 27.6124 12.4008 27.5084 11.8609 27.6033ZM36.9764 27.7119C35.9109 28.0826 35.5941 29.7558 36.4756 30.357C37.0935 30.7784 38.6513 30.7964 38.9021 30.385C39.071 30.108 39.0496 28.0666 38.8758 27.86C38.6403 27.5801 37.5903 27.4983 36.9764 27.7119Z" fill="black"></path>
</svg>
